<svg id="layer1" xmlns="http://www.w3.org/2000/svg" width="17.974" height="17.356" viewBox="0 0 17.974 17.356">
  <path id="path43283" d="M17.722,250.006a3.747,3.747,0,0,1,3.666,3.144h8.961a1.666,1.666,0,0,1,1.6,1.95l-1.41,8.261a2.091,2.091,0,0,1-2.053,1.737H18.1a2.1,2.1,0,0,1-2.052-1.728v-.009L14.8,256.113a3.78,3.78,0,0,1,2.918-6.107Zm0,1.258a2.516,2.516,0,1,0,2.479,2.515A2.488,2.488,0,0,0,17.722,251.264Zm12.627,3.144H21.387a3.747,3.747,0,0,1-3.666,3.144,3.64,3.64,0,0,1-1.467-.308l1.007,5.9a.845.845,0,0,0,.834.7H28.489a.839.839,0,0,0,.833-.693l1.41-8.261A.386.386,0,0,0,30.348,254.408Z" transform="translate(-14.003 -247.743)" fill="#fff" fill-rule="evenodd"/>
  <path id="path43285" d="M19.43,246.043a.566.566,0,0,1,.315.3l2.263,5.092a.566.566,0,0,1-1.034.46L18.71,246.8a.566.566,0,0,1,.719-.758Z" transform="translate(-7.037 -246.006)" fill="#fff" fill-rule="evenodd"/>
  <path id="path43287" d="M32.768,246.01a.565.565,0,0,1,.576.792l-1,2.24a3.4,3.4,0,0,0-.986-.566l.948-2.134a.563.563,0,0,1,.458-.333Z" transform="translate(-26.312 -246.006)" fill="#fff" fill-rule="evenodd"/>
  <path id="path43289" d="M27.566,259.006a.566.566,0,0,1,.566.566V264.1a.566.566,0,0,1-1.132,0v-4.526A.566.566,0,0,1,27.566,259.006Z" transform="translate(-18.266 -250.558)" fill="#fff" fill-rule="evenodd"/>
  <path id="path43291" d="M23.566,259.006a.566.566,0,0,1,.566.566V264.1a.566.566,0,0,1-1.132,0v-4.526A.566.566,0,0,1,23.566,259.006Z" transform="translate(-11.771 -250.558)" fill="#fff" fill-rule="evenodd"/>
  <path id="path43293" d="M31.566,262.006a.566.566,0,0,1,.566.566V265.4a.566.566,0,1,1-1.132,0v-2.829A.566.566,0,0,1,31.566,262.006Z" transform="translate(-24.762 -251.8)" fill="#fff" fill-rule="evenodd"/>
  <path id="path43297" d="M35.7,253.006a.566.566,0,0,1,.566.566v.566h.566a.566.566,0,1,1,0,1.132h-.566v.566a.566.566,0,0,1-1.132,0v-.566h-.566a.566.566,0,0,1,0-1.132h.566v-.566a.566.566,0,0,1,.566-.566Z" transform="translate(-32.303 -248.564)" fill="#fff" fill-rule="evenodd"/>
</svg>
