<svg xmlns="http://www.w3.org/2000/svg" width="205.408" height="161.535" viewBox="0 0 205.408 161.535">
  <g id="Invite-bro" transform="translate(-57.568 -100.599)">
    <g id="Group_111" data-name="Group 111" transform="translate(57.568 100.599)">
      <g id="freepik--background-simple--inject-17" transform="translate(0 0)">
        <path id="Path_335" data-name="Path 335" d="M250.084,265.618c2.142,0,6.858-18.407,7.4-20.345a161.841,161.841,0,0,0,5.809-52.945c-1.312-22.139-3.748-46.221-16.4-63.332-25.645-34.71-73.349-30.336-97.6,3.9-7.169,10.114-14.665,20.484-24.3,27.166-10.949,7.624-23.836,6.591-35.588,11.313C71.546,178.552,57.679,203.55,58.15,226.8c.38,18.825,12.046,37.869,28.082,39.245C101.6,267.359,250.02,265.618,250.084,265.618Z" transform="translate(-58.138 -104.999)" fill="#ef554a"/>
      </g>
      <g id="freepik--background-simple--inject-17-2" data-name="freepik--background-simple--inject-17">
        <path id="Path_335-2" data-name="Path 335" d="M250.084,265.618c2.142,0,6.858-18.407,7.4-20.345a161.841,161.841,0,0,0,5.809-52.945c-1.312-22.139-3.748-46.221-16.4-63.332-25.645-34.71-73.349-30.336-97.6,3.9-7.169,10.114-14.665,20.484-24.3,27.166-10.949,7.624-23.836,6.591-35.588,11.313C71.546,178.552,57.679,203.55,58.15,226.8c.38,18.825,12.046,37.869,28.082,39.245C101.6,267.359,250.02,265.618,250.084,265.618Z" transform="translate(-58.138 -104.999)" fill="#fff" opacity="0.7"/>
      </g>
    </g>
    <g id="freepik--Character--inject-17" transform="translate(103.832 125.027)">
      <rect id="Rectangle_102" data-name="Rectangle 102" width="112.594" height="85.112" transform="translate(0.268 51.043)" fill="#ef554a"/>
      <path id="Path_324" data-name="Path 324" d="M256.842,326.663H144.248a.268.268,0,0,1-.268-.268V241.268a.268.268,0,0,1,.268-.268H256.842a.278.278,0,0,1,.268.268V326.4A.268.268,0,0,1,256.842,326.663Zm-112.316-.535H256.585V241.535H144.526Z" transform="translate(-143.979 -190.257)" fill="#263238"/>
      <path id="Path_325" data-name="Path 325" d="M144.48,197.494l49.931-48.764a8.507,8.507,0,0,1,10.9-.086l51.768,48.85Z" transform="translate(-144.212 -146.452)" fill="#ef554a"/>
      <path id="Path_326" data-name="Path 326" d="M256.843,197.534H144.249a.262.262,0,0,1-.246-.166.273.273,0,0,1,.059-.294l49.931-48.759a8.775,8.775,0,0,1,11.243-.107l51.778,48.866a.262.262,0,0,1,.064.294A.268.268,0,0,1,256.843,197.534ZM144.907,197H256.168L204.893,148.61a8.224,8.224,0,0,0-10.537.1Z" transform="translate(-143.981 -146.224)" fill="#263238"/>
      <rect id="Rectangle_103" data-name="Rectangle 103" width="93.919" height="79.26" transform="translate(9.606 10.417)" fill="#fff"/>
      <path id="Path_327" data-name="Path 327" d="M255.607,244.984H161.688a.268.268,0,0,1-.268-.268V165.478a.268.268,0,0,1,.268-.268h93.919a.268.268,0,0,1,.268.268v79.239A.268.268,0,0,1,255.607,244.984Zm-93.652-.535h93.384v-78.7H161.955Z" transform="translate(-152.082 -155.045)" fill="#263238"/>
      <path id="Path_331" data-name="Path 331" d="M144.48,242.47l56.3,42.553,56.292-42.553v85.107H144.48Z" transform="translate(-144.212 -190.94)" fill="#ef554a"/>
      <path id="Path_332" data-name="Path 332" d="M256.842,327.576H144.248a.268.268,0,0,1-.268-.268V242.18a.289.289,0,0,1,.428-.236l56.136,42.43,56.131-42.425a.268.268,0,0,1,.375.043.273.273,0,0,1,.059.166v85.128a.268.268,0,0,1-.241.294Zm-112.326-.535H256.574v-84.3l-55.869,42.232a.273.273,0,0,1-.321,0l-55.858-42.232Z" transform="translate(-143.979 -190.672)" fill="#263238"/>
      <path id="Path_336" data-name="Path 336" d="M144.48,359.369,192.949,310.9H208.6l48.469,48.469Z" transform="translate(-144.212 -222.733)" fill="#2a2a2a"/>
      <path id="Path_333" data-name="Path 333" d="M144.48,359.369,192.949,310.9H208.6l48.469,48.469Z" transform="translate(-144.212 -222.733)" fill="#ef554a" opacity="0.7"/>
      <path id="Path_334" data-name="Path 334" d="M256.841,359.4H144.247a.273.273,0,0,1-.246-.161.262.262,0,0,1,.059-.294l48.469-48.469a.252.252,0,0,1,.187-.08h15.65a.252.252,0,0,1,.187.08l48.475,48.469a.284.284,0,0,1,.059.294A.273.273,0,0,1,256.841,359.4ZM144.9,358.869h111.3l-47.955-47.934H192.829Z" transform="translate(-143.979 -222.501)" fill="#263238"/>
    </g>
  </g>
</svg>
