<svg xmlns="http://www.w3.org/2000/svg" width="30" height="27" viewBox="0 0 30 27">
  <path id="support_agent_FILL0_wght400_GRAD0_opsz48" d="M94.625-813a1.086,1.086,0,0,1-.8-.325,1.1,1.1,0,0,1-.323-.806,1.076,1.076,0,0,1,.323-.8,1.1,1.1,0,0,1,.8-.319H106.25v-11.4a9.766,9.766,0,0,0-.938-4.181,12.025,12.025,0,0,0-2.513-3.544,12.514,12.514,0,0,0-3.6-2.456,10.059,10.059,0,0,0-4.2-.919,10.059,10.059,0,0,0-4.2.919,12.514,12.514,0,0,0-3.6,2.456,12.025,12.025,0,0,0-2.512,3.544,9.766,9.766,0,0,0-.937,4.181v8.4a.726.726,0,0,1-.216.534A.726.726,0,0,1,83-817.5a2.889,2.889,0,0,1-2.119-.881A2.889,2.889,0,0,1,80-820.5v-3a2.793,2.793,0,0,1,.412-1.519,3.294,3.294,0,0,1,1.087-1.069l.113-1.987a13.6,13.6,0,0,1,1.556-4.95,13.176,13.176,0,0,1,3.037-3.75,13.649,13.649,0,0,1,4.088-2.381A13.4,13.4,0,0,1,95-840a13.5,13.5,0,0,1,4.744.844,13.2,13.2,0,0,1,4.069,2.4,13.7,13.7,0,0,1,3.019,3.75,13.394,13.394,0,0,1,1.556,4.894l.112,1.95a2.683,2.683,0,0,1,1.088.994,2.66,2.66,0,0,1,.412,1.444v3.45a2.632,2.632,0,0,1-.412,1.462,2.726,2.726,0,0,1-1.088.975v2.587a2.167,2.167,0,0,1-.661,1.589,2.167,2.167,0,0,1-1.589.661ZM90.5-823.875a1.079,1.079,0,0,1-.788-.338,1.1,1.1,0,0,1-.337-.806,1.04,1.04,0,0,1,.337-.787,1.133,1.133,0,0,1,.806-.319,1.062,1.062,0,0,1,.787.323,1.1,1.1,0,0,1,.319.8,1.1,1.1,0,0,1-.323.788A1.065,1.065,0,0,1,90.5-823.875Zm9,0a1.079,1.079,0,0,1-.787-.338,1.1,1.1,0,0,1-.338-.806,1.04,1.04,0,0,1,.338-.787,1.133,1.133,0,0,1,.806-.319,1.062,1.062,0,0,1,.787.323,1.1,1.1,0,0,1,.319.8,1.1,1.1,0,0,1-.323.788A1.065,1.065,0,0,1,99.5-823.875Zm-13.463-1.95a8.6,8.6,0,0,1,.619-4.013,9.284,9.284,0,0,1,2.062-3.056,9.076,9.076,0,0,1,2.981-1.931,9.028,9.028,0,0,1,3.375-.675,8.12,8.12,0,0,1,5.737,2.156,9.128,9.128,0,0,1,2.85,5.381,10.845,10.845,0,0,1-6.206-1.894,12.48,12.48,0,0,1-4.144-4.819,11.976,11.976,0,0,1-2.531,5.381A11.671,11.671,0,0,1,86.037-825.825Z" transform="translate(-80 840)" fill="#ef554a"/>
</svg>
