<svg xmlns="http://www.w3.org/2000/svg" width="30" height="24.09" viewBox="0 0 30 24.09">
  <path id="credit_card_FILL0_wght500_GRAD0_opsz48" d="M104.022-803.693v19.048a2.414,2.414,0,0,1-.751,1.768,2.43,2.43,0,0,1-1.774.749H76.538a2.418,2.418,0,0,1-1.768-.749,2.418,2.418,0,0,1-.749-1.768v-19.048a2.43,2.43,0,0,1,.749-1.774,2.413,2.413,0,0,1,1.768-.751H101.5a2.426,2.426,0,0,1,1.774.751,2.426,2.426,0,0,1,.751,1.774Zm-27.483,3.929H101.5v-3.929H76.538Zm0,4.765v10.354H101.5V-795Zm0,10.354v0Z" transform="translate(-74.022 806.218)" fill="#ef554a"/>
</svg>
