<svg id="freepik--Character--inject-122" xmlns="http://www.w3.org/2000/svg" width="181.754" height="159.614" viewBox="0 0 181.754 159.614">
  <path id="Path_3163" data-name="Path 3163" d="M554.724,252.13s8.25,1.391,8.915,1.57,3.279,1.417,3.411,2.215a23.936,23.936,0,0,1,0,3.146s-.476.384-.767-.384a7.827,7.827,0,0,1-.251-2.286l-1.463-.563.8,1.417.133,3.319s-1.023-.092-1.222-.885a7.83,7.83,0,0,1-.194-1.683l-1.064-.9.8,1.079.266,2.389s-.777.256-1.023-.276a8.235,8.235,0,0,1-.266-2.112l-3.007-1.054-1.99,1.11-3.718-2.077Z" transform="translate(-440.698 -201.055)" fill="#ffbe9d"/>
  <path id="Path_3164" data-name="Path 3164" d="M494.942,212.26c.041.164,9.943,13.81,9.943,13.81l19.9,6.189-.905,7.473-24.382-4.91-8.654-9.933Z" transform="translate(-409.804 -181.577)" fill="#ff725e"/>
  <g id="Group_913" data-name="Group 913" transform="translate(81.036 30.683)" opacity="0.2">
    <path id="Path_3165" data-name="Path 3165" d="M494.942,212.26c.041.164,9.943,13.81,9.943,13.81l19.9,6.189-.905,7.473-24.382-4.91-8.654-9.933Z" transform="translate(-490.84 -212.26)" fill="#ff8c69"/>
  </g>
  <rect id="Rectangle_191" data-name="Rectangle 191" width="43.772" height="7.923" rx="3.05" transform="translate(8.269 49.449)" fill="#f5f5f5"/>
  <path id="Path_3166" data-name="Path 3166" d="M390.66,256.7a1.387,1.387,0,0,0,.256-.036,1.534,1.534,0,0,0,1.248-1.345V250.3a1.534,1.534,0,0,0-.511-1.095,1.489,1.489,0,0,0-.578-.3,2.348,2.348,0,0,0-.69-.046h-4.741l-35.6.041a1.432,1.432,0,0,0-1.059.465,1.468,1.468,0,0,0-.368,1.1v4.475a2.138,2.138,0,0,0,.051.583,1.442,1.442,0,0,0,1.222,1.049h10.056l16,.031,10.792.041,2.936.026h0l-2.936.026-10.792.041-16,.031H349.819a1.744,1.744,0,0,1-.634-.2,1.693,1.693,0,0,1-.808-1.023,2.077,2.077,0,0,1-.061-.655v-4.455a1.765,1.765,0,0,1,.445-1.279,1.678,1.678,0,0,1,1.253-.552l35.6.041h4.741a2.945,2.945,0,0,1,.731.061,1.616,1.616,0,0,1,.634.338,1.647,1.647,0,0,1,.568,1.2v3.335c0,.639,0,1.2-.026,1.7a1.616,1.616,0,0,1-.619,1.069,1.534,1.534,0,0,1-.706.292.911.911,0,0,1-.281.066Z" transform="translate(-340.174 -199.33)" fill="#263238"/>
  <circle id="Ellipse_28" data-name="Ellipse 28" cx="20.914" cy="20.914" r="20.914" transform="translate(137.967 117.832) rotate(-2.75)" fill="#2a2a2a"/>
  <path id="Path_3167" data-name="Path 3167" d="M604.078,420.84v.056a20.914,20.914,0,1,0,41.823.6s0-.036,0-.056Z" transform="translate(-465.123 -283.475)" fill="#2a2a2a"/>
  <path id="Path_3168" data-name="Path 3168" d="M616.248,407.3a14.684,14.684,0,1,0,14.894-14.469A14.684,14.684,0,0,0,616.248,407.3Z" transform="translate(-471.069 -269.79)" fill="#fafafa"/>
  <path id="Path_3169" data-name="Path 3169" d="M631.144,392.828A14.684,14.684,0,0,0,616.25,407.3l29.364.425A14.684,14.684,0,0,0,631.144,392.828Z" transform="translate(-471.07 -269.79)" fill="#e0e0e0"/>
  <path id="Path_3170" data-name="Path 3170" d="M627.469,412.862a8.946,8.946,0,1,0,9.073-8.813A8.946,8.946,0,0,0,627.469,412.862Z" transform="translate(-476.551 -275.271)" fill="#263238"/>
  <path id="Path_3171" data-name="Path 3171" d="M611.661,360.789s21.41-6.475,30.264,16.786l-44.8,13.881Z" transform="translate(-461.725 -253.734)" fill="#ef554a"/>
  <circle id="Ellipse_29" data-name="Ellipse 29" cx="20.914" cy="20.914" r="20.914" transform="translate(8.934 117.834) rotate(-2.75)" fill="#2a2a2a"/>
  <path id="Path_3172" data-name="Path 3172" d="M351.788,420.84v.056a20.914,20.914,0,1,0,41.823.6v-.067Z" transform="translate(-341.872 -283.475)" fill="#2a2a2a"/>
  <path id="Path_3173" data-name="Path 3173" d="M364,407.3a14.684,14.684,0,1,0,14.894-14.469A14.684,14.684,0,0,0,364,407.3Z" transform="translate(-347.837 -269.79)" fill="#fafafa"/>
  <path id="Path_3174" data-name="Path 3174" d="M378.874,392.829A14.684,14.684,0,0,0,364,407.3l29.363.425a14.684,14.684,0,0,0-14.49-14.894Z" transform="translate(-347.839 -269.79)" fill="#e0e0e0"/>
  <path id="Path_3175" data-name="Path 3175" d="M375.179,412.862a8.946,8.946,0,1,0,9.073-8.813A8.946,8.946,0,0,0,375.179,412.862Z" transform="translate(-353.299 -275.271)" fill="#263238"/>
  <path id="Path_3176" data-name="Path 3176" d="M416.71,403.513c-.118.061-11.007-1.683-11.007-1.683h0a6.649,6.649,0,0,1-4.966,2.6c-4.706.225-9.3.435-13.3.614a6.751,6.751,0,0,0-6.445,7.023h0a6.757,6.757,0,0,0,6.48,6.465l23.185.916a15.47,15.47,0,0,0,11.252-5.145h0Z" transform="translate(-356.138 -274.188)" fill="#455a64"/>
  <path id="Path_3177" data-name="Path 3177" d="M339.572,334.117s-.992-20.382,18.162-24.627v-2.614h67.095v6.271s-9.846,11.861-6.649,21.707,4.22,10.853,4.22,10.853h38.186a26.085,26.085,0,0,0,4.823-14.469c.2-8.644-3.386-23.42-6.071-32.867-2.424-8.618-3.959-15.8-3.959-15.8l11.457-3.821s21.2,27.747,22.065,29.282,3.81,5.2,3.12,13.165-19.763,32.55-24.765,35.322-9.524,2.946-14.03,3.637c-3.908.6-32.816.2-40.381.087a14.833,14.833,0,0,1-7.467-2.071c-2.261-1.371-3.959-3.642-5.836-7.365l-4-7.795Z" transform="translate(-335.9 -214.06)" fill="#ef554a"/>
  <path id="Path_3178" data-name="Path 3178" d="M341.209,384.26,332.759,397.5a2.046,2.046,0,0,0,2.511,3.028,9.84,9.84,0,0,0,2.839-1.923c3.862-3.677,10.741-13.365,10.741-13.365Z" transform="translate(-332.402 -265.604)" fill="#455a64"/>
  <path id="Path_3179" data-name="Path 3179" d="M412.838,366.877a.594.594,0,0,1,.051-.194l.169-.557a14.7,14.7,0,0,0,.445-2.184,15.415,15.415,0,0,0-1.309-7.989,16.734,16.734,0,0,0-3.115-4.68,20.427,20.427,0,0,0-5.115-3.918,25.891,25.891,0,0,0-6.7-2.5,35.294,35.294,0,0,0-7.672-.793,57.8,57.8,0,0,0-7.672.568c-2.476.332-4.849.742-7.089,1.253a41.982,41.982,0,0,0-11.38,4.209,28.161,28.161,0,0,0-6.5,4.966c-.675.7-1.161,1.274-1.483,1.667l-.363.455a.915.915,0,0,1-.133.148,17.194,17.194,0,0,1,1.9-2.343,27.62,27.62,0,0,1,6.485-5.058,41.614,41.614,0,0,1,11.421-4.286c2.24-.511,4.6-.936,7.1-1.274a58.186,58.186,0,0,1,7.733-.573,35.2,35.2,0,0,1,7.713.8,26.2,26.2,0,0,1,6.762,2.557,20.567,20.567,0,0,1,5.181,3.979A16.839,16.839,0,0,1,412.4,355.9a15.344,15.344,0,0,1,1.238,8.081,13.052,13.052,0,0,1-.512,2.184c-.082.235-.143.414-.194.552A1.08,1.08,0,0,1,412.838,366.877Z" transform="translate(-343.427 -245.838)" fill="#263238"/>
  <path id="Path_3180" data-name="Path 3180" d="M446.261,366.317c-.031,0,.107-.322.251-.905a6.618,6.618,0,0,0,.077-2.557,10.511,10.511,0,0,0-1.248-3.55,12.121,12.121,0,0,0-1.238-1.862,11.221,11.221,0,0,0-1.662-1.724,14.52,14.52,0,0,0-3.989-2.332,18.778,18.778,0,0,0-3.662-1.023,23.975,23.975,0,0,0-2.557-.292,7.517,7.517,0,0,1-.941-.072.823.823,0,0,1,.246,0h.7a19.139,19.139,0,0,1,2.557.21,17.687,17.687,0,0,1,3.723.956,14.582,14.582,0,0,1,4.092,2.358,11.719,11.719,0,0,1,1.7,1.765,12.788,12.788,0,0,1,1.243,1.908,10.179,10.179,0,0,1,1.217,3.642,6.3,6.3,0,0,1-.159,2.588,3.68,3.68,0,0,1-.245.66A.9.9,0,0,1,446.261,366.317Z" transform="translate(-380.712 -249.84)" fill="#f5f5f5"/>
  <g id="Group_914" data-name="Group 914" transform="translate(52.409 98.586)" opacity="0.4">
    <path id="Path_3181" data-name="Path 3181" d="M434.87,345.04a26.872,26.872,0,0,1,10.1,4.092,17.856,17.856,0,0,1,6.767,8.409,14.748,14.748,0,0,1-.271,10.869l4.741.394c1.6-5.324-.138-11.856-3.974-16.024a23.528,23.528,0,0,0-17.364-7.759" transform="translate(-434.87 -345.02)"/>
  </g>
  <rect id="Rectangle_192" data-name="Rectangle 192" width="50.252" height="35.859" rx="8.58" transform="translate(5.032 56.972)" fill="#455a64"/>
  <path id="Path_3182" data-name="Path 3182" d="M392.287,279.173c0,.077-11.3.133-25.231.133s-25.236-.056-25.236-.133,11.293-.133,25.236-.133S392.287,279.1,392.287,279.173Z" transform="translate(-337.003 -214.201)" fill="#263238"/>
  <path id="Path_3183" data-name="Path 3183" d="M441.871,338.283c0,.072-15.083.133-33.68.133s-33.68-.061-33.68-.133,15.078-.133,33.68-.133S441.871,338.211,441.871,338.283Z" transform="translate(-352.973 -243.078)" fill="#263238"/>
  <path id="Path_3184" data-name="Path 3184" d="M476.44,327.277a5.8,5.8,0,0,0,1.217-3.007c.1-1.683-.665-3.79-2.481-3.79h-23.17a6.8,6.8,0,0,0-6.8,6.8Z" transform="translate(-387.512 -234.446)" fill="#455a64"/>
  <path id="Path_3185" data-name="Path 3185" d="M561.692,264.5l-4.03-8.4a5.115,5.115,0,0,1,2.046-6.572l12.05-7.186a4.041,4.041,0,0,1,2.082-.578h2.6l1.023,16.986-4.01,1.55,2.557,4.133Z" transform="translate(-442.214 -195.989)" fill="#ff725e"/>
  <path id="Path_3186" data-name="Path 3186" d="M594.91,243s4.122.946,4.639,7.3-3.636,8.337-3.636,8.337Z" transform="translate(-460.645 -196.595)" fill="#ebebeb"/>
  <path id="Path_3187" data-name="Path 3187" d="M558.891,262.728s-8.332,3.949-9.35,4.6a1.941,1.941,0,0,0-.757,2.624c.941,2.358,4.839.138,4.839.138l7.759-3.877s2.982-1.407,1.877-3.171C562.026,261.071,558.891,262.728,558.891,262.728Z" transform="translate(-438.006 -205.915)" fill="#263238"/>
  <path id="Path_3188" data-name="Path 3188" d="M545.236,260.54s7.831,1.34,8.5,1.534,3.273,1.417,3.406,2.215a23.936,23.936,0,0,1,0,3.146s-.471.384-.767-.384a8.063,8.063,0,0,1-.251-2.291l-1.463-.563.8,1.417.133,3.325s-1.023-.092-1.217-.89a7.76,7.76,0,0,1-.194-1.678l-1.069-.905.8,1.079.271,2.394s-.777.251-1.023-.281a8.216,8.216,0,0,1-.266-2.112L549.88,265.5l-1.99,1.11-3.13-1.739Z" transform="translate(-436.145 -205.163)" fill="#ffbe9d"/>
  <path id="Path_3189" data-name="Path 3189" d="M563.316,233.739c0,3.171-1.458,5.739-3.253,5.739s-3.253-2.557-3.253-5.739S558.263,228,560.063,228,563.316,230.557,563.316,233.739Z" transform="translate(-442.032 -189.267)" fill="#263238"/>
  <path id="Path_3190" data-name="Path 3190" d="M564.21,245.838l1.79,6.2a1.606,1.606,0,0,0,.834-1.831c-.45-2.123-.706-3.631-1.2-5.493-.061-.184-1.427,1.125-1.427,1.125" transform="translate(-445.647 -197.423)" fill="#263238"/>
  <g id="Group_915" data-name="Group 915" transform="translate(80.789 65.688)" opacity="0.4">
    <path id="Path_3191" data-name="Path 3191" d="M492.732,338.43c-.174-.511-.358-1.023-.511-1.57s-.348-1.023-.481-1.534a16.474,16.474,0,0,1-.45-2.337c-3.018,12.275,1.591,20.934,9.5,21.543,11.559.89,25.65,1.534,31.348.041,10.388-2.726,14.2-11.39,15.109-12.817s9.171-16.531,4.092-31.072S537.45,280.7,537.45,280.7l-8.4,2.823s1.534,7.161,3.974,15.774c2.685,9.447,6.276,24.223,6.071,32.867a26.085,26.085,0,0,1-4.823,14.47H496.087s-.818-.818-3.34-8.184" transform="translate(-490.357 -280.7)"/>
  </g>
  <path id="Path_3192" data-name="Path 3192" d="M336.582,378l.271-2.915,69.7,8.03a6.884,6.884,0,0,1,5.974,8.04l-.312,1.765L340.1,382.435A4.092,4.092,0,0,1,336.582,378Z" transform="translate(-334.435 -261.12)" fill="#ff725e"/>
  <g id="Group_916" data-name="Group 916" transform="translate(2.129 113.96)" opacity="0.6">
    <path id="Path_3193" data-name="Path 3193" d="M336.582,378l.271-2.915,69.7,8.03a6.884,6.884,0,0,1,5.974,8.04l-.312,1.765L340.1,382.435A4.092,4.092,0,0,1,336.582,378Z" transform="translate(-336.564 -375.08)"/>
  </g>
  <g id="Group_917" data-name="Group 917" transform="translate(137.676 106.226)" opacity="0.3">
    <path id="Path_3194" data-name="Path 3194" d="M601.58,390.106s15.344-16.879,18.51-30.146a29.834,29.834,0,0,1,4.752.353S615.768,384.981,601.58,390.106Z" transform="translate(-601.58 -359.959)"/>
  </g>
  <path id="Path_3195" data-name="Path 3195" d="M619.108,348.34a2.456,2.456,0,0,1,.082.425c.041.281.123.7.174,1.233a18.79,18.79,0,0,1-.118,4.6,23.25,23.25,0,0,1-2.046,6.485,73.486,73.486,0,0,1-4.061,7.263,96.971,96.971,0,0,1-8.981,12.142c-1.248,1.478-2.281,2.655-3,3.463l-.829.926a3.57,3.57,0,0,1-.3.312,2.283,2.283,0,0,1,.261-.343l.793-.962,2.931-3.514a105.452,105.452,0,0,0,8.9-12.163,77.938,77.938,0,0,0,4.092-7.227,23.735,23.735,0,0,0,2.046-6.414,20.459,20.459,0,0,0,.2-4.542c-.036-.537-.1-.951-.123-1.238a2.266,2.266,0,0,1-.021-.45Z" transform="translate(-463.146 -248.056)" fill="#263238"/>
  <path id="Path_3196" data-name="Path 3196" d="M580.951,414.239a20.51,20.51,0,0,1-2.46-2.22,21.044,21.044,0,0,1-2.271-2.409A41,41,0,0,1,580.951,414.239Z" transform="translate(-451.514 -277.989)" fill="#263238"/>
  <path id="Path_3197" data-name="Path 3197" d="M496.43,413.791a7.1,7.1,0,0,1,1.13-2.184,7.2,7.2,0,0,1,1.611-1.857c.056.056-.644.9-1.391,2S496.5,413.821,496.43,413.791Z" transform="translate(-412.535 -278.057)" fill="#263238"/>
  <path id="Path_3198" data-name="Path 3198" d="M431.814,421.84a10.3,10.3,0,0,0,2.092-2.66,9.155,9.155,0,0,0,1.023-3.5A8.138,8.138,0,0,0,431.256,408a9.14,9.14,0,0,0-3.366-1.407,10.286,10.286,0,0,0-3.381-.046.988.988,0,0,1,.225-.066,5.584,5.584,0,0,1,.675-.133,8.025,8.025,0,0,1,2.516.061,9.15,9.15,0,0,1,3.468,1.386,8.265,8.265,0,0,1,3.78,7.923,9.15,9.15,0,0,1-1.1,3.58,7.928,7.928,0,0,1-1.534,1.995,5.26,5.26,0,0,1-.512.445.957.957,0,0,1-.21.1Z" transform="translate(-377.4 -276.362)" fill="#263238"/>
  <path id="Path_3199" data-name="Path 3199" d="M388.7,421.541a10.984,10.984,0,0,1-.251-2.455,11.614,11.614,0,0,1,0-2.475,22.956,22.956,0,0,1,.235,4.931Z" transform="translate(-359.749 -281.408)" fill="#263238"/>
  <path id="Path_3200" data-name="Path 3200" d="M392.039,421.541a23.683,23.683,0,0,1-.629-4.941,12.031,12.031,0,0,1,.445,2.455,11.909,11.909,0,0,1,.184,2.486Z" transform="translate(-361.229 -281.403)" fill="#263238"/>
  <path id="Path_3201" data-name="Path 3201" d="M412.7,333.643c0,.072-8.475.133-18.924.133s-18.924-.061-18.924-.133,8.475-.133,18.924-.133S412.7,333.566,412.7,333.643Z" transform="translate(-353.139 -240.811)" fill="#263238"/>
  <path id="Path_3202" data-name="Path 3202" d="M395.063,292.332c-.077,0-.133-9.718-.133-21.676s.036-21.656.133-21.656.133,9.718.133,21.681S395.135,292.332,395.063,292.332Z" transform="translate(-362.949 -199.526)" fill="#263238"/>
  <path id="Path_3203" data-name="Path 3203" d="M384.991,292.272c-.072,0,.292-9.718.813-21.666s1.023-21.661,1.074-21.656-.286,9.718-.808,21.666S385.089,292.277,384.991,292.272Z" transform="translate(-358.089 -199.501)" fill="#263238"/>
  <path id="Path_3204" data-name="Path 3204" d="M356.828,422.014a1.657,1.657,0,0,1-.225-.23c-.133-.153-.353-.373-.593-.685a19.634,19.634,0,0,1-1.887-2.772,21.19,21.19,0,0,1,.087-21.216,19.262,19.262,0,0,1,1.908-2.757c.245-.312.465-.511.6-.685s.22-.23.225-.22a1.289,1.289,0,0,1-.184.256c-.123.169-.332.394-.563.716a21.893,21.893,0,0,0-.107,26.612c.225.322.43.552.552.721A1.521,1.521,0,0,1,356.828,422.014Z" transform="translate(-341.644 -270.093)" fill="#455a64"/>
  <path id="Path_3205" data-name="Path 3205" d="M498.125,373.11l-.159.3-3.089,5.785-4.317,4.153,8.628,11.488,7.186-1.192s-.8-1.642-4.414-1.959l-1.366-6.864,5.069-7.856" transform="translate(-409.667 -260.157)" fill="#455a64"/>
  <path id="Path_3206" data-name="Path 3206" d="M490.58,392.3l8.629,11.488,7.186-1.192-.987-.946-5.9.644L491.5,391.42Z" transform="translate(-409.677 -269.102)" fill="#e0e0e0"/>
  <path id="Path_3207" data-name="Path 3207" d="M509.817,402.978c-.041.082-.511-.087-1.023.026s-.926.4-.992.343.256-.542.931-.66S509.873,402.912,509.817,402.978Z" transform="translate(-418.086 -274.594)" fill="#263238"/>
  <path id="Path_3208" data-name="Path 3208" d="M508.99,399.384c-.061.061-.455-.307-1.023-.327s-1.023.322-1.069.256.036-.159.22-.307a1.386,1.386,0,0,1,.859-.266,1.345,1.345,0,0,1,.839.322A.567.567,0,0,1,508.99,399.384Z" transform="translate(-417.642 -272.678)" fill="#263238"/>
  <path id="Path_3209" data-name="Path 3209" d="M508.478,394.943c-.072.056-.389-.317-.916-.409s-.951.148-1.023.072.046-.148.235-.256a1.263,1.263,0,0,1,1.534.276C508.483,394.79,508.514,394.923,508.478,394.943Z" transform="translate(-417.463 -270.462)" fill="#263238"/>
  <path id="Path_3210" data-name="Path 3210" d="M511.82,390.772c-.077.041-.348-.332-.844-.547s-.946-.184-.967-.271.511-.3,1.1,0S511.907,390.746,511.82,390.772Z" transform="translate(-419.168 -268.311)" fill="#263238"/>
  <path id="Path_3211" data-name="Path 3211" d="M513.019,385.965c-.036.026-.317-.22-.752-.65l-.737-.762a2.352,2.352,0,0,1-.43-.511.578.578,0,0,1-.031-.445.445.445,0,0,1,.394-.3,1.309,1.309,0,0,1,.731.235,2.7,2.7,0,0,1,.511.425,2.491,2.491,0,0,1,.547.977,1.345,1.345,0,0,1,0,1.023,7.666,7.666,0,0,0-.215-.936,2.558,2.558,0,0,0-.547-.844,2.346,2.346,0,0,0-.465-.358,1.192,1.192,0,0,0-.542-.189.133.133,0,0,0-.123.087.276.276,0,0,0,0,.21,2.26,2.26,0,0,0,.358.45l.7.813A3.069,3.069,0,0,1,513.019,385.965Z" transform="translate(-419.672 -265.135)" fill="#263238"/>
  <path id="Path_3212" data-name="Path 3212" d="M515.4,387.222c-.036,0-.072-.378.245-.875a1.821,1.821,0,0,1,2.046-.742.348.348,0,0,1,.153.24.43.43,0,0,1-.051.24,1.022,1.022,0,0,1-.22.271,3.414,3.414,0,0,1-.46.373,3.187,3.187,0,0,1-.9.419,1.473,1.473,0,0,1-.9.067c0-.051.332-.082.829-.281a3.579,3.579,0,0,0,.8-.445,3.253,3.253,0,0,0,.409-.358.814.814,0,0,0,.159-.189c.026-.072,0-.051,0-.067a.568.568,0,0,0-.22-.046,1.6,1.6,0,0,0-.271,0,1.789,1.789,0,0,0-.511.123,1.754,1.754,0,0,0-.711.511A6.344,6.344,0,0,0,515.4,387.222Z" transform="translate(-421.758 -266.224)" fill="#263238"/>
  <path id="Path_3213" data-name="Path 3213" d="M500.08,390.171a.864.864,0,1,1-.992-.711.864.864,0,0,1,.992.711Z" transform="translate(-413.479 -268.139)" fill="#e0e0e0"/>
  <path id="Path_3214" data-name="Path 3214" d="M556.55,382.61l2.307,14.976,18.653-2.772c-.378-1.765-10.557-3.908-10.557-3.908l-1.084-9.657Z" transform="translate(-441.905 -264.134)" fill="#455a64"/>
  <path id="Path_3215" data-name="Path 3215" d="M564.958,400.163a.767.767,0,0,0-.4.946.747.747,0,0,0,.936.4.813.813,0,0,0,.414-1.023.767.767,0,0,0-1.023-.312" transform="translate(-445.797 -273.34)" fill="#e0e0e0"/>
  <path id="Path_3216" data-name="Path 3216" d="M560.894,409.726l-.174-1.534,17.948-2.092s.885.24.88.839Z" transform="translate(-443.942 -276.274)" fill="#e0e0e0"/>
  <path id="Path_3217" data-name="Path 3217" d="M575.965,399.811c0,.092-.435.2-.844.557s-.583.777-.675.757-.031-.573.465-1S575.975,399.725,575.965,399.811Z" transform="translate(-450.63 -273.177)" fill="#263238"/>
  <path id="Path_3218" data-name="Path 3218" d="M580.489,400.847c.036.087-.338.3-.588.731s-.281.849-.373.859-.225-.511.1-1.023S580.474,400.76,580.489,400.847Z" transform="translate(-453.078 -273.696)" fill="#263238"/>
  <path id="Path_3219" data-name="Path 3219" d="M584.2,403.521c-.082.036-.276-.4-.118-.936s.558-.8.609-.726-.174.378-.3.818S584.287,403.5,584.2,403.521Z" transform="translate(-455.326 -274.196)" fill="#263238"/>
  <path id="Path_3220" data-name="Path 3220" d="M574.651,395.4c0,.087-.46.026-.972.133s-.885.338-.946.266.281-.455.88-.578S574.687,395.322,574.651,395.4Z" transform="translate(-449.808 -270.943)" fill="#263238"/>
  <path id="Path_3221" data-name="Path 3221" d="M572.115,390.313a1.775,1.775,0,0,1-.936.133,4.284,4.284,0,0,1-1.023-.153,4.382,4.382,0,0,1-.6-.189,1.022,1.022,0,0,1-.312-.179.389.389,0,0,1-.112-.476.512.512,0,0,1,.368-.271,1.162,1.162,0,0,1,.353,0,2.9,2.9,0,0,1,.614.112,3.39,3.39,0,0,1,.946.435c.511.338.69.655.66.68s-.292-.22-.777-.486a3.641,3.641,0,0,0-.905-.343,2.758,2.758,0,0,0-.563-.087c-.2,0-.373,0-.409.1s0,.046.036.1a.945.945,0,0,0,.23.128,5.51,5.51,0,0,0,.537.21,5.261,5.261,0,0,0,.956.21A6.58,6.58,0,0,1,572.115,390.313Z" transform="translate(-448.034 -268)" fill="#263238"/>
  <path id="Path_3222" data-name="Path 3222" d="M574.384,388.785a1.6,1.6,0,0,1-.384-.864,3.161,3.161,0,0,1,0-1.023,3.487,3.487,0,0,1,.153-.6.777.777,0,0,1,.511-.557.445.445,0,0,1,.43.2,1.334,1.334,0,0,1,.148.332,2.081,2.081,0,0,1,.092.629,2.173,2.173,0,0,1-.256,1.023c-.292.511-.655.7-.665.67a3.859,3.859,0,0,0,.46-.767,2.131,2.131,0,0,0,.164-.921,1.8,1.8,0,0,0-.1-.537c-.056-.194-.153-.343-.225-.312a.669.669,0,0,0-.281.353,3.1,3.1,0,0,0-.159.542,3.451,3.451,0,0,0-.041.956C574.281,388.427,574.43,388.764,574.384,388.785Z" transform="translate(-450.41 -266.324)" fill="#263238"/>
  <path id="Path_3223" data-name="Path 3223" d="M512.584,314.422,496.59,349.273l10.562,6.342,22.116-41.935" transform="translate(-412.613 -231.124)" fill="#263238"/>
  <path id="Path_3224" data-name="Path 3224" d="M519.354,344.684l-11.472,1.841-6.869-40.989L467.077,308a8.265,8.265,0,0,1-2.67-.251c-9.529-2.614-8.24-14.766-7.319-16.715l46.958-1.345a9.994,9.994,0,0,1,10.188,8.608Z" transform="translate(-393.007 -219.4)" fill="#263238"/>
  <path id="Path_3225" data-name="Path 3225" d="M453.507,249.274l.169-17.329s-2.235-11.252-2.9-15.7c-1.023-6.874-2.435-10.142,8.828-15.027l2.465-.951,3.81.051c4.542.343,9.329,4.45,9.442,7.161l4.394,39.061Z" transform="translate(-389.902 -175.72)" fill="#ff8c69"/>
  <path id="Path_3226" data-name="Path 3226" d="M455.62,210s-3.181,6.843-2.557,13.078l11.851,11.375c2.655,2.956,5.979,4.215,10.229,4.47l24.52,2.68.68-6.414-23.313-6.608c-.931-.174-1.4-1.141-2.107-1.765L455.62,210" transform="translate(-391.309 -180.473)" fill="#ff8c69"/>
  <path id="Path_3227" data-name="Path 3227" d="M454.39,213.029a1.677,1.677,0,0,1,.471-.317,5.846,5.846,0,0,1,1.586-.445,8.184,8.184,0,0,1,2.649,0,2.746,2.746,0,0,1,.777.266,7.824,7.824,0,0,1,.721.511c.471.368.946.793,1.432,1.253.982.916,1.913,2.077,3,3.253s2.281,2.44,3.58,3.764,2.7,2.711,4.189,4.143c.752.716,1.534,1.442,2.348,2.153.414.338.823.737,1.217,1.11a2.946,2.946,0,0,0,1.355.8h0l23.359,6.6.107.031v.113c-.046.455-.1.941-.153,1.437-.179,1.7-.358,3.391-.511,4.977v.133h-.133l-10.393-1.156-4.91-.537-4.7-.476c-1.534-.169-3.013-.343-4.45-.552a20.034,20.034,0,0,1-4.122-.956,15.182,15.182,0,0,1-3.468-1.867c-1.023-.721-1.984-1.473-2.869-2.215-3.5-2.987-6.076-5.662-7.861-7.483-.885-.916-1.565-1.637-2.02-2.128l-.511-.563-.169-.2s.066.056.189.179.3.312.511.547l2.046,2.1c1.805,1.8,4.4,4.45,7.907,7.411.885.731,1.831,1.478,2.859,2.189a15.3,15.3,0,0,0,3.437,1.831,20.015,20.015,0,0,0,4.092.931c1.437.2,2.92.378,4.445.542l4.7.46,4.91.537,10.383,1.13-.148.118c.169-1.586.348-3.273.511-4.982.056-.511.107-.982.153-1.437l.1.143-23.323-6.624h0a3.11,3.11,0,0,1-1.493-.864c-.414-.394-.788-.762-1.212-1.115-.823-.716-1.6-1.447-2.348-2.164-1.494-1.437-2.885-2.834-4.179-4.163s-2.481-2.6-3.58-3.79-2-2.348-2.972-3.263a17.049,17.049,0,0,0-1.412-1.253,6.058,6.058,0,0,0-.706-.511,2.471,2.471,0,0,0-.742-.261,7.933,7.933,0,0,0-2.614-.041,5.908,5.908,0,0,0-1.58.4A3.579,3.579,0,0,0,454.39,213.029Z" transform="translate(-391.997 -181.528)" fill="#263238"/>
  <path id="Path_3228" data-name="Path 3228" d="M466.333,163.059l1.187,16.879a5.258,5.258,0,0,0,5.248,4.885h0a5.258,5.258,0,0,0,5.248-5.6c-.107-1.606-.2-2.921-.2-2.921s4.092-.634,4.133-4.721c.031-2.358-.378-7.708-.726-11.81a5.355,5.355,0,0,0-5.355-4.9H473.4a7.549,7.549,0,0,0-7.063,8.189Z" transform="translate(-397.817 -153.541)" fill="#ffbe9d"/>
  <path id="Path_3229" data-name="Path 3229" d="M483.734,195.2a9.518,9.518,0,0,1-5.324-1.509s1.258,2.936,5.335,2.557Z" transform="translate(-403.731 -172.505)" fill="#eb996e"/>
  <path id="Path_3230" data-name="Path 3230" d="M492.566,174.205a.583.583,0,0,1-.563.588.552.552,0,0,1-.6-.511.588.588,0,0,1,.563-.593A.563.563,0,0,1,492.566,174.205Z" transform="translate(-410.077 -162.733)" fill="#263238"/>
  <path id="Path_3231" data-name="Path 3231" d="M491.881,171.864c-.077.077-.511-.251-1.146-.251s-1.084.317-1.156.24.041-.174.246-.317a1.575,1.575,0,0,1,.921-.286,1.535,1.535,0,0,1,.91.3C491.83,171.69,491.912,171.828,491.881,171.864Z" transform="translate(-409.177 -161.543)" fill="#263238"/>
  <path id="Path_3232" data-name="Path 3232" d="M481.046,174.205a.578.578,0,0,1-.563.588.552.552,0,0,1-.6-.511.588.588,0,0,1,.563-.593A.563.563,0,0,1,481.046,174.205Z" transform="translate(-404.449 -162.733)" fill="#263238"/>
  <path id="Path_3233" data-name="Path 3233" d="M479.787,172.094c-.072.077-.511-.251-1.146-.251s-1.084.317-1.151.24.036-.174.24-.317a1.575,1.575,0,0,1,.921-.286,1.534,1.534,0,0,1,.91.292C479.787,171.92,479.843,172.058,479.787,172.094Z" transform="translate(-403.272 -161.655)" fill="#263238"/>
  <path id="Path_3234" data-name="Path 3234" d="M486.212,176.787a4.184,4.184,0,0,1,1.023-.184c.159,0,.312-.051.338-.159a.767.767,0,0,0-.107-.476l-.481-1.217a20.6,20.6,0,0,1-1.064-3.192,21.711,21.711,0,0,1,1.32,3.094l.45,1.228a.926.926,0,0,1,.087.629.4.4,0,0,1-.266.235,1.13,1.13,0,0,1-.271.036A4.093,4.093,0,0,1,486.212,176.787Z" transform="translate(-407.4 -161.694)" fill="#263238"/>
  <path id="Path_3235" data-name="Path 3235" d="M482.793,182.63c.1,0,.1.675.685,1.156s1.309.409,1.314.511-.164.128-.471.138a1.7,1.7,0,0,1-1.095-.384,1.473,1.473,0,0,1-.512-.972C482.67,182.819,482.747,182.625,482.793,182.63Z" transform="translate(-405.828 -167.102)" fill="#263238"/>
  <path id="Path_3236" data-name="Path 3236" d="M479.6,167.421c-.061.169-.685.092-1.422.179s-1.335.292-1.432.138.061-.235.3-.4a2.475,2.475,0,0,1,2.174-.24C479.489,167.206,479.627,167.339,479.6,167.421Z" transform="translate(-402.902 -159.442)" fill="#e4e4e4"/>
  <path id="Path_3237" data-name="Path 3237" d="M491.578,168.288c-.107.143-.542,0-1.059,0s-.962.092-1.064-.056.026-.215.22-.348a1.447,1.447,0,0,1,.864-.235,1.478,1.478,0,0,1,.844.286C491.568,168.073,491.629,168.216,491.578,168.288Z" transform="translate(-409.11 -159.782)" fill="#e4e4e4"/>
  <path id="Path_3238" data-name="Path 3238" d="M466.454,176.756c-.072-.031-2.808-.834-2.716,1.959a2.1,2.1,0,0,0,2.874,2.046C466.617,180.679,466.454,176.756,466.454,176.756Z" transform="translate(-396.562 -164.169)" fill="#ffbe9d"/>
  <path id="Path_3239" data-name="Path 3239" d="M466.381,180.589a.834.834,0,0,1-.128.077.511.511,0,0,1-.363,0,1.2,1.2,0,0,1-.588-1.059,1.616,1.616,0,0,1,.113-.7.568.568,0,0,1,.353-.389.251.251,0,0,1,.292.128c.041.077.026.133.041.138s.056-.051.031-.164a.3.3,0,0,0-.118-.174.363.363,0,0,0-.271-.061.675.675,0,0,0-.511.45,1.622,1.622,0,0,0-.143.783,1.253,1.253,0,0,0,.747,1.181.511.511,0,0,0,.44-.087C466.381,180.656,466.391,180.595,466.381,180.589Z" transform="translate(-397.221 -165.026)" fill="#eb996e"/>
  <path id="Path_3240" data-name="Path 3240" d="M465.515,165.488a1.473,1.473,0,0,1,1.345.69c.179.4.22.849.4,1.248a1.023,1.023,0,0,0,1.023.66.859.859,0,0,0,.583-.639,2.317,2.317,0,0,0,0-.9c-.164-1.3-.435-2.593-.486-3.908a6.649,6.649,0,0,1,.823-3.8,3.652,3.652,0,0,1,3.263-1.836c.869.072,1.662.511,2.527.644a3.417,3.417,0,0,0,2.834-.946,5.679,5.679,0,0,1,.511-.384,1.58,1.58,0,0,0-.292-.859,8.255,8.255,0,0,0-12.4,2.823c-.972,2.117-.685,5.058-.148,7.2" transform="translate(-397.183 -152.998)" fill="#e4e4e4"/>
  <path id="Path_3241" data-name="Path 3241" d="M480.24,157.866s-10.71-3.447-15.344,5.821a17.278,17.278,0,0,1-.7-3.58,7.969,7.969,0,0,1,5.585-7.329C469.785,152.8,477.452,149.872,480.24,157.866Z" transform="translate(-396.789 -152.271)" fill="#ff725e"/>
  <path id="Path_3242" data-name="Path 3242" d="M477.345,161.839a2.332,2.332,0,0,0,3.713.338,1.371,1.371,0,0,0,2.593-.133,3.176,3.176,0,0,0,1.023.762,1.064,1.064,0,0,0,1.192-.251,1.023,1.023,0,0,0-.077-1.228,2.5,2.5,0,0,0-1.084-.731,7.851,7.851,0,0,0-4.041-.614,5.457,5.457,0,0,0-3.544,1.928" transform="translate(-403.101 -156.014)" fill="#e4e4e4"/>
  <g id="Group_918" data-name="Group 918" transform="translate(67.411 0.002)" opacity="0.4">
    <path id="Path_3243" data-name="Path 3243" d="M480.24,157.868a4.977,4.977,0,0,0-3.406-1.534A13.454,13.454,0,0,0,464.9,163.7a17.278,17.278,0,0,1-.7-3.58,7.969,7.969,0,0,1,5.585-7.329C469.785,152.8,477.452,149.873,480.24,157.868Z" transform="translate(-464.2 -152.275)" fill="#ff8c69"/>
  </g>
  <path id="Path_3244" data-name="Path 3244" d="M466.43,162.835a20.168,20.168,0,0,1,6.24-5.974,39.3,39.3,0,0,1,9.339-3.805,6.1,6.1,0,0,1,2.583-.271,2.327,2.327,0,0,1,1.913,1.565c.266,1.059-1.611,2.69-2.5,3.33a28.24,28.24,0,0,1-2.68,1.586s.026-1.964-3.115-2.368C473.943,156.35,466.43,162.835,466.43,162.835Z" transform="translate(-397.879 -152.504)" fill="#ff8c69"/>
  <g id="Group_919" data-name="Group 919" transform="translate(64.782 45.137)" opacity="0.3">
    <path id="Path_3245" data-name="Path 3245" d="M459.06,240.52c1.1,2.665,2.22,5.954,3.821,8.352a14.73,14.73,0,0,0,6.4,5.626,13.815,13.815,0,0,0,10.623.194c.271-.118.8-.266.752-.557,0,0-1.1-.128-1.442-.184-6.716-1.115-7.447-1.933-10.664-4.491-2-1.58-6.45-6.373-9.488-8.94" transform="translate(-459.06 -240.52)"/>
  </g>
  <path id="Path_3246" data-name="Path 3246" d="M486.355,278.46a2.809,2.809,0,0,1-.281.624,7.8,7.8,0,0,1-1.084,1.534,11.764,11.764,0,0,1-5.191,3.166,23.8,23.8,0,0,1-6.056.905c-.783.031-1.417.036-1.852.036a3.954,3.954,0,0,1-.68-.031,3,3,0,0,1,.675-.077l1.846-.118a26.5,26.5,0,0,0,5.989-.972,12.174,12.174,0,0,0,5.145-3.069A13.112,13.112,0,0,0,486.355,278.46Z" transform="translate(-400.214 -213.918)" fill="#263238"/>
  <path id="Path_3247" data-name="Path 3247" d="M531.146,362.769a.51.51,0,0,1-.041-.159,2.963,2.963,0,0,0-.092-.471c-.077-.43-.189-1.023-.327-1.811-.281-1.6-.675-3.872-1.166-6.68-.956-5.657-2.276-13.447-3.734-22.049-.65-3.9-1.268-7.621-1.836-11.022l.133.107L509.4,321.744l-4.214.286-1.125.066h-.292l.292-.036,1.12-.1,4.209-.358,14.674-1.171h.112v.113c.573,3.4,1.2,7.125,1.857,11.017,1.427,8.608,2.716,16.4,3.657,22.065.45,2.813.818,5.115,1.079,6.69l.276,1.826c.031.194.051.353.067.471A.661.661,0,0,1,531.146,362.769Z" transform="translate(-416.072 -234.422)" fill="#455a64"/>
  <path id="Path_3248" data-name="Path 3248" d="M546.773,313.54c.046.061-.849.829-1.862,1.862s-1.77,1.938-1.831,1.887a12.184,12.184,0,0,1,3.693-3.749Z" transform="translate(-435.325 -231.056)" fill="#455a64"/>
  <path id="Path_3249" data-name="Path 3249" d="M478.632,203.067a.858.858,0,0,1,.061.169,2.4,2.4,0,0,1,.1.511,4.2,4.2,0,0,1-.246,1.862,4.767,4.767,0,0,1-1.688,2.21,5.115,5.115,0,0,1-3.279.88,5.923,5.923,0,0,1-3.186-1.2,6.766,6.766,0,0,1-1.811-2.112,7.3,7.3,0,0,1-.7-1.739,4.927,4.927,0,0,1-.1-.511.5.5,0,0,1,0-.179,11.609,11.609,0,0,0,.967,2.322,7.013,7.013,0,0,0,1.8,2.01,5.8,5.8,0,0,0,3.069,1.125,4.966,4.966,0,0,0,3.125-.813,4.716,4.716,0,0,0,1.647-2.077,4.343,4.343,0,0,0,.322-1.785C478.673,203.313,478.632,203.078,478.632,203.067Z" transform="translate(-398.537 -177.034)" fill="#263238"/>
  <path id="Path_3250" data-name="Path 3250" d="M501.593,233.777a2.142,2.142,0,0,1-.113-.511c-.056-.4-.123-.9-.2-1.463-.169-1.3-.389-2.982-.629-4.839s-.414-3.58-.511-4.849c-.056-.619-.092-1.125-.113-1.473a2.011,2.011,0,0,1,0-.542,2.522,2.522,0,0,1,.107.511c.056.4.123.89.2,1.463.164,1.3.373,2.982.6,4.839s.43,3.58.552,4.844c.056.624.1,1.125.123,1.478a2.322,2.322,0,0,1-.015.542Z" transform="translate(-414.281 -185.407)" fill="#263238"/>
</svg>
