<svg xmlns="http://www.w3.org/2000/svg" width="18" height="18.022" viewBox="0 0 18 18.022">
  <path id="edit_square_FILL0_wght400_GRAD0_opsz48" d="M121.3-822.978a1.251,1.251,0,0,1-.913-.391,1.251,1.251,0,0,1-.391-.913v-13.043a1.251,1.251,0,0,1,.391-.913,1.251,1.251,0,0,1,.913-.391h8.8l-1.3,1.3h-7.5v13.043h13.044v-7.565l1.3-1.3v8.869a1.251,1.251,0,0,1-.391.913,1.252,1.252,0,0,1-.913.391ZM127.826-830.8Zm3.957-7.652.935.913-6.2,6.174v1.87h1.848l6.217-6.217.913.913-6.2,6.217a1.352,1.352,0,0,1-.424.283,1.27,1.27,0,0,1-.511.109h-2.5a.633.633,0,0,1-.467-.185.634.634,0,0,1-.185-.467v-2.5a1.269,1.269,0,0,1,.109-.511,1.358,1.358,0,0,1,.283-.424ZM135.5-834.8l-3.717-3.652,2.174-2.174a1.253,1.253,0,0,1,.924-.37,1.218,1.218,0,0,1,.924.391l1.826,1.848a1.3,1.3,0,0,1,.37.924,1.193,1.193,0,0,1-.391.9Z" transform="translate(-120 841)" fill="#2a2a2a" opacity="0.4"/>
</svg>
