<svg width="24" height="24" viewBox="0 0 24 24" xmlns="http://www.w3.org/2000/svg">
    <path d="M4.285 1.517a2.186 2.186 0 0 1 1.72-.495l15.912 1.807a2.36 2.36 0 0 1 2.07 2.594l-1.341 11.832a2.42 2.42 0 0 1-.845 1.574c-.333.23-.71.39-1.108.466v.467c0 1.282-1.166 2.273-2.448 2.273H2.157A2.215 2.215 0 0 1 0 19.761V7.842c0-1.283.962-2.42 2.244-2.42h.903l.292-2.39c.064-.598.369-1.146.845-1.515zM7.491 14.37a1.399 1.399 0 0 0-1.807-.088l-4.517 3.323v2.157a1.05 1.05 0 0 0 1.078 1.107h16c.641 0 1.283-.466 1.283-1.107v-5.654l-5.742 3.322a2.652 2.652 0 0 1-1.399.379 2.74 2.74 0 0 1-1.72-.641zM5.888 2.158a1.34 1.34 0 0 0-.874.234 1.34 1.34 0 0 0-.438.757l-.262 2.274h13.931a2.506 2.506 0 0 1 2.448 2.419v10.287c0-.058.262-.116.38-.233a.99.99 0 0 0 .378-.787l1.37-11.832v-.012c.062-.64-.408-1.21-1.05-1.27zm12.357 4.43h-16c-.641 0-1.078.612-1.078 1.254v8.306l3.847-2.798a2.594 2.594 0 0 1 3.235.116l3.205 2.827c.484.41 1.174.47 1.72.146l6.353-3.701V7.842a1.34 1.34 0 0 0-1.282-1.254zm-6.091 1.836a2.448 2.448 0 1 1 0 4.897 2.448 2.448 0 0 1 0-4.897zm0 1.166a1.282 1.282 0 1 0 0 2.565 1.282 1.282 0 0 0 0-2.565z" fill="#FF702A" fill-rule="evenodd"/>
</svg>
