<svg xmlns="http://www.w3.org/2000/svg" width="16" height="26.016" viewBox="0 0 16 26.016">
  <path id="distance_FILL0_wght400_GRAD0_opsz48" d="M242-853.984a13.469,13.469,0,0,1-5.626-1.008Q234.2-856,234.2-857.561a2.311,2.311,0,0,1,.8-1.659,5.836,5.836,0,0,1,2.2-1.268l.585,1.886a3.719,3.719,0,0,0-.959.455,3.615,3.615,0,0,0-.7.585,4.773,4.773,0,0,0,2.293,1.138,13.248,13.248,0,0,0,3.593.488,13.425,13.425,0,0,0,3.61-.488,4.792,4.792,0,0,0,2.309-1.138,4.984,4.984,0,0,0-.683-.553,4.1,4.1,0,0,0-.976-.488l.553-1.886a5.835,5.835,0,0,1,2.2,1.268,2.311,2.311,0,0,1,.8,1.659q0,1.561-2.179,2.569A13.469,13.469,0,0,1,242-853.984Zm0-6.992a21.266,21.266,0,0,1,1.449-2.325q.763-1.057,1.51-2,1.431-1.854,2.26-3.187a6.585,6.585,0,0,0,.829-3.515,5.829,5.829,0,0,0-1.763-4.286,5.847,5.847,0,0,0-4.293-1.76,5.824,5.824,0,0,0-4.286,1.76A5.84,5.84,0,0,0,235.951-872a6.585,6.585,0,0,0,.829,3.515q.829,1.333,2.26,3.187.748.943,1.511,2A21.266,21.266,0,0,1,242-860.976Zm0,3.545a1.1,1.1,0,0,1-.683-.22,1.227,1.227,0,0,1-.423-.593,13.6,13.6,0,0,0-1.952-3.935q-1.171-1.561-2.276-2.992a18.531,18.531,0,0,1-1.886-2.976A8.5,8.5,0,0,1,234-872a7.729,7.729,0,0,1,2.319-5.673A7.715,7.715,0,0,1,242-880a7.725,7.725,0,0,1,5.681,2.319A7.725,7.725,0,0,1,250-872a8.506,8.506,0,0,1-.776,3.848,18.484,18.484,0,0,1-1.89,2.981q-1.106,1.431-2.276,2.992a13.538,13.538,0,0,0-1.946,3.926,1.307,1.307,0,0,1-.428.594A1.08,1.08,0,0,1,242-857.431Zm.007-12.618a1.863,1.863,0,0,0,1.375-.576,1.9,1.9,0,0,0,.569-1.382,1.863,1.863,0,0,0-.576-1.375,1.9,1.9,0,0,0-1.382-.569,1.863,1.863,0,0,0-1.375.576,1.9,1.9,0,0,0-.569,1.382,1.863,1.863,0,0,0,.576,1.375A1.9,1.9,0,0,0,242.007-870.049ZM242-872Z" transform="translate(-234 880)" opacity="0.3"/>
</svg>
