<svg xmlns="http://www.w3.org/2000/svg" width="30" height="32.81" viewBox="0 0 30 32.81">
  <path id="receipt_long_FILL0_wght400_GRAD0_opsz48" d="M121.339-841.19a4.184,4.184,0,0,1-3.073-1.265A4.184,4.184,0,0,1,117-845.529v-3.926a1.2,1.2,0,0,1,.356-.883,1.2,1.2,0,0,1,.883-.356h4.008V-873.5a.291.291,0,0,1,.186-.294.3.3,0,0,1,.351.088l1.488,1.488a.592.592,0,0,0,.447.207.639.639,0,0,0,.462-.207l1.57-1.57A.592.592,0,0,1,127.2-874a.639.639,0,0,1,.462.207l1.529,1.57a.592.592,0,0,0,.447.207.639.639,0,0,0,.462-.207l1.57-1.57a.592.592,0,0,1,.447-.207.639.639,0,0,1,.462.207l1.57,1.57a.592.592,0,0,0,.447.207.639.639,0,0,0,.462-.207l1.57-1.57a.592.592,0,0,1,.447-.207.639.639,0,0,1,.462.207l1.57,1.57a.592.592,0,0,0,.447.207.639.639,0,0,0,.462-.207l1.57-1.57a.592.592,0,0,1,.447-.207.639.639,0,0,1,.462.207l1.57,1.57a.592.592,0,0,0,.447.207.639.639,0,0,0,.462-.207l1.488-1.488a.3.3,0,0,1,.351-.088.291.291,0,0,1,.186.294v27.975a4.184,4.184,0,0,1-1.265,3.073,4.184,4.184,0,0,1-3.073,1.265Zm21.322-2.479a1.817,1.817,0,0,0,1.343-.516,1.817,1.817,0,0,0,.517-1.343v-24.587H124.727v19.422h14.835a1.2,1.2,0,0,1,.883.356,1.2,1.2,0,0,1,.356.883v3.919a1.825,1.825,0,0,0,.517,1.349A1.817,1.817,0,0,0,142.661-843.669Zm-14.5-22.4H135.6a1.2,1.2,0,0,1,.883.359,1.21,1.21,0,0,1,.356.888,1.186,1.186,0,0,1-.356.881,1.208,1.208,0,0,1-.883.351h-7.438a1.2,1.2,0,0,1-.883-.359,1.21,1.21,0,0,1-.356-.888,1.187,1.187,0,0,1,.356-.881A1.209,1.209,0,0,1,128.157-866.066Zm0,5.537H135.6a1.2,1.2,0,0,1,.883.359,1.21,1.21,0,0,1,.356.888,1.186,1.186,0,0,1-.356.881,1.209,1.209,0,0,1-.883.351h-7.438a1.2,1.2,0,0,1-.883-.358,1.21,1.21,0,0,1-.356-.889,1.186,1.186,0,0,1,.356-.881A1.209,1.209,0,0,1,128.157-860.529Zm12.521-3.058a1.189,1.189,0,0,1-.868-.372,1.189,1.189,0,0,1-.372-.868,1.189,1.189,0,0,1,.372-.868,1.189,1.189,0,0,1,.868-.372,1.189,1.189,0,0,1,.868.372,1.189,1.189,0,0,1,.372.868,1.189,1.189,0,0,1-.372.868A1.189,1.189,0,0,1,140.678-863.587Zm0,5.331a1.189,1.189,0,0,1-.868-.372,1.189,1.189,0,0,1-.372-.868,1.189,1.189,0,0,1,.372-.868,1.189,1.189,0,0,1,.868-.372,1.189,1.189,0,0,1,.868.372,1.189,1.189,0,0,1,.372.868,1.189,1.189,0,0,1-.372.868A1.19,1.19,0,0,1,140.678-858.256ZM121.3-843.669h17.025v-4.545H119.479v2.686a1.805,1.805,0,0,0,.523,1.343A1.77,1.77,0,0,0,121.3-843.669Zm-1.818,0v0Z" transform="translate(-117 874)" fill="#ef554a"/>
</svg>
