<svg xmlns="http://www.w3.org/2000/svg" width="20.528" height="33.379" viewBox="0 0 20.528 33.379">
  <path id="distance_FILL0_wght400_GRAD0_opsz48" d="M244.264-846.621a17.279,17.279,0,0,1-7.218-1.293q-2.8-1.293-2.8-3.3a2.965,2.965,0,0,1,1.022-2.128,7.486,7.486,0,0,1,2.816-1.627l.751,2.42a4.769,4.769,0,0,0-1.231.584,4.633,4.633,0,0,0-.9.751,6.124,6.124,0,0,0,2.941,1.46,17,17,0,0,0,4.61.626,17.224,17.224,0,0,0,4.631-.626,6.149,6.149,0,0,0,2.962-1.46,6.4,6.4,0,0,0-.876-.709,5.269,5.269,0,0,0-1.252-.626l.709-2.42a7.485,7.485,0,0,1,2.816,1.627,2.965,2.965,0,0,1,1.022,2.128q0,2-2.8,3.3A17.279,17.279,0,0,1,244.264-846.621Zm0-8.971a27.277,27.277,0,0,1,1.859-2.983q.978-1.356,1.938-2.566,1.836-2.378,2.9-4.089a8.448,8.448,0,0,0,1.064-4.509,7.478,7.478,0,0,0-2.262-5.5,7.5,7.5,0,0,0-5.508-2.258,7.472,7.472,0,0,0-5.5,2.258,7.493,7.493,0,0,0-2.253,5.5,8.448,8.448,0,0,0,1.064,4.509q1.064,1.711,2.9,4.089.96,1.21,1.938,2.566A27.277,27.277,0,0,1,244.264-855.592Zm0,4.548a1.417,1.417,0,0,1-.876-.282,1.575,1.575,0,0,1-.542-.761,17.443,17.443,0,0,0-2.5-5.049q-1.5-2-2.92-3.839a23.778,23.778,0,0,1-2.42-3.818,10.911,10.911,0,0,1-1-4.946,9.917,9.917,0,0,1,2.976-7.279A9.9,9.9,0,0,1,244.264-880a9.912,9.912,0,0,1,7.288,2.976,9.912,9.912,0,0,1,2.976,7.288,10.913,10.913,0,0,1-1,4.938,23.71,23.71,0,0,1-2.425,3.824q-1.419,1.836-2.921,3.839a17.37,17.37,0,0,0-2.5,5.037,1.676,1.676,0,0,1-.549.762A1.386,1.386,0,0,1,244.264-851.044Zm.009-16.189a2.39,2.39,0,0,0,1.765-.739,2.433,2.433,0,0,0,.73-1.773,2.39,2.39,0,0,0-.739-1.765,2.433,2.433,0,0,0-1.773-.73,2.39,2.39,0,0,0-1.765.739,2.433,2.433,0,0,0-.73,1.773,2.39,2.39,0,0,0,.739,1.765A2.433,2.433,0,0,0,244.273-867.232ZM244.264-869.736Z" transform="translate(-234 880)" fill="#ef554a"/>
</svg>
