<svg width="30" height="20" viewBox="0 0 30 20" xmlns="http://www.w3.org/2000/svg">
    <g fill-rule="nonzero" fill="none">
        <path d="M30 17.136C30 18.732 28.694 20 27.097 20H2.903C1.306 20 0 18.732 0 17.136V2.864C0 1.268 1.306 0 2.903 0h24.194C28.694 0 30 1.268 30 2.864v14.272z" fill="#096"/>
        <path d="M2.903 0h24.194C28.694 0 30 1.268 30 2.864v14.272C30 18.732 28.694 20 27.097 20" fill="#038E5C"/>
        <g fill="#007A54">
            <path d="M30 17.136C30 18.732 28.694 20 27.097 20H2.903C1.306 20 0 18.732 0 17.136M2.903 0h24.194C28.694 0 30 1.268 30 2.864v5.211"/>
        </g>
        <g fill="#FFF">
            <path d="M3.677 4.554c.194-.14.194.235 0 .657.097-.14.29-.47.242-.704-.048-.329-.242-.282-.387-.094-.097.141-.048.235.145.141z"/>
            <path d="M3.726 7.23c.242-.422.145-.751.339-1.361.145-.376.145-.094.145.14-.097.61-.049 1.597.822 1.55.049.563.194 1.549.194 1.925 0 .328.048.234.145.047.097-.188.048-.423.048-.705 0-.281-.048-.798-.096-1.502.096-.094.242-.235.29-.329.097-.234.145-.187.193 0 .097.376.484.61.968.235.484-.329.29-.986.049-1.69.193.047.242-.094.145-.282-.049-.094-.145-.188-.194-.281-.097-.094-.145-.188-.242-.094s-.145.187-.193.234c-.049.047-.049.141 0 .282.193.423.29.892.338 1.127.049.235-.048.282-.242.282-.145 0-.387-.047-.483-.423-.097-.376-.146-.516-.097-.798 0-.235.048-.423-.145-.657-.194-.235-.194-.188-.242-.094-.049.14-.097.328-.049.563.097.329.146.61.194.798.048.141-.097.423-.339.564-.048-.47-.097-1.033-.145-1.55.29-.094.145-.422-.097-.798-.145-.282-.242-.188-.338 0-.097.188-.049.282.048.423-.048.14.048.328.097.657.048.235.096.845.096 1.361-.193 0-.338-.14-.435-.328-.145-.376-.145-.751-.048-.94.096-.234.145-.563 0-.656-.146-.094-.29 0-.387.187-.194.282-.388.658-.388 1.08 0 .141-.048.47-.145.61-.048.141-.193.141-.29-.046C3.048 6.479 3 5.728 3 5.352c0-.188-.048-.235-.097 0-.193.751.049 1.502.194 1.831.242.423.484.329.629.047z"/>
            <path d="M6.048 4.789c.097-.094.097-.094.146 0 .048.094.193.094.241 0 .049-.094.097-.141.049-.282-.049-.094-.049-.047-.097.047-.048.188-.242.14-.242-.094 0-.235-.048-.094-.145.047-.097.235-.242.188-.242-.047 0-.14-.048-.282-.145-.094-.048.141 0 .282.048.376.145.14.29.14.387.047zM4.597 8.31c.145-.047.145-.047.145-.235s-.097-.094-.29-.047c-.29.094-.871.376-1.307.892-.193.235-.048.141.097.047.242-.188.968-.563 1.355-.657zM3.629 11.315c-.145.234-.435-.094-.242-.705.048-.14.097-.234.097-.328v-.329c0-.094-.097.047-.145.235-.049.281-.242.422-.194 1.314.049.517.678.517.726-.14 0-.282-.097-.282-.242-.047zM7.935 9.343c0-.235-.048-.47-.048-.705.048 0 .048-.046.097-.046.145.422.774.328.968.046.096-.14.096-.14.193 0 .145.188.63.282.726 0 .097-.281.097-.563.048-.75-.048-.235-.096-.188-.242-.095-.145.094-.048.141 0 .282.049.563-.435.517-.483-.047-.049-.375-.097-.235-.146-.047-.242.704-.87.845-.774 0 0-.235-.145-.14-.242-.047l-.193.188c-.049-.657-.097-1.408-.194-2.347.194.234.387-.047.242-.282-.097-.188-.242-.657-.339-.892-.096-.235-.145-.188-.338.047-.194.188-.145.235-.097.47 0 .281 0 .516.097 1.032.048.376.145 1.174.242 2.16-.097.047-.242.14-.34.188-.047-.188-.193-.282-.386-.47-.29-.282-.484-.282-.726.047-.242.329-.194.376-.194.704 0 .282-.048.376.194.47.242.094.339.047.484 0 .097-.047.242-.094.435-.141a.44.44 0 0 1-.096.423c-.581.657-1.452 1.173-1.84.704-.193-.235-.29-.61-.241-1.08.048-.376-.048-.188-.097-.094-.145.423-.193 1.08 0 1.408.242.47.678.658 1.355.33.677-.283 1.306-.799 1.306-1.503v-.329c.097-.047.194-.094.242-.14v.797c.049.752-.29.986-.58 1.221-.387.282-.92.517-1.403.563C4.5 11.55 4.258 10.892 4.258 10c0-.14.048-.235.048-.423 0-.375-.048-.328-.193.047-.097.376-.242 1.221.097 1.925.387.705 1.645.517 2.613.047 1.064-.516 1.16-1.361 1.112-2.253zm-1.354-.705c-.242.094-.34-.046-.29-.187 0-.141.048-.235.241-.141a.81.81 0 0 1 .29.282c-.145.046-.193.046-.241.046z"/>
            <path d="M9.048 10.14a.872.872 0 0 0 .097-.61c-.048-.14 0-.187-.145-.281-.145-.047-.194.047-.242.14-.048.142.048.33.242.235.048.094 0 .33-.048.47-.049.188 0 .235.096.047zM9.435 6.338c-.193.235-.338.563-.048.751.145.094.436-.047.532-.235.097-.234.049-.281-.145-.046-.242.281-.532.046-.242-.376.194-.282.049-.329-.097-.094zM8.613 6.385c.677-.282 1.064-.657 1.258-.986.194.047.242-.094.145-.235.049-.14.097-.234.145-.328.145-.61-.484-.658-.629-.188-.097.235-.097.47.097.61-.29.376-.677.704-1.161.986-.194.188-.145.282.145.141zm1.161-1.643c.049-.141.145-.047.145.047 0 .047-.048.14-.096.188-.097-.047-.097-.141-.049-.235z"/>
        </g>
        <path d="M9.532 4.648c-.097.235-.097.47.097.61-.048.047-.097.141-.145.188l.242.188c.048-.094.145-.141.193-.235.194.047.242-.094.146-.235.048-.14.096-.234.145-.328.096-.61-.484-.658-.678-.188zm.387.14c0 .048-.048.142-.096.189-.097-.047-.097-.141-.049-.235.049-.141.145-.047.145.047z" fill="#CFE7E8"/>
        <path d="M10.258 10.14c-.097.048-.242.189-.339.283 0-.188.049-.47.049-.564 0-.14-.049-.188-.145-.047-.146.282-.29.657-.34.94-.628.422-1.402.844-1.935 1.079-.242.094-.096.188.097.14.726-.234 1.307-.422 1.839-.656.048.422.193.704.58.798.726.187 1.452-.423 2.275-1.503.193.517.677 1.221 1.935 1.409.532.094.484.047.58-.235.05-.235.146-.282-.29-.376-.532-.187-.725-.563-.193-.798.532-.234 1.258-.422 1.742-.516.339-.047.435-.047.532-.329.097-.328.145-.375-.193-.328-.387.047-2.226.094-2.71.047.387-.188.92-.376 1.306-.517.146.094.194.047.146-.047.145-.047.29-.094.435-.188.436-.234.63-.75.145-1.08-.484-.328-.87-.422-1.113-.093-.193.281-.387.563-.096.939-.436.14-.823.281-1.21.422-.29.094-.436.141-.532.517-.097.375-.146.375.242.422.532 0 1.016 0 1.354.282-.532.188-.919.563-.725 1.08a1.306 1.306 0 0 1-.678-.329c-.387-.376-.387-1.033-.532-1.784-.145-.751-.484-1.408-.63-1.69-.096-.282-.144-.141-.241.047s-.194.281-.097.563c.194.47.484 1.409.63 1.972-.291.657-1.065 1.455-1.694 1.55-.484.093-.63-.188-.581-.423.339-.188.629-.423.92-.704.58-.61.677-1.08.29-2.066.242.047.193-.141-.146-.564-.241-.281-.29-.234-.435.047-.097.235-.194.423.097.517.048.14.145.328.29.563.29.61-.193.845-.629 1.22zm4.597-2.065c0-.14.048-.14.29 0 .242.141.436.188.097.235-.097.047-.242.047-.339.094 0-.141 0-.235-.048-.329z" fill="#FFF"/>
        <g fill="#CFE7E8">
            <path d="M16.403 9.437c-.242 0-1.306.047-2.032.047l.968.798c.242-.094.532-.141.726-.188.338-.047.435-.047.532-.329.097-.328.145-.375-.194-.328zM11.661 7.23l.125.125c0-.125-.062-.125-.125-.125zM14.129 9.249c.29-.141.63-.235.871-.329.145.094.194.047.145-.047.145-.047.29-.094.436-.188.435-.234.629-.75.145-1.08-.484-.328-.871-.422-1.113-.093-.194.281-.387.563-.097.939a5.26 5.26 0 0 0-.92.328l.533.47zm1.065-1.174c.241.141.435.188.096.235-.096.047-.242.047-.338.094-.049-.141-.049-.235-.049-.282-.048-.188.049-.188.29-.047z"/>
        </g>
        <path d="M15.968 11.878c.145-.047.387-.188.58-.329.194-.187.049-.14-.096-.094-.146.047-.29.141-.484.188-.194.094-.242 0-.145-.328.096-.282 0-.282-.146-.235-.145.047-.193.14-.338.235-.097.047-.097.14.145.047.193-.094.145 0 .097.234-.097.235.048.376.387.282z" fill="#FFF"/>
        <g fill="#CFE7E8">
            <path d="M11.468 6.76c.145-.328.242-.657.338-.891.097-.235.194-.188.146.046-.049.423-.049 1.08.387 1.362.435.235 1.113-.188 1.355-.657.725.892 1.354.47 1.403-.376 0-.282-.097-.845-.194-1.033-.097-.188 0-.188.097-.094s.29.188.194-.14a1.505 1.505 0 0 0-.388-.61c-.145-.142-.193-.048-.241.046-.049.094-.049.141-.146.235-.096.094-.048.14 0 .282.29.657.533 1.643.097 1.737-.387.094-.629-.752-.629-1.127 0-.47-.097-.892-.193-1.174-.097-.281-.146-.281-.242-.14-.049.093-.049.187-.146.281-.048.094 0 .14.049.329.242 1.08.193 1.549-.29 1.83-.484.282-.775 0-.775-.328 0-.329 0-.751.049-1.033.048-.282.096-.375 0-.516-.097-.141-.194-.094-.339.094-.29.422-.629 1.126-.726 1.455-.097.329-.339.235-.484-.047-.193-.329-.145-.939-.096-1.22.048-.235.048-.33-.097-.094-.242.657-.242 1.314.29 1.877.242.423.436.235.58-.093z"/>
            <path d="M12.823 5.493c0 .14 0 .329.096.047.049-.282.049-.657-.048-.892s-.145-.282-.242-.188c-.097.094-.097.14 0 .235.097.14.242.47.194.798zM13.839 7.7c0 .375-.097.375-.242 0-.049-.141-.097-.141-.145.046 0 .33-.146.376-.242.047-.049-.14-.049-.281-.097-.047-.048.188 0 .33.097.47.096.094.242.094.29-.047.048-.14.097-.14.194-.047.096.094.483 0 .29-.516-.097-.188-.145-.141-.145.094zM17.758 4.742c.145.094.29.328.242.61-.048.235 0 .376.145.047s.049-.704-.097-.939c-.145-.235-.193-.14-.29-.047-.097.141-.145.282 0 .329zM15.29 4.883c0 .14.049.234.242.281.387.517.823 1.08 1.21 1.597.048.469.145.939.193 1.361.097.939.29 2.207.146 2.77-.097.423 0 .563.193-.047.194-.61.194-1.22.049-2.113-.049-.375-.049-.798-.097-1.267.629.986 1.258 1.925 1.5 2.582.145.376.29.422.145-.047-.145-.657-.774-1.784-1.742-3.192-.048-.376-.048-.752-.048-1.033.145.14.242.047.193-.141-.097-.376-.242-.657-.387-1.033-.048-.188-.242-.188-.339.047-.096.282-.096.329 0 .516 0 .235.049.564.097.892a8.302 8.302 0 0 0-.58-.798c.241.094.435.047.193-.235-.242-.234-.58-.516-.774-.704-.194-.188-.29-.047-.29.094.096.235.145.329.096.47zM18.048 6.197c-.048.235-.145.141-.193-.047-.049-.094-.097-.047-.097.141.048.188.097.329.242.188.097-.094.097-.094.242 0 .097.094.193 0 .242-.047 0-.047.048-.14 0-.376-.049-.234-.097-.094-.145.094-.049.188-.145.235-.194 0 0-.188-.097-.14-.097.047z"/>
            <path d="M19.161 9.249c.049.845.145 1.22-.387 1.83-.58.611-.968.799-1.21.846-.338.094-.435.235.049.188.726-.047.822-.047 1.452-.751.338-.376.483-.846.483-1.972-.048-1.972-.29-2.817-.29-3.897.097.094.242.094.194-.094-.097-.235-.146-.516-.194-.751-.097-.235-.145-.329-.242-.188-.097.14-.193.188-.242.282-.048.094-.097.235 0 .375.29 2.3.339 3.287.387 4.132zM20.42 9.484c.048.47.145.798 0 1.361-.049.14.048.235.145 0 .435-.798.145-1.502.096-1.972-.048-.704-.338-2.535-.387-3.286l.049.047c.193.094.435.188.29-.094-.145-.235-.29-.657-.387-.94-.097-.28-.145-.28-.29-.046-.29.376-.097.751 0 1.22.193 1.597.435 3.24.483 3.71zM21.435 6.854c.146.141.242.423.34.564.096.235.193.047.193-.094 0-.14-.049-.563 0-.704.097-.235.242.094.29-.047.048-.094-.048-.141-.097-.235-.048-.14-.096-.094-.193-.047-.097.094-.145.188-.145.235v.516c0 .188-.049.188-.097.094-.049-.14-.194-.47-.29-.563-.097-.094-.242-.047-.242.094V6.9c0 .094.193.094.241-.047zM21.339 8.685c0 .141.193-.047.338-.14.146-.094.581-.376.775-.47.193-.094.145-.14.096-.329 0-.187-.145-.046-.29.094-.145.141-.58.423-.726.564-.145.14-.193.188-.193.281z"/>
            <path d="M20.323 11.22c-.194-.375-.194-.75-.194-1.08 0-.28-.048-.516-.145-.046-.29 1.127-.097 1.361.193 1.596.388.329.533.376.726.047.387-.563.532-1.033.726-1.314.194-.235.194-.047.29.046.242.282.436.376.775.423.338.047.919-.235.87-1.268-.048-.657-.096-1.502-.145-2.44.34.422.581.797.823 1.126.097.61.145 1.174.145 1.596-.048.517.097.517.194 0 .048-.188.048-.657 0-1.174.435.564.677.892.822 1.174.194.329.29.563.242-.047 0-.235-.097-.422-.387-.845-.29-.376-.532-.751-.774-1.127-.097-.892-.194-1.878-.194-2.394.145.094.242 0 .145-.188-.048-.188-.193-.751-.29-.939-.097-.188-.193-.188-.29.047-.097.188-.194.282-.145.423.048.892.145 1.737.29 2.488-.242-.329-.484-.657-.677-.939 0-.329-.049-.657-.049-.986.145.094.194.094.145-.14a6.159 6.159 0 0 0-.338-.846c-.097-.188-.146-.188-.242-.047-.145.235-.194.423-.049.657 0 .235.049.423.049.658-.145-.188-.242-.376-.387-.517.145.047.242-.047.096-.187-.145-.141-.435-.376-.58-.517-.145-.188-.242-.14-.242 0v.423c0 .14 0 .234.145.47.339.422.726.844 1.016 1.267.145 1.502.194 2.488.194 3.098 0 .376-.146.564-.34.61-.193.048-.386-.046-.58-.328-.338-.47-.484-.376-.726.047-.241.422-.435.751-.58 1.033-.097.282-.339.516-.532.14zM24.968 6.01c0 .281.097.234.145 0 .048-.235.048-.705-.097-.987-.145-.328-.193-.187-.242-.093-.097.14-.097.187.049.328.048.141.145.47.145.751z"/>
            <path d="M26.274 8.92c-.097-1.972-.339-2.817-.29-3.568.193.141.242.094.145-.14-.097-.235-.242-.517-.339-.799-.096-.235-.145-.188-.29 0s-.145.329-.097.423c.29 2.394.436 3.662.484 4.413.048 1.033-.193 1.643-1.258 2.347-.339.235-.726.47.097.282.774-.235 1.645-.751 1.548-2.958zM23.565 10.986c-.146.188.193.282.241.14.097.142 0 .376-.145.517-.242.188-.096.235.049.094.145-.094.532-.516.29-.798-.145-.094-.339-.094-.435.047z"/>
        </g>
        <path d="M22.5 14.46c-.629 0-1.21 0-1.839.047v-.188c.194-.234.145-.234 0-.47-.048-.093-.096-.187-.242 0-.145.189-.145.236.049.47v.188c-4.79.047-10.065 0-14.613-.047.484.798 2.129.751 3.629.751 1.355 0 5.42 0 10.935-.14v.234c-.193.235-.145.235 0 .47.146.187.194.094.242 0 .049-.047.049-.094.049-.094h.725c0 .094.146.14.194.14.048 0 .194-.046.194-.14h.822c.097.14.194.188.339.188.29 0 .435-.33.387-.752-.048-.61-.29-.704-.871-.657zm-.677.94c0-.095-.146-.142-.194-.142-.048 0-.194.047-.194.141h-.725c0-.047-.049-.094-.145-.188v-.234c.629 0 1.306-.047 1.983-.047-.048.14-.048.281-.048.422l-.677.047z" fill="#FFF"/>
        <path d="M22.5 14.46c-.629 0-1.21 0-1.839.047v-.188c.194-.234.145-.234 0-.47-.048-.093-.096-.187-.242 0-.145.189-.145.236.049.47v.188h-.049l.678.563c.484 0 1.016-.047 1.5-.047-.049.141-.049.282-.049.423h-.725c0-.094-.146-.14-.194-.14-.048 0-.145.046-.145.093l.339.282v-.047h.822c.097.14.194.188.339.188.29 0 .435-.329.387-.752-.048-.563-.29-.657-.871-.61z" fill="#CFE7E8"/>
    </g>
</svg>
