<svg xmlns="http://www.w3.org/2000/svg" width="30" height="30.62" viewBox="0 0 30 30.62">
  <path id="settings_FILL0_wght500_GRAD0_opsz48" d="M99.865-855.6H94.78a1.309,1.309,0,0,1-.848-.3,1.211,1.211,0,0,1-.445-.778l-.594-3.745a8.926,8.926,0,0,1-1.413-.667,9.746,9.746,0,0,1-1.309-.884l-3.443,1.6a1.252,1.252,0,0,1-.942.061,1.248,1.248,0,0,1-.727-.623l-2.551-4.528a1.118,1.118,0,0,1-.136-.9,1.421,1.421,0,0,1,.511-.773l3.188-2.33a4.482,4.482,0,0,1-.085-.719q-.019-.406-.019-.719t.019-.719a4.48,4.48,0,0,1,.085-.719l-3.188-2.339a1.421,1.421,0,0,1-.511-.773,1.1,1.1,0,0,1,.136-.9l2.551-4.528a1.316,1.316,0,0,1,.736-.61,1.213,1.213,0,0,1,.933.057l3.461,1.594a9.624,9.624,0,0,1,1.3-.87,7.3,7.3,0,0,1,1.409-.633l.594-3.8a1.21,1.21,0,0,1,.445-.778,1.308,1.308,0,0,1,.848-.3h5.085a1.308,1.308,0,0,1,.848.3,1.21,1.21,0,0,1,.445.778l.594,3.763a11.958,11.958,0,0,1,1.428.652,6.3,6.3,0,0,1,1.295.889l3.443-1.594a1.238,1.238,0,0,1,.938-.061,1.253,1.253,0,0,1,.731.614l2.56,4.49a1.2,1.2,0,0,1,.15.923,1.263,1.263,0,0,1-.534.783l-3.2,2.264a5.879,5.879,0,0,1,.09.757q.023.406.023.756t-.023.738a5.853,5.853,0,0,1-.09.738l3.2,2.292a1.422,1.422,0,0,1,.511.773,1.139,1.139,0,0,1-.127.9l-2.569,4.528a1.248,1.248,0,0,1-.722.623,1.242,1.242,0,0,1-.938-.061l-3.452-1.6a11.7,11.7,0,0,1-1.286.9,6.083,6.083,0,0,1-1.428.652l-.594,3.745a1.21,1.21,0,0,1-.445.778A1.308,1.308,0,0,1,99.865-855.6ZM97.3-866a4.724,4.724,0,0,0,3.468-1.433,4.724,4.724,0,0,0,1.433-3.468,4.724,4.724,0,0,0-1.433-3.468A4.724,4.724,0,0,0,97.3-875.8a4.724,4.724,0,0,0-3.468,1.433A4.724,4.724,0,0,0,92.4-870.9a4.724,4.724,0,0,0,1.433,3.468A4.724,4.724,0,0,0,97.3-866Zm0-2.262a2.538,2.538,0,0,1-1.871-.773,2.551,2.551,0,0,1-.768-1.866,2.55,2.55,0,0,1,.768-1.866,2.538,2.538,0,0,1,1.871-.773,2.542,2.542,0,0,1,1.866.773,2.542,2.542,0,0,1,.773,1.866,2.543,2.543,0,0,1-.773,1.866A2.543,2.543,0,0,1,97.3-868.265ZM97.322-870.9Zm-1.587,12.737H98.9l.537-4.213a9.075,9.075,0,0,0,2.379-.943,9.077,9.077,0,0,0,2.03-1.573l4,1.734,1.427-2.6-3.526-2.583q.151-.65.25-1.281a8.274,8.274,0,0,0,.1-1.281,10.187,10.187,0,0,0-.08-1.281,8.378,8.378,0,0,0-.268-1.281l3.535-2.583-1.436-2.6-3.987,1.734a8.315,8.315,0,0,0-1.978-1.672,6.28,6.28,0,0,0-2.44-.853l-.528-4.2H95.736l-.519,4.2a7.816,7.816,0,0,0-2.43.909,8.384,8.384,0,0,0-2.006,1.615L86.8-878.646l-1.436,2.6,3.517,2.574q-.151.65-.25,1.286a8.36,8.36,0,0,0-.1,1.285,8.449,8.449,0,0,0,.1,1.29q.1.64.25,1.281l-3.517,2.574,1.436,2.6,3.978-1.734a9.593,9.593,0,0,0,2.044,1.573,8.943,8.943,0,0,0,2.392.952l.519,4.2Z" transform="translate(-82.33 886.218)" fill="#ef554a"/>
</svg>
