<svg id="layer1" xmlns="http://www.w3.org/2000/svg" width="24.022" height="24" viewBox="0 0 24.022 24">
  <path id="rect40272" d="M-31.747,255.006a2.318,2.318,0,0,0-2.22,2.716l1.95,11.5a2.9,2.9,0,0,0,2.841,2.417H-14.8a2.913,2.913,0,0,0,2.838-2.405l0-.012,1.949-11.485v0a2.308,2.308,0,0,0-2.216-2.727Zm0,1.751h19.515a.533.533,0,0,1,.532.655l0,.012-1.95,11.49a1.17,1.17,0,0,1-1.152.973H-29.175a1.162,1.162,0,0,1-1.152-.964l-1.95-11.5a.536.536,0,0,1,.531-.667Z" transform="translate(33.999 -247.636)" fill-rule="evenodd"/>
  <path id="path41727" d="M-25.537,246.06a.819.819,0,0,0-.456.432l-3.275,7.369a.819.819,0,0,0,.416,1.081.819.819,0,0,0,1.081-.416l3.275-7.369a.819.819,0,0,0-.416-1.081.819.819,0,0,0-.625-.016Z" transform="translate(33.382 -246.006)" fill-rule="evenodd"/>
  <path id="path41729" d="M-15.525,246.06a.819.819,0,0,0-.625.016.819.819,0,0,0-.416,1.081l3.275,7.369a.819.819,0,0,0,1.079.416.819.819,0,0,0,.416-1.081l-3.275-7.369a.819.819,0,0,0-.454-.432Z" transform="translate(31.7 -246.006)" fill-rule="evenodd"/>
  <path id="path43195" d="M-20.181,259.006a.819.819,0,0,0-.819.819v6.551a.819.819,0,0,0,.819.819.819.819,0,0,0,.819-.819v-6.551A.819.819,0,0,0-20.181,259.006Z" transform="translate(32.18 -247.586)" fill-rule="evenodd"/>
  <path id="path43243" d="M-24.181,259.006a.819.819,0,0,0-.819.819v6.551a.819.819,0,0,0,.819.819.819.819,0,0,0,.819-.819v-6.551A.819.819,0,0,0-24.181,259.006Z" transform="translate(32.74 -247.586)" fill-rule="evenodd"/>
  <path id="path43245" d="M-16.181,259.006a.819.819,0,0,0-.819.819v6.551a.819.819,0,0,0,.819.819.819.819,0,0,0,.819-.819v-6.551A.819.819,0,0,0-16.181,259.006Z" transform="translate(31.62 -247.586)" fill-rule="evenodd"/>
</svg>
