<svg xmlns="http://www.w3.org/2000/svg" width="444" height="261.513" viewBox="0 0 444 261.513">
  <g id="Take_Away-pana" data-name="Take Away-pana" transform="translate(-26.08 -50.12)">
    <g id="freepik--background-complete--inject-122" transform="translate(46.953 79.054)">
      <rect id="Rectangle_181" data-name="Rectangle 181" width="66.055" height="50.948" transform="translate(83.877 147.592) rotate(180)" fill="#f5f5f5"/>
      <path id="Path_2987" data-name="Path 2987" d="M113.085,298.618c.089,0,.165-11.353.165-25.369s-.076-25.369-.165-25.369-.165,11.353-.165,25.369S112.971,298.618,113.085,298.618Z" transform="translate(-78.716 -151.388)" fill="#ebebeb"/>
      <rect id="Rectangle_182" data-name="Rectangle 182" width="5.061" height="5.727" transform="translate(28.483 141.719) rotate(180)" fill="#fafafa"/>
      <rect id="Rectangle_183" data-name="Rectangle 183" width="7.503" height="10.871" transform="translate(56.218 96.771)" fill="#ebebeb"/>
      <rect id="Rectangle_184" data-name="Rectangle 184" width="7.503" height="10.871" transform="translate(56.218 136.569)" fill="#ebebeb"/>
      <rect id="Rectangle_185" data-name="Rectangle 185" width="109.05" height="84.105" transform="translate(0 148.309)" fill="#ebebeb"/>
      <path id="Path_2988" data-name="Path 2988" d="M187.726,412.979c-.121,0-.216-18.748-.216-41.859s.1-41.859.216-41.859.216,18.742.216,41.859S187.821,412.979,187.726,412.979Z" transform="translate(-105.999 -181.154)" fill="#e0e0e0"/>
      <rect id="Rectangle_186" data-name="Rectangle 186" width="8.359" height="9.45" transform="translate(91.443 213.273)" fill="#fafafa"/>
      <rect id="Rectangle_187" data-name="Rectangle 187" width="12.387" height="17.949" transform="translate(33.265 148.524)" fill="#e0e0e0"/>
      <rect id="Rectangle_188" data-name="Rectangle 188" width="12.387" height="17.949" transform="translate(33.265 214.218)" fill="#e0e0e0"/>
      <path id="Path_2989" data-name="Path 2989" d="M363.431,95.9a7.706,7.706,0,0,1-3.171,0A7.706,7.706,0,0,1,363.431,95.9Z" transform="translate(-169.185 -95.74)" fill="#ebebeb"/>
      <path id="Path_2990" data-name="Path 2990" d="M373.431,95.9a7.706,7.706,0,0,1-3.171,0,7.706,7.706,0,0,1,3.171,0Z" transform="translate(-172.843 -95.74)" fill="#ebebeb"/>
      <path id="Path_2991" data-name="Path 2991" d="M383.431,95.9a7.706,7.706,0,0,1-3.171,0,7.706,7.706,0,0,1,3.171,0Z" transform="translate(-176.501 -95.74)" fill="#ebebeb"/>
      <path id="Path_2992" data-name="Path 2992" d="M393.431,95.9a7.706,7.706,0,0,1-3.171,0A7.706,7.706,0,0,1,393.431,95.9Z" transform="translate(-180.158 -95.74)" fill="#ebebeb"/>
      <path id="Path_2993" data-name="Path 2993" d="M403.431,95.9a7.706,7.706,0,0,1-3.171,0A7.706,7.706,0,0,1,403.431,95.9Z" transform="translate(-183.816 -95.74)" fill="#ebebeb"/>
      <path id="Path_2994" data-name="Path 2994" d="M413.431,95.9a7.706,7.706,0,0,1-3.171,0A7.706,7.706,0,0,1,413.431,95.9Z" transform="translate(-187.474 -95.74)" fill="#ebebeb"/>
      <path id="Path_2995" data-name="Path 2995" d="M423.431,95.9a7.706,7.706,0,0,1-3.171,0A7.706,7.706,0,0,1,423.431,95.9Z" transform="translate(-191.131 -95.74)" fill="#ebebeb"/>
      <path id="Path_2996" data-name="Path 2996" d="M433.431,95.9a7.706,7.706,0,0,1-3.171,0A7.706,7.706,0,0,1,433.431,95.9Z" transform="translate(-194.789 -95.74)" fill="#ebebeb"/>
      <path id="Path_2997" data-name="Path 2997" d="M443.431,95.9a7.706,7.706,0,0,1-3.171,0A7.706,7.706,0,0,1,443.431,95.9Z" transform="translate(-198.447 -95.74)" fill="#ebebeb"/>
      <path id="Path_2998" data-name="Path 2998" d="M453.431,95.9a7.706,7.706,0,0,1-3.171,0A7.706,7.706,0,0,1,453.431,95.9Z" transform="translate(-202.104 -95.74)" fill="#ebebeb"/>
      <path id="Path_2999" data-name="Path 2999" d="M463.431,95.9a7.706,7.706,0,0,1-3.171,0A7.706,7.706,0,0,1,463.431,95.9Z" transform="translate(-205.762 -95.74)" fill="#ebebeb"/>
      <path id="Path_3000" data-name="Path 3000" d="M473.431,95.9a7.706,7.706,0,0,1-3.171,0A7.706,7.706,0,0,1,473.431,95.9Z" transform="translate(-209.42 -95.74)" fill="#ebebeb"/>
      <path id="Path_3001" data-name="Path 3001" d="M483.431,95.9a7.706,7.706,0,0,1-3.171,0A7.706,7.706,0,0,1,483.431,95.9Z" transform="translate(-213.077 -95.74)" fill="#ebebeb"/>
      <path id="Path_3002" data-name="Path 3002" d="M493.431,95.9a7.706,7.706,0,0,1-3.171,0A7.706,7.706,0,0,1,493.431,95.9Z" transform="translate(-216.735 -95.74)" fill="#ebebeb"/>
      <path id="Path_3003" data-name="Path 3003" d="M503.431,95.9a7.706,7.706,0,0,1-3.171,0A7.706,7.706,0,0,1,503.431,95.9Z" transform="translate(-220.393 -95.74)" fill="#ebebeb"/>
      <path id="Path_3004" data-name="Path 3004" d="M513.431,95.9a7.706,7.706,0,0,1-3.171,0A7.706,7.706,0,0,1,513.431,95.9Z" transform="translate(-224.05 -95.74)" fill="#ebebeb"/>
      <path id="Path_3005" data-name="Path 3005" d="M523.431,95.9a7.706,7.706,0,0,1-3.171,0A7.706,7.706,0,0,1,523.431,95.9Z" transform="translate(-227.708 -95.74)" fill="#ebebeb"/>
      <path id="Path_3006" data-name="Path 3006" d="M533.431,95.9a7.706,7.706,0,0,1-3.171,0A7.706,7.706,0,0,1,533.431,95.9Z" transform="translate(-231.366 -95.74)" fill="#ebebeb"/>
      <path id="Path_3007" data-name="Path 3007" d="M543.431,95.9a7.706,7.706,0,0,1-3.171,0A7.706,7.706,0,0,1,543.431,95.9Z" transform="translate(-235.023 -95.74)" fill="#ebebeb"/>
      <path id="Path_3008" data-name="Path 3008" d="M553.431,95.9a7.706,7.706,0,0,1-3.171,0A7.706,7.706,0,0,1,553.431,95.9Z" transform="translate(-238.681 -95.74)" fill="#ebebeb"/>
      <path id="Path_3009" data-name="Path 3009" d="M563.431,95.9a7.706,7.706,0,0,1-3.171,0A7.706,7.706,0,0,1,563.431,95.9Z" transform="translate(-242.339 -95.74)" fill="#ebebeb"/>
      <path id="Path_3010" data-name="Path 3010" d="M573.431,95.9a7.706,7.706,0,0,1-3.171,0A7.706,7.706,0,0,1,573.431,95.9Z" transform="translate(-245.997 -95.74)" fill="#ebebeb"/>
      <path id="Path_3011" data-name="Path 3011" d="M583.431,95.9a7.706,7.706,0,0,1-3.171,0A7.706,7.706,0,0,1,583.431,95.9Z" transform="translate(-249.654 -95.74)" fill="#ebebeb"/>
      <path id="Path_3012" data-name="Path 3012" d="M587.714,101.581a7.7,7.7,0,0,1,0-3.171,7.707,7.707,0,0,1,0,3.171Z" transform="translate(-252.313 -96.717)" fill="#ebebeb"/>
      <path id="Path_3013" data-name="Path 3013" d="M587.714,111.581a7.7,7.7,0,0,1,0-3.171,7.707,7.707,0,0,1,0,3.171Z" transform="translate(-252.313 -100.374)" fill="#ebebeb"/>
      <path id="Path_3014" data-name="Path 3014" d="M587.714,121.581a7.7,7.7,0,0,1,0-3.171,7.707,7.707,0,0,1,0,3.171Z" transform="translate(-252.313 -104.032)" fill="#ebebeb"/>
      <path id="Path_3015" data-name="Path 3015" d="M587.725,131.581a7.706,7.706,0,0,1,0-3.171A7.708,7.708,0,0,1,587.725,131.581Z" transform="translate(-252.324 -107.69)" fill="#ebebeb"/>
      <path id="Path_3016" data-name="Path 3016" d="M587.725,141.581a7.706,7.706,0,0,1,0-3.171,7.708,7.708,0,0,1,0,3.171Z" transform="translate(-252.324 -111.347)" fill="#ebebeb"/>
      <path id="Path_3017" data-name="Path 3017" d="M588.954,150.344c0,.082-.526.146-1.237.165h-.159V150a4,4,0,0,1,.165-1.586,3.876,3.876,0,0,1,.165,1.586v.349l-.165-.159a2.942,2.942,0,0,1,1.23.159Z" transform="translate(-252.317 -115.005)" fill="#ebebeb"/>
      <path id="Path_3018" data-name="Path 3018" d="M597.941,151.365a7.705,7.705,0,0,1-3.171,0,7.706,7.706,0,0,1,3.171,0Z" transform="translate(-254.962 -116.026)" fill="#ebebeb"/>
      <path id="Path_3019" data-name="Path 3019" d="M607.941,151.365a7.706,7.706,0,0,1-3.171,0A7.705,7.705,0,0,1,607.941,151.365Z" transform="translate(-258.619 -116.026)" fill="#ebebeb"/>
      <path id="Path_3020" data-name="Path 3020" d="M617.941,151.365a7.705,7.705,0,0,1-3.171,0,7.706,7.706,0,0,1,3.171,0Z" transform="translate(-262.277 -116.026)" fill="#ebebeb"/>
      <path id="Path_3021" data-name="Path 3021" d="M627.941,151.365a7.705,7.705,0,0,1-3.171,0,7.706,7.706,0,0,1,3.171,0Z" transform="translate(-265.935 -116.026)" fill="#ebebeb"/>
      <path id="Path_3022" data-name="Path 3022" d="M637.941,151.365a7.705,7.705,0,0,1-3.171,0,7.706,7.706,0,0,1,3.171,0Z" transform="translate(-269.592 -116.026)" fill="#ebebeb"/>
      <path id="Path_3023" data-name="Path 3023" d="M647.941,151.365a7.705,7.705,0,0,1-3.171,0,7.706,7.706,0,0,1,3.171,0Z" transform="translate(-273.25 -116.026)" fill="#ebebeb"/>
      <path id="Path_3024" data-name="Path 3024" d="M657.941,151.365a7.706,7.706,0,0,1-3.171,0A7.705,7.705,0,0,1,657.941,151.365Z" transform="translate(-276.908 -116.026)" fill="#ebebeb"/>
      <path id="Path_3025" data-name="Path 3025" d="M667.941,151.365a7.705,7.705,0,0,1-3.171,0,7.706,7.706,0,0,1,3.171,0Z" transform="translate(-280.565 -116.026)" fill="#ebebeb"/>
      <path id="Path_3026" data-name="Path 3026" d="M673.565,155.751a7.706,7.706,0,0,1,0-3.171,7.706,7.706,0,0,1,0,3.171Z" transform="translate(-283.722 -116.53)" fill="#ebebeb"/>
      <path id="Path_3027" data-name="Path 3027" d="M673.565,165.751a7.706,7.706,0,0,1,0-3.171A7.706,7.706,0,0,1,673.565,165.751Z" transform="translate(-283.722 -120.188)" fill="#ebebeb"/>
      <path id="Path_3028" data-name="Path 3028" d="M673.565,175.751a7.706,7.706,0,0,1,0-3.171A7.706,7.706,0,0,1,673.565,175.751Z" transform="translate(-283.722 -123.846)" fill="#ebebeb"/>
      <path id="Path_3029" data-name="Path 3029" d="M673.565,185.751a7.706,7.706,0,0,1,0-3.171A7.706,7.706,0,0,1,673.565,185.751Z" transform="translate(-283.722 -127.503)" fill="#ebebeb"/>
      <path id="Path_3030" data-name="Path 3030" d="M673.565,195.751a7.706,7.706,0,0,1,0-3.171A7.706,7.706,0,0,1,673.565,195.751Z" transform="translate(-283.722 -131.161)" fill="#ebebeb"/>
      <path id="Path_3031" data-name="Path 3031" d="M673.565,205.751a7.706,7.706,0,0,1,0-3.171A7.706,7.706,0,0,1,673.565,205.751Z" transform="translate(-283.722 -134.819)" fill="#ebebeb"/>
      <path id="Path_3032" data-name="Path 3032" d="M673.565,215.751a7.706,7.706,0,0,1,0-3.171A7.706,7.706,0,0,1,673.565,215.751Z" transform="translate(-283.722 -138.476)" fill="#ebebeb"/>
      <path id="Path_3033" data-name="Path 3033" d="M673.565,225.751a7.706,7.706,0,0,1,0-3.171A7.706,7.706,0,0,1,673.565,225.751Z" transform="translate(-283.722 -142.134)" fill="#ebebeb"/>
      <path id="Path_3034" data-name="Path 3034" d="M673.565,235.751a7.706,7.706,0,0,1,0-3.171A7.706,7.706,0,0,1,673.565,235.751Z" transform="translate(-283.722 -145.792)" fill="#ebebeb"/>
      <path id="Path_3035" data-name="Path 3035" d="M673.565,245.751a7.706,7.706,0,0,1,0-3.171,7.706,7.706,0,0,1,0,3.171Z" transform="translate(-283.722 -149.449)" fill="#ebebeb"/>
      <path id="Path_3036" data-name="Path 3036" d="M673.565,255.751a7.706,7.706,0,0,1,0-3.171A7.706,7.706,0,0,1,673.565,255.751Z" transform="translate(-283.722 -153.107)" fill="#ebebeb"/>
      <path id="Path_3037" data-name="Path 3037" d="M387.552,112.84s-4.922-2.727-9.748,8.917a145.254,145.254,0,0,0-6.475,18.266s-1.326,2.467-3.057,1.059-4.281-5.581-6.977-4.585c-2.778,1.04-3.463,4.281-2.537,8.879s2.537,14.8,2.67,15.716-.279,2.29-1.611,1.516-9.247-8.3-12.6-4.332S348.49,174.69,349,176.035s.254,1.985-.381,2.385-3.063-2.385-5.4-4.44-5.41-4.015-7.154-1.567-1.6,12.05,8.708,26.847l5.22,6.545,8.34-1.123c17.689-3.488,24.45-10.3,24.9-13.274s-3.12-3.615-6.228-3.729-6.78.171-6.977-.558.089-1.332,1.383-1.985,13.274-6.38,13.623-11.562-10.579-5.258-12.05-5.632-.837-1.655-.108-2.207,8.981-6.767,12.837-9.456,5.619-5.5,4.338-8.175c-1.23-2.575-5.962-1.345-8.188-1.535s-1.465-2.879-1.465-2.879a145.672,145.672,0,0,0,8.023-17.644c4.611-11.727-.964-13.192-.964-13.192" transform="translate(-160.028 -101.893)" fill="#ebebeb"/>
      <path id="Path_3038" data-name="Path 3038" d="M359,210.379c3.419-8.6,8.245-20.441,13.623-33.506s10.224-24.887,13.693-33.468c1.725-4.281,3.12-7.75,4.1-10.148l1.116-2.759c.127-.3.222-.545.3-.717a2.587,2.587,0,0,1,.108-.241.646.646,0,0,1-.082.254c-.082.165-.152.412-.273.723-.247.634-.6,1.586-1.066,2.784-.932,2.416-2.3,5.9-4.015,10.2-3.419,8.6-8.245,20.441-13.617,33.5s-10.224,24.894-13.693,33.475" transform="translate(-168.724 -108.103)" fill="#e0e0e0"/>
      <path id="Path_3039" data-name="Path 3039" d="M381.61,159.78a2.669,2.669,0,0,1,.26.545c.152.362.355.888.6,1.535.488,1.307,1.11,3.127,1.757,5.144s1.2,3.805,1.643,5.182l.5,1.567a2.371,2.371,0,0,1,.159.583,2.672,2.672,0,0,1-.26-.545c-.152-.362-.355-.888-.59-1.541-.476-1.307-1.072-3.133-1.725-5.156l-1.674-5.163c-.2-.634-.368-1.135-.507-1.567a2.371,2.371,0,0,1-.159-.583Z" transform="translate(-176.994 -119.164)" fill="#e0e0e0"/>
      <path id="Path_3040" data-name="Path 3040" d="M390.59,179.284c0-.076,3.666-1.529,8.245-3.241s8.321-3.051,8.346-2.975-3.66,1.529-8.245,3.241S390.615,179.366,390.59,179.284Z" transform="translate(-180.279 -124.023)" fill="#e0e0e0"/>
      <path id="Path_3041" data-name="Path 3041" d="M376.15,212.862a2.539,2.539,0,0,1,.634-.082l1.674-.133c1.414-.108,3.368-.266,5.518-.52s4.084-.539,5.486-.761l1.662-.26a2.139,2.139,0,0,1,.634-.057,2.961,2.961,0,0,1-.6.171c-.387.089-.951.209-1.649.349-1.389.266-3.33.59-5.486.844s-4.116.381-5.537.438c-.71,0-1.268.044-1.681.038a2.866,2.866,0,0,1-.66-.025Z" transform="translate(-174.997 -137.915)" fill="#e0e0e0"/>
      <path id="Path_3042" data-name="Path 3042" d="M363.44,194.81a2.353,2.353,0,0,1,.368.438c.216.292.533.723.913,1.268.761,1.065,1.8,2.537,2.93,4.2s2.137,3.171,2.86,4.256c.362.545.634,1,.837,1.307a2.26,2.26,0,0,1,.279.5,4.709,4.709,0,0,1-.368-.438c-.222-.292-.533-.723-.92-1.268-.761-1.072-1.795-2.537-2.93-4.2s-2.137-3.171-2.86-4.256c-.355-.545-.634-1-.837-1.307A2.043,2.043,0,0,1,363.44,194.81Z" transform="translate(-170.348 -131.977)" fill="#e0e0e0"/>
      <path id="Path_3043" data-name="Path 3043" d="M347.21,220.59a3.482,3.482,0,0,1,.463.564c.311.431.71.964,1.18,1.611.983,1.364,2.328,3.254,3.805,5.359s2.791,4.015,3.729,5.41c.444.634.812,1.218,1.1,1.655a4.442,4.442,0,0,1,.374.634,3.115,3.115,0,0,1-.463-.564l-1.18-1.6c-.983-1.364-2.328-3.26-3.805-5.359s-2.784-4.015-3.723-5.41l-1.1-1.655A3.171,3.171,0,0,1,347.21,220.59Z" transform="translate(-164.412 -141.406)" fill="#e0e0e0"/>
      <path id="Path_3044" data-name="Path 3044" d="M363.75,242.281a4.252,4.252,0,0,1,.774-.127l2.118-.241c1.789-.2,4.256-.488,6.977-.882s5.169-.812,6.939-1.123l2.1-.368a4.261,4.261,0,0,1,.78-.1,4.094,4.094,0,0,1-.755.209c-.495.121-1.205.279-2.087.457-1.763.368-4.218.818-6.938,1.205s-5.2.634-6.977.805c-.894.076-1.624.127-2.125.152a4.369,4.369,0,0,1-.805.013Z" transform="translate(-170.462 -148.301)" fill="#e0e0e0"/>
      <path id="Path_3045" data-name="Path 3045" d="M683.094,269.173a22.287,22.287,0,1,0-41.5,11.258h0l.063.082c.85,1.44,1.9,2.467,3.006,3.983L657.6,301.62a4.015,4.015,0,0,0,6.418,0l12.729-16.852a48.263,48.263,0,0,0,3.234-4.294l.044-.057h0A22.2,22.2,0,0,0,683.094,269.173Zm-22.287,9.7a9.812,9.812,0,1,1,9.805-9.809,9.812,9.812,0,0,1-9.805,9.809Z" transform="translate(-270.964 -151.009)" fill="#f5f5f5"/>
      <path id="Path_3046" data-name="Path 3046" d="M542.9,125.216v26.206a1.021,1.021,0,0,0,1.021,1.021h54.95a1.015,1.015,0,0,0,1.021-1.034l-.12-9.59a1.091,1.091,0,0,0-.2-.634l-7.883-10.535a1.021,1.021,0,0,0-.812-.406l-9.082-.07a1.028,1.028,0,0,1-1.015-1.021v-3.964a1.021,1.021,0,0,0-1.021-1.021H543.921a1.021,1.021,0,0,0-1.021,1.046Z" transform="translate(-235.989 -106.139)" fill="#f5f5f5"/>
      <path id="Path_3047" data-name="Path 3047" d="M606.65,136.841v8.41a.583.583,0,0,0,.6.583l12.133-.216a.584.584,0,0,0,.476-.913l-5.708-8.366a.577.577,0,0,0-.495-.26l-6.463.178a.583.583,0,0,0-.539.584Z" transform="translate(-259.307 -110.495)" fill="#ebebeb"/>
      <rect id="Rectangle_189" data-name="Rectangle 189" width="59.193" height="1.827" transform="translate(305.807 47.104)" fill="#f5f5f5"/>
      <circle id="Ellipse_22" data-name="Ellipse 22" cx="5.854" cy="5.854" r="5.854" transform="translate(311.246 47.801) rotate(-45)" fill="#ebebeb"/>
      <path id="Path_3048" data-name="Path 3048" d="M564.248,169.124a3.444,3.444,0,1,1-3.444-3.444,3.444,3.444,0,0,1,3.444,3.444Z" transform="translate(-241.278 -121.322)" fill="#fafafa"/>
      <path id="Path_3049" data-name="Path 3049" d="M602.4,152.459c-.146,0-.266-6.342-.266-14.124s.12-14.124.266-14.124.266,6.342.266,14.124S602.542,152.459,602.4,152.459Z" transform="translate(-257.654 -106.153)" fill="#ebebeb"/>
      <circle id="Ellipse_23" data-name="Ellipse 23" cx="5.854" cy="5.854" r="5.854" transform="translate(343.157 47.799) rotate(-45)" fill="#ebebeb"/>
      <path id="Path_3050" data-name="Path 3050" d="M614.55,169.124a3.45,3.45,0,1,1-3.444-3.444A3.45,3.45,0,0,1,614.55,169.124Z" transform="translate(-259.673 -121.322)" fill="#fafafa"/>
      <path id="Path_3051" data-name="Path 3051" d="M610.944,153.926c0,.146-.837.266-1.9.266s-1.871-.121-1.871-.266.837-.266,1.871-.266S610.944,153.774,610.944,153.926Z" transform="translate(-259.497 -116.925)" fill="#ebebeb"/>
    </g>
    <g id="freepik--Floor--inject-122" transform="translate(26.08 311.303)">
      <path id="Path_3052" data-name="Path 3052" d="M470.08,462.095c0,.1-99.4.165-221.981.165s-222.019-.07-222.019-.165,99.384-.165,222.019-.165S470.08,462.006,470.08,462.095Z" transform="translate(-26.08 -461.93)" fill="#263238"/>
    </g>
    <g id="freepik--Plant--inject-122" transform="translate(79.295 249.767)">
      <path id="Path_3053" data-name="Path 3053" d="M145.422,423.816c8.549-5.93,10.522-16.978,10.217-26.917-.051-1.655.14-3.406-.634-4.865s-2.619-2.454-4.11-1.763c-1.23.577-1.776,2-2.467,3.171a9.7,9.7,0,0,1-3.9,3.7,3.725,3.725,0,0,1-3.412.292c-1.427-.793-1.586-2.772-1.573-4.44q.051-4.611.089-9.222a15.3,15.3,0,0,0-.463-4.858,5.131,5.131,0,0,0-3.209-3.476,3.094,3.094,0,0,0-3.843,2.068,14.778,14.778,0,0,0-.057,2.055,1.738,1.738,0,0,1-1.021,1.63,2.019,2.019,0,0,1-1.808-.761,21.641,21.641,0,0,1-3.92-5.962,29.729,29.729,0,0,0-3.653-6.146,8.929,8.929,0,0,0-6.032-3.412,5.353,5.353,0,0,0-5.492,3.621c-.609,2.315.742,4.693,2.213,6.577a36.786,36.786,0,0,0,7.611,7.338,3.025,3.025,0,0,1,1.268,1.383c.349,1.1-.691,2.188-1.782,2.537a18.74,18.74,0,0,1-3.85.419,3.694,3.694,0,0,0-3.171,1.9c-.679,1.687.723,3.457,2.106,4.617a31.414,31.414,0,0,0,9.323,5.423,10.693,10.693,0,0,1,3.463,1.7,2.686,2.686,0,0,1-2.423,4.769,23.631,23.631,0,0,1-3.615-1.4c-2.264-.863-5.194-.717-6.653,1.237a5.232,5.232,0,0,0-.571,4.617,12.051,12.051,0,0,0,2.486,4.084,31.711,31.711,0,0,0,13.515,9.564c5.251,1.846,10.148,2.353,15.355.463" transform="translate(-109.984 -364.905)" fill="#ff725e"/>
      <path id="Path_3054" data-name="Path 3054" d="M146.342,427.415c-.342-3.939-.52-4.021-1.979-9.038a147.141,147.141,0,0,0-5.81-15.938q-.888-2.074-1.738-4.1c-.577-1.345-1.142-2.676-1.782-3.945a73.376,73.376,0,0,0-4.1-7.065c-1.4-2.194-2.816-4.218-4.154-6.108s-2.619-3.615-3.856-5.144a58.908,58.908,0,0,0-6.342-6.774c-.812-.742-1.459-1.268-1.9-1.662l-.507-.412c-.114-.1-.178-.14-.184-.133a2.177,2.177,0,0,0,.165.159l.488.438c.431.381,1.066.945,1.865,1.7a62.159,62.159,0,0,1,6.273,6.824c1.224,1.529,2.493,3.266,3.805,5.156s2.727,3.92,4.129,6.108a74.454,74.454,0,0,1,4.04,7.065c.634,1.268,1.2,2.588,1.77,3.932s1.148,2.715,1.738,4.1a151.5,151.5,0,0,1,5.822,15.9c1.465,5,1.662,5.074,2.036,8.974" transform="translate(-111.449 -365.708)" fill="#263238"/>
      <path id="Path_3055" data-name="Path 3055" d="M147,399.655a3.349,3.349,0,0,0,.159-.7c.089-.457.2-1.116.317-1.941.235-1.643.488-3.92.761-6.431s.552-4.782.812-6.418c.133-.818.241-1.478.33-1.934a2.974,2.974,0,0,0,.089-.717,4.034,4.034,0,0,0-.209.691c-.114.45-.26,1.11-.419,1.9-.317,1.63-.634,3.907-.907,6.418s-.495,4.725-.672,6.444c-.082.774-.159,1.427-.216,1.947A2.829,2.829,0,0,0,147,399.655Z" transform="translate(-123.519 -370.979)" fill="#263238"/>
      <path id="Path_3056" data-name="Path 3056" d="M113.58,403.74a4.361,4.361,0,0,0,.85.108c.539.051,1.332.114,2.3.235,1.941.216,4.611.634,7.541,1.173s5.556,1.192,7.446,1.7c.945.247,1.706.469,2.232.634a5.129,5.129,0,0,0,.831.2,4.985,4.985,0,0,0-.793-.323c-.52-.184-1.268-.438-2.213-.71-1.9-.564-4.509-1.224-7.446-1.795a73.71,73.71,0,0,0-7.611-1.085c-.977-.089-1.77-.127-2.315-.14A4.756,4.756,0,0,0,113.58,403.74Z" transform="translate(-111.299 -379.103)" fill="#263238"/>
      <path id="Path_3057" data-name="Path 3057" d="M161.44,431.736a1.148,1.148,0,0,0,.152-.26c.1-.209.216-.463.362-.767.317-.666.742-1.643,1.268-2.854,1.027-2.429,2.353-5.822,3.755-9.6s2.7-7.173,3.672-9.615l1.173-2.892c.12-.317.228-.577.311-.786s.1-.279.089-.285a1.224,1.224,0,0,0-.146.26l-.361.761c-.317.672-.748,1.649-1.268,2.86-1.034,2.423-2.353,5.822-3.755,9.59s-2.7,7.173-3.679,9.621c-.476,1.186-.875,2.163-1.167,2.886-.127.317-.228.577-.311.793a1.451,1.451,0,0,0-.1.285Z" transform="translate(-128.805 -379.454)" fill="#263238"/>
      <path id="Path_3058" data-name="Path 3058" d="M117.05,432.86a1.393,1.393,0,0,0,.279.114l.818.279,3.019.989c2.537.831,6.044,2.03,9.913,3.349s7.389,2.493,9.951,3.273c1.268.393,2.321.7,3.044.894l.837.228a1.683,1.683,0,0,0,.292.057,2.037,2.037,0,0,0-.279-.12l-.812-.273-2.994-.989c-2.537-.837-6.044-2.03-9.919-3.355s-7.382-2.493-9.945-3.273c-1.268-.393-2.321-.7-3.044-.894l-.837-.222A.864.864,0,0,0,117.05,432.86Z" transform="translate(-112.569 -389.761)" fill="#263238"/>
    </g>
    <g id="freepik--Device--inject-122" transform="translate(109.824 50.12)">
      <path id="Path_3059" data-name="Path 3059" d="M266.015,311.468H177.749a20.023,20.023,0,0,1-19.629-19.807l.939-222.3a19.312,19.312,0,0,1,19.4-19.236l88.672.412a19.306,19.306,0,0,1,19.224,19.395l-.939,222.3A19.312,19.312,0,0,1,266.015,311.468Z" transform="translate(-158.12 -50.12)" fill="#263238"/>
      <path id="Path_3060" data-name="Path 3060" d="M270.405,63.875l-17.194-.051a4.268,4.268,0,0,0-4.192,4.344v3.12a4.275,4.275,0,0,1-4.192,4.344l-33.513-.159a4.268,4.268,0,0,1-4.154-4.383V67.979A4.287,4.287,0,0,0,203,63.59h-6.044l-15.05-.07A13.528,13.528,0,0,0,168.32,76.991L167.4,293.93a13.528,13.528,0,0,0,13.465,13.585l88.494.406a13.522,13.522,0,0,0,13.592-13.471l.894-216.99a13.535,13.535,0,0,0-13.439-13.585Z" transform="translate(-161.514 -55.021)" fill="#f5f5f5"/>
      <path id="Path_3061" data-name="Path 3061" d="M270.429,383.821c-.1,2.619-.2,5.074-.279,7.122h12.685l-1.554-7.814Z" transform="translate(-199.097 -171.924)" fill="#f5f5f5"/>
      <path id="Path_3062" data-name="Path 3062" d="M189.13,387.534l.108,3.856h50.009c.082-2.169.178-4.566.273-7.04Z" transform="translate(-169.462 -172.371)" fill="#f5f5f5"/>
      <path id="Path_3063" data-name="Path 3063" d="M288.75,382.17l1.56,7.845h23.441l-.285-9.406Z" transform="translate(-205.9 -171.003)" fill="#f5f5f5"/>
      <path id="Path_3064" data-name="Path 3064" d="M268.453,194.765l4.433-25.693-11.606-.863v26.555Z" transform="translate(-195.853 -93.313)" fill="#f5f5f5"/>
      <path id="Path_3065" data-name="Path 3065" d="M180.194,366.88l-12.6,4.934-.038,8.924,13.008-.825Z" transform="translate(-161.573 -165.981)" fill="#f5f5f5"/>
      <path id="Path_3066" data-name="Path 3066" d="M180.162,345.051l-.685-23.93h-.013V312.68l-11.683,1.237-.152,36.031,12.526-4.909Z" transform="translate(-161.598 -146.156)" fill="#f5f5f5"/>
      <path id="Path_3067" data-name="Path 3067" d="M179.56,282.095l-11.587-1.535-.082,19.7,11.67-1.237Z" transform="translate(-161.693 -134.408)" fill="#f5f5f5"/>
      <path id="Path_3068" data-name="Path 3068" d="M314.305,313.042l-.488,6.862-13.687,1.471,1.059,5.429,15.532-1.173-.228-7.782,1.237-5.15Z" transform="translate(-210.063 -146.163)" fill="#f5f5f5"/>
      <path id="Path_3069" data-name="Path 3069" d="M283.009,328.812l10.915-.824-2.378-12.177-9.526.964Z" transform="translate(-203.439 -147.301)" fill="#f5f5f5"/>
      <path id="Path_3070" data-name="Path 3070" d="M283.75,337.132l.831,10.154,1.478,13.928.609,3.051,24.932-1.573-.831-27.6Z" transform="translate(-204.071 -154.353)" fill="#f5f5f5"/>
      <path id="Path_3071" data-name="Path 3071" d="M198.518,244.536l.958,1.643-19.224,11.232v26.606l20.3-1.44,39.138-3.964-1.433-17.435-37.363-4.884.247-1.9,36.957,4.826-2.423-29.511-36.582,3.514-.121-1.268,36.6-3.514-1.268-15.4H199.1L168.2,218.659l-.152,35.263,11.689,1.586Zm-16.3,36.919s.146-21.932,0-22.75l15.691-8.346,2.036,29.98Z" transform="translate(-161.752 -109.711)" fill="#f5f5f5"/>
      <path id="Path_3072" data-name="Path 3072" d="M312.253,313.45l-14.213,1.433,1.078,5.518,12.742-1.37Z" transform="translate(-209.298 -146.438)" fill="#f5f5f5"/>
      <path id="Path_3073" data-name="Path 3073" d="M270.8,376.81c-.044,1.154-.089,2.3-.127,3.425l10.579-.672-.545-2.727Z" transform="translate(-199.287 -169.613)" fill="#f5f5f5"/>
      <path id="Path_3074" data-name="Path 3074" d="M210.558,192.841l1.865-8.454h14.207V166.242l-44.415-3.292v17.042l-13.871,3.139-.063,15.3L199,192.841Z" transform="translate(-161.836 -91.389)" fill="#f5f5f5"/>
      <path id="Path_3075" data-name="Path 3075" d="M273.7,112.889l-.381-1.554,16.959-6.71L279.246,82.478a3.945,3.945,0,0,1-.634.051L259.87,82.44l.507,30.995Z" transform="translate(-195.337 -61.941)" fill="#f5f5f5"/>
      <path id="Path_3076" data-name="Path 3076" d="M311.6,94.266V64.032L299.236,64a4.268,4.268,0,0,0-4.192,4.344v3.12a4.44,4.44,0,0,1-1.814,3.577L304.266,97.2Z" transform="translate(-207.539 -55.197)" fill="#f5f5f5"/>
      <path id="Path_3077" data-name="Path 3077" d="M207.837,95.372,206.4,63.533h-3.431l-13.414-.063L183.85,91.941Zm-3.057-28.61.457,25.927-17.828-2.607,3.9-23.321Z" transform="translate(-167.531 -55.003)" fill="#f5f5f5"/>
      <path id="Path_3078" data-name="Path 3078" d="M221.849,95.511v.266c0,2.486.076,6.977.114,11.74l23.359-.951-.507-31.02-14.137-.07a4.268,4.268,0,0,1-4.154-4.383V67.979a4.287,4.287,0,0,0-4.161-4.389H220.39l1.433,31.921Z" transform="translate(-180.896 -55.047)" fill="#f5f5f5"/>
      <path id="Path_3079" data-name="Path 3079" d="M176.437,91.652l5.657-28.192a13.522,13.522,0,0,0-13.281,13.458l-.063,14.055.063-.412Z" transform="translate(-162.008 -54.999)" fill="#f5f5f5"/>
      <path id="Path_3080" data-name="Path 3080" d="M180.352,162.222l-11.879-.882-.082,19.249,11.962-2.708Z" transform="translate(-161.876 -90.801)" fill="#f5f5f5"/>
      <path id="Path_3081" data-name="Path 3081" d="M176.233,108.265l-7.56-1.085-.133,31.172,1.63.121Z" transform="translate(-161.931 -70.991)" fill="#f5f5f5"/>
      <path id="Path_3082" data-name="Path 3082" d="M207.088,348.71l.2-25.02L187.3,325.1l.71,24.513Z" transform="translate(-168.793 -150.183)" fill="#f5f5f5"/>
      <path id="Path_3083" data-name="Path 3083" d="M223.762,340.6l28.3,13.56c.342-8.879.634-17.124.634-17.676l.634-.032.3-.6c.4.2.4.2.19,6.241-.121,3.368-.285,7.852-.457,12.336h9.786l-1.44-13.6-1.9-23.467L222.83,321.1Z" transform="translate(-181.789 -147.871)" fill="#f5f5f5"/>
      <path id="Path_3084" data-name="Path 3084" d="M313.938,286.654l-.323-3.3-33.925,3.533,1.427,17.384,29.3-2.956Z" transform="translate(-202.586 -135.428)" fill="#f5f5f5"/>
      <path id="Path_3085" data-name="Path 3085" d="M252.134,199.75H239.456L238.01,206.3h14.124Z" transform="translate(-187.341 -104.85)" fill="#f5f5f5"/>
      <path id="Path_3086" data-name="Path 3086" d="M306.392,201.974l-31.743-2.194-1.268,7.5,1.338,16.274,33.475-3.222Zm-30.576,5.289,1.706-4.731,27.57,1.744,1.592,13.535-29.936,3.552Z" transform="translate(-200.278 -104.861)" fill="#f5f5f5"/>
      <path id="Path_3087" data-name="Path 3087" d="M310.5,248.571l-1.4-14.391L275.61,237.4l1.262,15.317Z" transform="translate(-201.094 -117.443)" fill="#f5f5f5"/>
      <path id="Path_3088" data-name="Path 3088" d="M180.6,389.425l-13,.818-.051-.844-.019,3.831H180.7Z" transform="translate(-161.562 -174.218)" fill="#f5f5f5"/>
      <path id="Path_3089" data-name="Path 3089" d="M340.593,87.147l.19.488.019-9.97A13.535,13.535,0,0,0,327.338,64.08H323.12V94.066Z" transform="translate(-218.472 -55.226)" fill="#f5f5f5"/>
      <path id="Path_3090" data-name="Path 3090" d="M239.458,357.088l-28.889-13.845-1.021-19.832-1.205.12-.209,25.686-19.693.932v.571h0l.381,13.243,50.478-3.171Q239.394,358.936,239.458,357.088Zm-49.781-5.3,27.564-1.9,17.93,8.315-45.493,2.461Z" transform="translate(-169.21 -150.081)" fill="#f5f5f5"/>
      <path id="Path_3091" data-name="Path 3091" d="M328.133,138.717l1.186-7.008c-10.363-3.7-11.08-14.5-11.048-17.758l-6.761,2.676,10.179,20.441Z" transform="translate(-214.225 -73.467)" fill="#f5f5f5"/>
      <path id="Path_3092" data-name="Path 3092" d="M278.855,277.909l14.086-1.465L290.169,264l-12.329,1.522Z" transform="translate(-201.91 -128.35)" fill="#f5f5f5"/>
      <path id="Path_3093" data-name="Path 3093" d="M307.354,169.8H281.046l-2.182-.165-2.975,17.232,31.23,2.156-.723-7.49,3.076-11.061Z" transform="translate(-201.197 -93.836)" fill="#f5f5f5"/>
      <path id="Path_3094" data-name="Path 3094" d="M309.472,148.173l.33-8.245L299.463,119.17l-16.033,6.342,5.511,22.629ZM298.835,121.72l9.475,18.025-1.37,5.619-16.211-.634-4.053-17.048Z" transform="translate(-203.954 -75.376)" fill="#f5f5f5"/>
      <path id="Path_3095" data-name="Path 3095" d="M330.94,317.36l.488,16.154,11.4-.641.038.634-11.416.641.577,19.331,10.782-.685.076,1.268-10.82.685.292,9.609h10.5l.228-53.9-10.744,1.085Z" transform="translate(-221.332 -145.344)" fill="#f5f5f5"/>
      <path id="Path_3096" data-name="Path 3096" d="M204.3,112.783l-24.139-3.463L174.12,139.4,204.4,141.64C204.525,137.023,204.417,122.8,204.3,112.783Z" transform="translate(-163.972 -71.773)" fill="#f5f5f5"/>
      <path id="Path_3097" data-name="Path 3097" d="M275.679,152.661h3.653l-5.169-21.221-13.433.552.323,19.585Z" transform="translate(-195.651 -79.864)" fill="#f5f5f5"/>
      <path id="Path_3098" data-name="Path 3098" d="M167.43,419.79v0Z" transform="translate(-161.525 -185.333)" fill="#f5f5f5"/>
      <path id="Path_3099" data-name="Path 3099" d="M222.84,150.108l23.714,1.757-.317-19.515-23.365.951C222.941,139.9,222.941,146.944,222.84,150.108Z" transform="translate(-181.792 -80.197)" fill="#f5f5f5"/>
      <path id="Path_3100" data-name="Path 3100" d="M318.971,259.86l-20.7,2.55,2.784,12.45,19.173-1.991Z" transform="translate(-209.382 -126.836)" fill="#f5f5f5"/>
      <path id="Path_3101" data-name="Path 3101" d="M333.688,126.851l1.326-7.864,5.708.444.076-16.94-17.625,6.977C322.811,121.384,330.3,125.576,333.688,126.851Z" transform="translate(-218.486 -69.275)" fill="#f5f5f5"/>
      <path id="Path_3102" data-name="Path 3102" d="M329.06,182.849l.717,7.433,12.913.894.063-15.3-10.807-3.412Z" transform="translate(-220.644 -94.868)" fill="#f5f5f5"/>
      <path id="Path_3103" data-name="Path 3103" d="M336.787,286.832l-3.387,14.1,10.585-1.072.063-14.784c-3.247-.856-6.082-1.554-7.611-1.846Z" transform="translate(-222.232 -135.384)" fill="#f5f5f5"/>
      <path id="Path_3104" data-name="Path 3104" d="M327.48,160.982l14.708,4.649.038-8.366-14.448-3.736Z" transform="translate(-220.066 -87.944)" fill="#f5f5f5"/>
      <path id="Path_3105" data-name="Path 3105" d="M336.261,262.568a76.835,76.835,0,0,1,7.8,1.808l.14-32.346-10.782,1.04Z" transform="translate(-222.239 -116.657)" fill="#f5f5f5"/>
      <path id="Path_3106" data-name="Path 3106" d="M332.211,221.425l10.921-1.053.063-15.9-12.716-.882Z" transform="translate(-221.164 -106.254)" fill="#f5f5f5"/>
      <path id="Path_3107" data-name="Path 3107" d="M341.68,137.543a59.313,59.313,0,0,0,5.778,1.478v-8.029l-4.649-.362Z" transform="translate(-225.26 -79.568)" fill="#f5f5f5"/>
      <path id="Path_3108" data-name="Path 3108" d="M339.67,149.462l7.021,1.814.032-7.249c-1.82-.368-3.805-.863-5.886-1.5Z" transform="translate(-224.525 -83.92)" fill="#f5f5f5"/>
      <path id="Path_3109" data-name="Path 3109" d="M180.617,270.2l.108,3.805h.634l-.108-3.856,50.39-3.171c-.1,2.474-.19,4.871-.273,7.04h1.268c.082-2.049.178-4.5.279-7.122l10.877-.691,1.554,7.814h.634l-1.56-7.852,24.735-1.56.285,9.412h3.171l-.292-9.615,10.82-.685-.076-1.268-10.782.685-.577-19.331,11.416-.634-.038-.634-11.416.634-.488-16.154,1.4-5.816,10.744-1.085v-.634l-10.585,1.072,3.387-14.1-.349-3.6c1.529.292,4.364.989,7.611,1.846v-2c-4.37-1.154-6.615-1.63-7.8-1.808l-2.854-29.479,10.782-1.04v-1.268l-10.921,1.053-1.731-17.835,12.685.882v-1.9l-12.913-.894-.717-7.433,2.886-10.389L283.585,136v-3.317l-14.708-4.649.3-7.452,14.448,3.736v-1.966l-7.021-1.814,1.167-6.932c2.106.634,4.065,1.129,5.886,1.5v-.634a59.316,59.316,0,0,1-5.778-1.478l1.161-6.913,4.649.362v-1.268l-5.708-.444-1.326,7.864c-3.387-1.268-10.877-5.467-10.516-17.391l17.625-6.977v-.805l-.19-.488-17.429,6.9V63.844h-.634V94.078l-7.344,2.911-11.036-22.16a4.021,4.021,0,0,1-1.769.717l11.029,22.147-16.826,6.7.381,1.554-13.319.545L226.117,75.5h-.634l.507,31.02-23.359.951c-.038-4.782-.089-9.253-.114-11.74v-.266h0l-1.433-31.921h-.634l1.433,31.838L177.89,91.941,183.6,63.47h-1.941L176,91.662l-7.611-1.091-.063.412V91.2l7.56,1.085-6.063,30.208-1.63-.121v3.171l11.879.882v15.659l-11.962,2.708v1.953l13.871-3.171V126.6l44.4,3.292v18.152H212.17l-1.865,8.448H198.743l-30.716,5.588v1.934l30.9-5.651h35.187l1.268,15.4-36.6,3.514.12,1.268,36.582-3.514,2.423,29.511-36.957-4.826-.247,1.9,37.363,4.884,1.446,17.41-39.113,3.945-20.3,1.44V202.7l19.224-11.213-.958-1.643-18.8,10.953-11.721-1.56v1.9l11.6,1.56V219.63l-11.67,1.237v1.9l11.683-1.237v8.442h0l.691,23.93h0l-12.526,4.909v2.042l12.6-4.934.374,13.033-13.008.824v.425l.051.844Zm52.349-4.579c.038-1.129.082-2.271.127-3.425H243l.545,2.727Zm11.213-.71-.634-3.051-1.478-13.953-.831-10.148,27.018-2.042.831,27.6Zm6.12-41.466,14.219-1.433-.4,5.581-12.742,1.37Zm-.634.063,2.378,12.177-10.915.824-.989-12.05Zm18.551,10.96-15.532,1.173-1.059-5.429,13.687-1.471.488-6.862,3.425-.342-1.237,5.15Zm-18.393-43.819L252.6,203.1l-14.086,1.465-1.015-12.387Zm3.412,12.374-2.784-12.45,20.7-2.537,1.268,13.008Zm14.251-52.831-31.23-2.163,2.975-17.226,2.182.165h26.314l2.112.672L266.79,142.7Zm-1.9-54.753c-.032,3.273.685,14.08,11.048,17.758l-1.142,7.053-6.444-1.668L258.869,98.118Zm-8.537,3.38,10.376,20.758-.33,8.245H246.571L241.059,105.2Zm-17,7.757L245.22,127.8h-3.609l-14.625-1.078-.323-19.591Zm-14.067.577.317,19.515-23.714-1.757c.1-3.171.082-10.2,0-16.807ZM177.725,92.569l24.139,3.463c.12,10.021.228,24.228.108,28.858l-30.285-2.245Zm60.848,38.212-4.44,25.693h-7.122V129.9Zm-24.919,19.147h12.685v6.545H212.246Zm20.93,7.509,1.268-7.5,31.743,2.194,1.776,18.355L235.9,173.712Zm34.933,14.321,1.4,14.391L237.3,190.3l-1.268-15.323Zm-30.906,34.718,33.925-3.533.323,3.3-3.526,14.657-29.3,2.956Zm2.778,41.536,1.44,13.6h-9.71c.171-4.484.336-8.968.457-12.336.209-6.044.209-6.044-.19-6.241l-.3.6-.634.032c0,.526-.273,8.816-.634,17.676l-28.255-13.6-1-19.49,36.963-3.7ZM200,228.529l-.2,25.02-19.078.907-.71-24.513Zm-19.243,27.145h0V255.1l19.693-.932.209-25.686,1.205-.121,1.021,19.832,28.889,13.845c-.044,1.23-.1,2.467-.14,3.7l-50.478,3.171Z" transform="translate(-161.584 -55.003)" fill="#fff"/>
      <path id="Path_3110" data-name="Path 3110" d="M217.954,365.1l-27.564,1.928v8.854l45.5-2.467Z" transform="translate(-169.923 -165.33)" fill="#ebebeb"/>
      <path id="Path_3111" data-name="Path 3111" d="M306.5,205.864l-27.57-1.744-1.706,4.731.932,14.1,29.936-3.552Z" transform="translate(-201.683 -106.448)" fill="#ebebeb"/>
      <path id="Path_3112" data-name="Path 3112" d="M180.876,428.925l88.494.406a13.522,13.522,0,0,0,13.592-13.471l.089-20.41H167.493l-.063,15.437v4.858A13.522,13.522,0,0,0,180.876,428.925Z" transform="translate(-161.525 -176.431)" fill="#ebebeb"/>
      <path id="Path_3113" data-name="Path 3113" d="M207.288,94.587l-.457-25.927H193.367L189.46,91.981Z" transform="translate(-169.583 -56.901)" fill="#ebebeb"/>
      <path id="Path_3114" data-name="Path 3114" d="M308.814,146.834l1.37-5.619-9.475-18.025-12.158,5.987,4.053,17.048Z" transform="translate(-205.827 -76.847)" fill="#ebebeb"/>
      <path id="Path_3115" data-name="Path 3115" d="M190.39,280.186c.146.818,0,22.75,0,22.75l17.758-1.116-2.036-29.98Z" transform="translate(-169.923 -131.218)" fill="#ebebeb"/>
      <path id="Path_3116" data-name="Path 3116" d="M283.049,303.028l-.939-13.592,30.4-3.907v2.347l-3.679,12.5Z" transform="translate(-203.472 -136.225)" fill="#ebebeb"/>
      <path id="Path_3117" data-name="Path 3117" d="M243.868,133.254a3.7,3.7,0,1,1-3.7-3.7,3.7,3.7,0,0,1,3.7,3.7Z" transform="translate(-186.774 -79.173)" fill="#ff725e"/>
      <g id="Group_911" data-name="Group 911" transform="translate(49.683 50.38)" opacity="0.6">
        <path id="Path_3118" data-name="Path 3118" d="M243.86,133.1A3.7,3.7,0,1,1,240,129.558a3.7,3.7,0,0,1,3.856,3.539Z" transform="translate(-236.455 -129.555)" fill="#fff"/>
      </g>
      <circle id="Ellipse_24" data-name="Ellipse 24" cx="2.461" cy="2.461" r="2.461" transform="translate(50.929 51.493)" fill="#ff725e"/>
      <path id="Path_3119" data-name="Path 3119" d="M330.7,367.611a1.586,1.586,0,1,1-.462-1.144,1.586,1.586,0,0,1,.462,1.144Z" transform="translate(-220.085 -165.659)" fill="#ff725e"/>
      <path id="Path_3120" data-name="Path 3120" d="M286.044,282.484l-.387-8.879-26.714,1.3a4.078,4.078,0,0,1-2.023-.431l-37.9-19.141a2.753,2.753,0,0,1-1.5-2.309L212.359,152.98a1.668,1.668,0,0,1,1.795-1.75l16.243,1.2V134.67h1.9v18a1.681,1.681,0,0,1-.507,1.237,1.706,1.706,0,0,1-1.268.438l-16.23-1.2,5.144,99.784a.85.85,0,0,0,.463.7l37.9,19.154a2.15,2.15,0,0,0,1.072.228l26.942-1.313a1.694,1.694,0,0,1,1.211.438,1.668,1.668,0,0,1,.552,1.173l.387,9.089Z" transform="translate(-177.958 -81.046)" fill="#ff725e"/>
      <circle id="Ellipse_25" data-name="Ellipse 25" cx="4.795" cy="4.795" r="4.795" transform="translate(32.714 110.591)" fill="#ff725e"/>
      <circle id="Ellipse_26" data-name="Ellipse 26" cx="3.33" cy="3.33" r="3.33" transform="translate(34.179 112.056)" fill="#fafafa"/>
      <path id="Path_3121" data-name="Path 3121" d="M215.2,233.561a3.571,3.571,0,1,1,3.564-3.571A3.571,3.571,0,0,1,215.2,233.561Zm0-6.666a3.1,3.1,0,1,0,3.089,3.1A3.1,3.1,0,0,0,215.2,226.9Z" transform="translate(-177.689 -114.605)" fill="#ff725e"/>
      <path id="Path_3122" data-name="Path 3122" d="M247.463,200.34H224.631a2.011,2.011,0,0,0-2.011,2.011V210.6a2.01,2.01,0,0,0,2.011,2.01h.266v1.972l2.29-1.972h20.3a2.011,2.011,0,0,0,2.011-2.01V202.35a2.011,2.011,0,0,0-2.03-2.011Z" transform="translate(-181.712 -105.065)" fill="#ff725e"/>
      <g id="Group_912" data-name="Group 912" transform="translate(40.908 95.274)" opacity="0.4">
        <path id="Path_3123" data-name="Path 3123" d="M247.463,200.34H224.631a2.011,2.011,0,0,0-2.011,2.011V210.6a2.01,2.01,0,0,0,2.011,2.01h.266v1.972l2.29-1.972h20.3a2.011,2.011,0,0,0,2.011-2.01V202.35a2.011,2.011,0,0,0-2.03-2.011Z" transform="translate(-222.62 -200.34)" fill="#fff"/>
      </g>
      <path id="Path_3124" data-name="Path 3124" d="M230.719,209a1.37,1.37,0,1,1,1.376,1.319A1.313,1.313,0,0,1,230.719,209Zm2.372,0a1,1,0,1,0-1,1,.964.964,0,0,0,1-1Z" transform="translate(-184.674 -107.714)" fill="#fff"/>
      <path id="Path_3125" data-name="Path 3125" d="M237.833,209.3a.945.945,0,0,1-.983,1,.818.818,0,0,1-.7-.33v.311h-.342v-2.74h.355v1.078a.837.837,0,0,1,.685-.311.945.945,0,0,1,.983,1Zm-.355,0a.273.273,0,1,0,.025,0Z" transform="translate(-186.536 -107.699)" fill="#fff"/>
      <path id="Path_3126" data-name="Path 3126" d="M238.75,210.869l.114-.273a.438.438,0,0,0,.292.1c.184,0,.292-.121.292-.342V208.3h.349v2.042a.584.584,0,0,1-.634.634A.7.7,0,0,1,238.75,210.869Zm.634-3.171a.242.242,0,1,1,.235.228.222.222,0,0,1-.235-.235Z" transform="translate(-187.612 -107.673)" fill="#fff"/>
      <path id="Path_3127" data-name="Path 3127" d="M243.12,209.86h-1.586a.634.634,0,0,0,.71.571.736.736,0,0,0,.564-.235l.2.228a1.072,1.072,0,0,1-1.827-.679.958.958,0,0,1,.983-1,.939.939,0,0,1,.964,1A.634.634,0,0,1,243.12,209.86Zm-1.586-.254H242.8a.634.634,0,1,0-1.268,0Z" transform="translate(-188.5 -108.141)" fill="#fff"/>
      <path id="Path_3128" data-name="Path 3128" d="M244.74,209.745a.977.977,0,0,1,1.034-1,.863.863,0,0,1,.793.412l-.266.178a.634.634,0,0,0-.533-.285.691.691,0,0,0,0,1.376.634.634,0,0,0,.533-.279l.266.171a.869.869,0,0,1-.793.419.983.983,0,0,1-1.034-1Z" transform="translate(-189.803 -108.141)" fill="#fff"/>
      <path id="Path_3129" data-name="Path 3129" d="M249.312,210.356a.7.7,0,0,1-.431.133.552.552,0,0,1-.634-.634v-1.078h-.336v-.285h.336v-.431h.355v.431h.558v.285H248.6v1.059a.285.285,0,0,0,.3.33.437.437,0,0,0,.273-.089Z" transform="translate(-190.962 -107.889)" fill="#fff"/>
      <path id="Path_3130" data-name="Path 3130" d="M250.69,207.688a.235.235,0,0,1,.241-.228.228.228,0,0,1,.241.222.241.241,0,1,1-.482,0Zm.063.634h.355v1.953h-.355Z" transform="translate(-191.979 -107.67)" fill="#fff"/>
      <path id="Path_3131" data-name="Path 3131" d="M253.944,208.78l-.856,1.953h-.362l-.856-1.953h.374l.634,1.567.685-1.567Z" transform="translate(-192.411 -108.153)" fill="#fff"/>
      <path id="Path_3132" data-name="Path 3132" d="M257.23,209.86h-1.586a.634.634,0,0,0,.71.571.736.736,0,0,0,.564-.235l.19.228a.958.958,0,0,1-.767.317.983.983,0,0,1-1.053-1,.958.958,0,0,1,.983-1,.939.939,0,0,1,.964,1,.631.631,0,0,1-.006.108Zm-1.586-.254h1.268a.634.634,0,0,0-1.268,0Z" transform="translate(-193.661 -108.141)" fill="#fff"/>
      <path id="Path_3133" data-name="Path 3133" d="M244.428,113.023a4.744,4.744,0,1,0-8.816,2.4h0c.184.3.412.526.634.85l2.759,3.647a.856.856,0,0,0,1.37,0l2.708-3.59a10.106,10.106,0,0,0,.691-.913h0a4.731,4.731,0,0,0,.653-2.391Zm-4.744,2.042a2.093,2.093,0,1,1,2.087-2.093,2.093,2.093,0,0,1-2.087,2.093Z" transform="translate(-186.218 -71.379)" fill="#ff725e"/>
      <path id="Path_3134" data-name="Path 3134" d="M200.932,410.463h-.882v-.323h2.131v.323h-.894v2.258h-.368Z" transform="translate(-173.457 -181.804)" fill="#263238"/>
      <path id="Path_3135" data-name="Path 3135" d="M203.36,412.077a1.015,1.015,0,1,1,1.021,1,.97.97,0,0,1-1.021-1Zm1.674,0a.656.656,0,1,0-.656.656.656.656,0,0,0,.656-.656Z" transform="translate(-174.667 -182.137)" fill="#263238"/>
      <path id="Path_3136" data-name="Path 3136" d="M208.269,412.683a.634.634,0,0,1-.425.14.558.558,0,0,1-.634-.634v-1.072h-.33v-.292h.33V410.4h.381v.425h.558v.292h-.558v1.059a.285.285,0,0,0,.3.33.476.476,0,0,0,.279-.1Z" transform="translate(-175.955 -181.899)" fill="#263238"/>
      <path id="Path_3137" data-name="Path 3137" d="M211.213,411.887v1.18h-.336v-.254a.742.742,0,0,1-.634.279c-.444,0-.723-.235-.723-.577s.2-.571.78-.571h.564v-.07c0-.3-.171-.476-.526-.476a.951.951,0,0,0-.634.216l-.152-.266a1.268,1.268,0,0,1,.812-.254.729.729,0,0,1,.85.793Zm-.355.583V412.2h-.545c-.349,0-.45.14-.45.3s.159.317.431.317a.565.565,0,0,0,.564-.349Z" transform="translate(-176.92 -182.149)" fill="#263238"/>
      <path id="Path_3138" data-name="Path 3138" d="M213.22,409.9h.355v2.734h-.355Z" transform="translate(-178.274 -181.716)" fill="#263238"/>
      <path id="Path_3139" data-name="Path 3139" d="M218.182,409.9v2.734h-.336v-.311a.831.831,0,0,1-.7.336,1,1,0,0,1,0-2,.825.825,0,0,1,.685.317V409.9Zm-.349,1.757a.634.634,0,1,0-.164.486A.634.634,0,0,0,217.833,411.657Z" transform="translate(-179.373 -181.716)" fill="#263238"/>
      <path id="Path_3140" data-name="Path 3140" d="M220.27,410.043a.267.267,0,1,1,.241.228.235.235,0,0,1-.241-.228Zm.063.6h.355V412.6h-.355Z" transform="translate(-180.852 -181.681)" fill="#263238"/>
      <path id="Path_3141" data-name="Path 3141" d="M221.6,412.869l.152-.285a1.23,1.23,0,0,0,.685.2c.33,0,.463-.1.463-.26,0-.444-1.268-.063-1.268-.837,0-.355.317-.59.818-.59a1.452,1.452,0,0,1,.71.178l-.152.279a1.027,1.027,0,0,0-.564-.152c-.311,0-.457.114-.457.266,0,.463,1.268.089,1.268.844,0,.355-.323.583-.844.583a1.452,1.452,0,0,1-.812-.228Z" transform="translate(-181.339 -182.155)" fill="#263238"/>
      <path id="Path_3142" data-name="Path 3142" d="M225.832,412.683a.634.634,0,0,1-.431.14.558.558,0,0,1-.634-.634v-1.072h-.336v-.292h.361V410.4h.355v.425h.558v.292h-.558v1.059a.285.285,0,0,0,.3.33.444.444,0,0,0,.273-.1Z" transform="translate(-182.374 -181.899)" fill="#263238"/>
      <path id="Path_3143" data-name="Path 3143" d="M228.783,411.888v1.18h-.336v-.254a.749.749,0,0,1-.634.279c-.438,0-.723-.235-.723-.577s.2-.571.786-.571h.564v-.07c0-.3-.178-.476-.526-.476a.984.984,0,0,0-.634.216l-.146-.266a1.268,1.268,0,0,1,.812-.254.729.729,0,0,1,.837.793Zm-.355.583V412.2h-.545c-.355,0-.45.14-.45.3s.159.317.431.317a.565.565,0,0,0,.564-.349Z" transform="translate(-183.347 -182.15)" fill="#263238"/>
      <path id="Path_3144" data-name="Path 3144" d="M232.631,411.936v1.123h-.349v-1.085c0-.381-.2-.571-.533-.571a.583.583,0,0,0-.634.634v1h-.355v-1.953h.336v.3a.844.844,0,0,1,.71-.317.755.755,0,0,1,.824.869Z" transform="translate(-184.689 -182.142)" fill="#263238"/>
      <path id="Path_3145" data-name="Path 3145" d="M234.48,412.095a.977.977,0,0,1,1.034-1,.881.881,0,0,1,.8.419l-.273.171a.634.634,0,0,0-.533-.279.691.691,0,0,0,0,1.376.634.634,0,0,0,.533-.279l.273.165a.888.888,0,0,1-.8.425.983.983,0,0,1-1.034-1Z" transform="translate(-186.05 -182.154)" fill="#263238"/>
      <path id="Path_3146" data-name="Path 3146" d="M239.69,412.216H238.1a.634.634,0,0,0,.71.571.736.736,0,0,0,.564-.235l.2.228a1,1,0,0,1-.774.317.983.983,0,0,1-1.053-1,.958.958,0,0,1,.983-1,.939.939,0,0,1,.964,1.008A.63.63,0,0,1,239.69,412.216Zm-1.586-.254h1.268a.634.634,0,1,0-1.268,0Z" transform="translate(-187.246 -182.155)" fill="#263238"/>
      <path id="Path_3147" data-name="Path 3147" d="M203.567,418.78v6.152H202.14v-5.01h-1.23V418.78Z" transform="translate(-173.771 -184.964)" fill="#263238"/>
      <path id="Path_3148" data-name="Path 3148" d="M208.429,426.75a2.1,2.1,0,0,1-.235.875l-.507,1.268h-.869l.387-1.4a.767.767,0,0,1-.476-.748.85.85,0,0,1,1.7,0Z" transform="translate(-175.899 -187.568)" fill="#263238"/>
      <path id="Path_3149" data-name="Path 3149" d="M212.449,418.78v6.152H210.99v-5.01h-1.23V418.78Z" transform="translate(-177.008 -184.964)" fill="#263238"/>
      <path id="Path_3150" data-name="Path 3150" d="M215.64,421.8c0-2.03,1.123-3.171,2.638-3.171s2.638,1.154,2.638,3.171-1.116,3.171-2.638,3.171S215.64,423.831,215.64,421.8Zm3.843,0c0-1.4-.495-1.979-1.205-1.979s-1.2.583-1.2,1.979.495,1.979,1.2,1.979S219.483,423.2,219.483,421.8Z" transform="translate(-179.159 -184.909)" fill="#263238"/>
      <path id="Path_3151" data-name="Path 3151" d="M225.05,421.8c0-2.03,1.129-3.171,2.645-3.171s2.638,1.154,2.638,3.171-1.116,3.171-2.638,3.171S225.05,423.831,225.05,421.8Zm3.85,0c0-1.4-.495-1.979-1.205-1.979s-1.2.583-1.2,1.979.495,1.979,1.2,1.979,1.205-.577,1.205-1.979Z" transform="translate(-182.601 -184.909)" fill="#263238"/>
      <path id="Path_3152" data-name="Path 3152" d="M246.851,422.983v2.708h-1.37V423.2c0-.767-.342-1.123-.9-1.123s-1.046.4-1.046,1.268v2.372h-1.37v-2.493c0-.767-.323-1.123-.894-1.123s-1.04.4-1.04,1.268v2.372h-1.37v-4.795h1.307v.545a1.9,1.9,0,0,1,1.49-.634,1.763,1.763,0,0,1,1.554.774,2.137,2.137,0,0,1,1.706-.774A1.873,1.873,0,0,1,246.851,422.983Z" transform="translate(-187.652 -185.723)" fill="#263238"/>
      <circle id="Ellipse_27" data-name="Ellipse 27" cx="5.309" cy="5.309" r="5.309" transform="matrix(0.229, -0.973, 0.973, 0.229, 11.805, 237.271)" fill="#ff725e"/>
      <path id="Path_3153" data-name="Path 3153" d="M183.318,417.6a8.285,8.285,0,0,1,1.364-.083c.869,0,2.112-.044,3.6-.057l-.108.235c-.425-.482-.875-1.015-1.357-1.567l-.082-.1.082-.108,1.338-1.668.127.266h-4.991l.152-.146c0,1.611-.038,2.968-.063,3.92a9.418,9.418,0,0,1-.089,1.5,10.471,10.471,0,0,1-.089-1.5c0-.951-.044-2.309-.057-3.92v-.146h5.448l-.216.266-1.351,1.668v-.2l1.332,1.586.2.235h-.311c-1.484,0-2.727-.038-3.6-.057a7.775,7.775,0,0,1-1.332-.127Z" transform="translate(-167.271 -183.3)" fill="#fafafa"/>
      <path id="Path_3154" data-name="Path 3154" d="M311.192,403.73H295.146a3.076,3.076,0,0,0-3.076,3.076V419.44a3.076,3.076,0,0,0,3.076,3.07h.406v3.013l3.495-3.013h12.146a3.076,3.076,0,0,0,3.076-3.07V406.806a3.076,3.076,0,0,0-3.076-3.076Z" transform="translate(-207.115 -179.459)" fill="#ff725e"/>
      <path id="Path_3155" data-name="Path 3155" d="M299.33,412.735v6.482a.254.254,0,0,0,.254.254h13.585a.254.254,0,0,0,.247-.26l-.032-2.372a.247.247,0,0,0-.044-.146l-1.953-2.607a.241.241,0,0,0-.2-.1h-2.245a.254.254,0,0,1-.254-.247v-.983a.247.247,0,0,0-.247-.254h-8.879a.254.254,0,0,0-.235.235Z" transform="translate(-209.77 -182.667)" fill="#fafafa"/>
      <path id="Path_3156" data-name="Path 3156" d="M315.09,415.6v2.087a.146.146,0,0,0,.146.146l3-.051a.146.146,0,0,0,.114-.228l-1.414-2.08a.133.133,0,0,0-.121-.063l-1.6.044a.14.14,0,0,0-.127.146Z" transform="translate(-215.535 -183.731)" fill="#ff725e"/>
      <rect id="Rectangle_190" data-name="Rectangle 190" width="14.632" height="0.45" transform="translate(89.287 237)" fill="#fafafa"/>
      <path id="Path_3157" data-name="Path 3157" d="M304.855,423.236a1.452,1.452,0,1,1-1.446-1.446,1.452,1.452,0,0,1,1.446,1.446Z" transform="translate(-210.728 -186.065)" fill="#ff725e"/>
      <path id="Path_3158" data-name="Path 3158" d="M304.6,423.58a.856.856,0,1,1-.85-.85A.856.856,0,0,1,304.6,423.58Z" transform="translate(-211.072 -186.409)" fill="#fafafa"/>
      <path id="Path_3159" data-name="Path 3159" d="M314.04,419.459c-.038,0-.07-1.567-.07-3.495a31.227,31.227,0,0,1,.07-3.495,32.273,32.273,0,0,1,.063,3.495C314.1,417.893,314.071,419.459,314.04,419.459Z" transform="translate(-215.125 -182.656)" fill="#ff725e"/>
      <path id="Path_3160" data-name="Path 3160" d="M317.332,423.236a1.446,1.446,0,1,1-1.446-1.446A1.446,1.446,0,0,1,317.332,423.236Z" transform="translate(-215.297 -186.065)" fill="#ff725e"/>
      <path id="Path_3161" data-name="Path 3161" d="M317.012,423.58a.856.856,0,1,1-.856-.85A.856.856,0,0,1,317.012,423.58Z" transform="translate(-215.611 -186.409)" fill="#fafafa"/>
      <path id="Path_3162" data-name="Path 3162" d="M316.156,419.82c0,.038-.209.063-.463.063s-.463,0-.463-.063.209-.07.463-.07S316.156,419.782,316.156,419.82Z" transform="translate(-215.586 -185.319)" fill="#ff725e"/>
    </g>
  </g>
</svg>
