<svg id="freepik--Character--inject-122" xmlns="http://www.w3.org/2000/svg" width="225.378" height="197.924" viewBox="0 0 225.378 197.924">
  <path id="Path_3163" data-name="Path 3163" d="M554.879,252.13s10.23,1.725,11.055,1.947,4.065,1.757,4.23,2.746a29.664,29.664,0,0,1,0,3.9s-.59.476-.951-.476a9.709,9.709,0,0,1-.311-2.835l-1.814-.7.989,1.757.165,4.116s-1.268-.114-1.516-1.1a9.715,9.715,0,0,1-.241-2.087l-1.319-1.116.989,1.338.33,2.962s-.964.317-1.268-.342a10.209,10.209,0,0,1-.33-2.619l-3.729-1.306-2.467,1.376-4.611-2.575Z" transform="translate(-413.485 -188.796)" fill="#ffbe9d"/>
  <path id="Path_3164" data-name="Path 3164" d="M495.927,212.26c.051.2,12.329,17.124,12.329,17.124l24.672,7.674-1.123,9.266-30.234-6.089L490.84,227.919Z" transform="translate(-390.354 -174.213)" fill="#ff725e"/>
  <g id="Group_913" data-name="Group 913" transform="translate(100.486 38.047)" opacity="0.2">
    <path id="Path_3165" data-name="Path 3165" d="M495.927,212.26c.051.2,12.329,17.124,12.329,17.124l24.672,7.674-1.123,9.266-30.234-6.089L490.84,227.919Z" transform="translate(-490.84 -212.26)"/>
  </g>
  <rect id="Rectangle_191" data-name="Rectangle 191" width="54.278" height="9.824" rx="3.05" transform="translate(10.254 61.317)" fill="#f5f5f5"/>
  <path id="Path_3166" data-name="Path 3166" d="M400.825,258.646a1.72,1.72,0,0,0,.317-.044,1.9,1.9,0,0,0,1.548-1.668v-6.222a1.9,1.9,0,0,0-.634-1.357,1.846,1.846,0,0,0-.717-.374,2.91,2.91,0,0,0-.856-.057H394.6l-44.149.051a1.776,1.776,0,0,0-1.313.577,1.82,1.82,0,0,0-.457,1.364v5.55a2.65,2.65,0,0,0,.063.723,1.788,1.788,0,0,0,1.516,1.3h12.469l19.845.038,13.382.051,3.64.032h0l-3.64.032-13.382.051-19.845.038H350.181a2.163,2.163,0,0,1-.786-.254,2.1,2.1,0,0,1-1-1.268,2.574,2.574,0,0,1-.076-.812V250.87a2.188,2.188,0,0,1,.552-1.586,2.08,2.08,0,0,1,1.554-.685l44.149.051h5.879a3.652,3.652,0,0,1,.907.076,2,2,0,0,1,.786.419,2.042,2.042,0,0,1,.7,1.49v4.135c0,.793,0,1.484-.032,2.106a2,2,0,0,1-.767,1.326,1.9,1.9,0,0,1-.875.362,1.129,1.129,0,0,1-.349.082Z" transform="translate(-338.221 -187.505)" fill="#263238"/>
  <circle id="Ellipse_28" data-name="Ellipse 28" cx="25.934" cy="25.934" r="25.934" transform="translate(171.082 146.113) rotate(-2.75)" fill="#263238"/>
  <path id="Path_3167" data-name="Path 3167" d="M604.078,420.84v.07a25.934,25.934,0,1,0,51.862.748s0-.044,0-.07Z" transform="translate(-431.772 -250.505)" fill="#263238"/>
  <path id="Path_3168" data-name="Path 3168" d="M616.249,410.771a18.209,18.209,0,1,0,18.469-17.942,18.209,18.209,0,0,0-18.469,17.942Z" transform="translate(-436.224 -240.259)" fill="#fafafa"/>
  <path id="Path_3169" data-name="Path 3169" d="M634.719,392.829a18.209,18.209,0,0,0-18.469,17.942l36.411.526A18.209,18.209,0,0,0,634.719,392.829Z" transform="translate(-436.225 -240.259)" fill="#e0e0e0"/>
  <path id="Path_3170" data-name="Path 3170" d="M627.469,414.977a11.093,11.093,0,1,0,11.251-10.928,11.093,11.093,0,0,0-11.251,10.928Z" transform="translate(-440.328 -244.363)" fill="#263238"/>
  <path id="Path_3171" data-name="Path 3171" d="M615.151,360.988s26.549-8.029,37.527,20.815L597.12,399.016Z" transform="translate(-429.228 -228.237)" fill="#ff725e"/>
  <circle id="Ellipse_29" data-name="Ellipse 29" cx="25.934" cy="25.934" r="25.934" transform="translate(11.078 146.116) rotate(-2.75)" fill="#263238"/>
  <path id="Path_3172" data-name="Path 3172" d="M351.788,420.84v.07a25.934,25.934,0,1,0,51.862.748v-.082Z" transform="translate(-339.492 -250.505)" fill="#263238"/>
  <path id="Path_3173" data-name="Path 3173" d="M364,410.771a18.209,18.209,0,1,0,18.469-17.942A18.209,18.209,0,0,0,364,410.771Z" transform="translate(-343.958 -240.259)" fill="#fafafa"/>
  <path id="Path_3174" data-name="Path 3174" d="M382.443,392.829A18.209,18.209,0,0,0,364,410.771l36.411.526a18.209,18.209,0,0,0-17.968-18.469Z" transform="translate(-343.96 -240.259)" fill="#e0e0e0"/>
  <path id="Path_3175" data-name="Path 3175" d="M375.179,414.977a11.093,11.093,0,1,0,11.251-10.928A11.093,11.093,0,0,0,375.179,414.977Z" transform="translate(-348.048 -244.363)" fill="#263238"/>
  <path id="Path_3176" data-name="Path 3176" d="M425.284,403.917c-.146.076-13.649-2.087-13.649-2.087h0a8.245,8.245,0,0,1-6.158,3.222c-5.835.279-11.537.539-16.49.761A8.372,8.372,0,0,0,381,414.521h0a8.378,8.378,0,0,0,8.036,8.017l28.75,1.135a19.183,19.183,0,0,0,13.953-6.38h0Z" transform="translate(-350.174 -243.552)" fill="#455a64"/>
  <path id="Path_3177" data-name="Path 3177" d="M339.574,347.406s-1.23-25.274,22.522-30.538v-3.241h83.2V321.4s-12.209,14.708-8.245,26.917,5.232,13.458,5.232,13.458h47.352a32.345,32.345,0,0,0,5.981-17.942c.254-10.719-4.2-29.042-7.528-40.756-3.006-10.687-4.909-19.591-4.909-19.591l14.207-4.738s26.289,34.407,27.361,36.31,4.725,6.444,3.869,16.325-24.507,40.363-30.709,43.8-11.809,3.653-17.4,4.509c-4.846.748-40.692.254-50.073.108a18.393,18.393,0,0,1-9.26-2.569c-2.8-1.7-4.909-4.516-7.237-9.133l-4.966-9.666Z" transform="translate(-335.021 -198.533)" fill="#ff725e"/>
  <path id="Path_3178" data-name="Path 3178" d="M343.322,384.26l-10.478,16.414a2.537,2.537,0,0,0,3.114,3.755,12.2,12.2,0,0,0,3.52-2.385c4.788-4.56,13.319-16.572,13.319-16.572Z" transform="translate(-332.402 -237.125)" fill="#455a64"/>
  <path id="Path_3179" data-name="Path 3179" d="M426.727,372.416a.737.737,0,0,1,.063-.241l.209-.691a18.239,18.239,0,0,0,.552-2.708,19.116,19.116,0,0,0-1.624-9.907,20.751,20.751,0,0,0-3.862-5.8,25.329,25.329,0,0,0-6.342-4.858,32.1,32.1,0,0,0-8.308-3.1,43.762,43.762,0,0,0-9.513-.983,71.667,71.667,0,0,0-9.513.7c-3.07.412-6.013.92-8.79,1.554a52.06,52.06,0,0,0-14.112,5.22,34.923,34.923,0,0,0-8.061,6.158c-.837.863-1.44,1.579-1.839,2.068l-.45.564a1.137,1.137,0,0,1-.165.184,21.316,21.316,0,0,1,2.359-2.9,34.249,34.249,0,0,1,8.042-6.273,51.6,51.6,0,0,1,14.162-5.315c2.778-.634,5.708-1.161,8.809-1.579a72.162,72.162,0,0,1,9.59-.71,43.644,43.644,0,0,1,9.564,1,32.491,32.491,0,0,1,8.385,3.171,25.5,25.5,0,0,1,6.425,4.934,20.879,20.879,0,0,1,3.875,5.9,19.027,19.027,0,0,1,1.535,10.021,16.184,16.184,0,0,1-.634,2.708c-.1.292-.178.514-.241.685A1.338,1.338,0,0,1,426.727,372.416Z" transform="translate(-340.657 -222.326)" fill="#263238"/>
  <path id="Path_3180" data-name="Path 3180" d="M449.854,369.756c-.038,0,.133-.4.311-1.123a8.206,8.206,0,0,0,.1-3.171,13.035,13.035,0,0,0-1.548-4.4,15.038,15.038,0,0,0-1.535-2.309,13.918,13.918,0,0,0-2.061-2.137,18.007,18.007,0,0,0-4.947-2.892,23.283,23.283,0,0,0-4.541-1.268,29.733,29.733,0,0,0-3.171-.362A9.311,9.311,0,0,1,431.29,352a1.02,1.02,0,0,1,.3,0h.869a23.723,23.723,0,0,1,3.171.26,21.934,21.934,0,0,1,4.617,1.186,18.081,18.081,0,0,1,5.074,2.924,14.531,14.531,0,0,1,2.106,2.188,15.854,15.854,0,0,1,1.541,2.366,12.622,12.622,0,0,1,1.51,4.516,7.815,7.815,0,0,1-.2,3.209,4.561,4.561,0,0,1-.3.818A1.117,1.117,0,0,1,449.854,369.756Z" transform="translate(-368.572 -225.322)" fill="#f5f5f5"/>
  <g id="Group_914" data-name="Group 914" transform="translate(64.988 122.248)" opacity="0.4">
    <path id="Path_3181" data-name="Path 3181" d="M434.87,345.045a33.322,33.322,0,0,1,12.526,5.074,22.141,22.141,0,0,1,8.391,10.427,18.287,18.287,0,0,1-.336,13.477l5.879.488c1.979-6.6-.171-14.7-4.928-19.87a29.175,29.175,0,0,0-21.532-9.621" transform="translate(-434.87 -345.02)"/>
  </g>
  <rect id="Rectangle_192" data-name="Rectangle 192" width="62.313" height="44.466" rx="8.58" transform="translate(6.239 70.647)" fill="#455a64"/>
  <path id="Path_3182" data-name="Path 3182" d="M404.4,279.2c0,.1-14.01.165-31.287.165s-31.293-.07-31.293-.165,14-.165,31.293-.165S404.4,279.116,404.4,279.2Z" transform="translate(-335.847 -198.639)" fill="#263238"/>
  <path id="Path_3183" data-name="Path 3183" d="M458.038,338.315c0,.089-18.7.165-41.764.165s-41.764-.076-41.764-.165,18.7-.165,41.764-.165S458.038,338.226,458.038,338.315Z" transform="translate(-347.804 -220.259)" fill="#263238"/>
  <path id="Path_3184" data-name="Path 3184" d="M483.936,328.909a7.192,7.192,0,0,0,1.509-3.729c.127-2.087-.824-4.7-3.076-4.7H453.639a8.429,8.429,0,0,0-8.429,8.429Z" transform="translate(-373.664 -213.796)" fill="#455a64"/>
  <path id="Path_3185" data-name="Path 3185" d="M562.774,269.958l-5-10.42a6.342,6.342,0,0,1,2.537-8.15l14.942-8.911a5.01,5.01,0,0,1,2.581-.717h3.228l1.268,21.063-4.972,1.922,3.171,5.125Z" transform="translate(-414.619 -185.003)" fill="#ff725e"/>
  <path id="Path_3186" data-name="Path 3186" d="M594.91,243s5.112,1.173,5.752,9.05-4.509,10.338-4.509,10.338Z" transform="translate(-428.419 -185.457)" fill="#ebebeb"/>
  <path id="Path_3187" data-name="Path 3187" d="M561.368,262.885s-10.332,4.9-11.594,5.708a2.406,2.406,0,0,0-.939,3.254c1.167,2.924,6,.171,6,.171l9.621-4.807s3.7-1.744,2.328-3.932C565.256,260.83,561.368,262.885,561.368,262.885Z" transform="translate(-411.469 -192.435)" fill="#263238"/>
  <path id="Path_3188" data-name="Path 3188" d="M545.35,260.54s9.71,1.662,10.535,1.9,4.059,1.757,4.224,2.746a29.685,29.685,0,0,1,0,3.9s-.583.476-.951-.476a10,10,0,0,1-.311-2.841l-1.814-.7.989,1.757.165,4.122s-1.268-.114-1.509-1.1a9.622,9.622,0,0,1-.241-2.08l-1.326-1.123.989,1.338.336,2.968s-.964.311-1.268-.349a10.184,10.184,0,0,1-.33-2.619l-3.729-1.3-2.467,1.376-3.881-2.156Z" transform="translate(-410.076 -191.872)" fill="#ffbe9d"/>
  <path id="Path_3189" data-name="Path 3189" d="M564.877,235.116c0,3.932-1.807,7.116-4.034,7.116s-4.034-3.171-4.034-7.116,1.8-7.116,4.034-7.116S564.877,231.171,564.877,235.116Z" transform="translate(-414.484 -179.97)" fill="#263238"/>
  <path id="Path_3190" data-name="Path 3190" d="M564.21,246.113l2.22,7.687a1.991,1.991,0,0,0,1.034-2.271c-.558-2.632-.875-4.5-1.484-6.812-.076-.228-1.77,1.4-1.77,1.4" transform="translate(-417.19 -186.077)" fill="#263238"/>
  <g id="Group_915" data-name="Group 915" transform="translate(100.18 81.454)" opacity="0.4">
    <path id="Path_3191" data-name="Path 3191" d="M493.3,352.286c-.216-.634-.444-1.268-.634-1.947s-.431-1.268-.6-1.9a20.433,20.433,0,0,1-.558-2.9c-3.742,15.222,1.972,25.959,11.778,26.714,14.334,1.1,31.807,1.9,38.872.051,12.881-3.38,17.606-14.124,18.735-15.894s11.372-20.5,5.074-38.53S548.753,280.7,548.753,280.7l-10.42,3.5s1.9,8.879,4.928,19.56c3.33,11.714,7.782,30.037,7.528,40.756a32.346,32.346,0,0,1-5.981,17.942H497.462s-1.015-1.015-4.142-10.148" transform="translate(-490.357 -280.7)"/>
  </g>
  <path id="Path_3192" data-name="Path 3192" d="M336.587,378.7l.336-3.615,86.433,9.957a8.537,8.537,0,0,1,7.408,9.97l-.387,2.188-89.427-13A5.074,5.074,0,0,1,336.587,378.7Z" transform="translate(-333.924 -233.767)" fill="#ff725e"/>
  <g id="Group_916" data-name="Group 916" transform="translate(2.64 141.313)" opacity="0.6">
    <path id="Path_3193" data-name="Path 3193" d="M336.587,378.7l.336-3.615,86.433,9.957a8.537,8.537,0,0,1,7.408,9.97l-.387,2.188-89.427-13A5.074,5.074,0,0,1,336.587,378.7Z" transform="translate(-336.564 -375.08)"/>
  </g>
  <g id="Group_917" data-name="Group 917" transform="translate(170.721 131.722)" opacity="0.3">
    <path id="Path_3194" data-name="Path 3194" d="M601.58,397.341s19.027-20.93,22.953-37.382a37,37,0,0,1,5.892.438S619.174,390.986,601.58,397.341Z" transform="translate(-601.58 -359.959)"/>
  </g>
  <path id="Path_3195" data-name="Path 3195" d="M623.687,348.34a3.052,3.052,0,0,1,.1.526c.051.349.152.863.216,1.529a23.3,23.3,0,0,1-.146,5.708,28.835,28.835,0,0,1-2.537,8.042,91.14,91.14,0,0,1-5.036,9.006,120.257,120.257,0,0,1-11.137,15.057c-1.548,1.833-2.829,3.292-3.717,4.294l-1.027,1.148a4.443,4.443,0,0,1-.374.387,2.829,2.829,0,0,1,.323-.425l.983-1.192,3.634-4.357a130.753,130.753,0,0,0,11.036-15.082,96.676,96.676,0,0,0,5.074-8.962,29.43,29.43,0,0,0,2.537-7.953,25.369,25.369,0,0,0,.247-5.632c-.044-.666-.127-1.18-.152-1.535a2.807,2.807,0,0,1-.025-.558Z" transform="translate(-430.292 -223.987)" fill="#263238"/>
  <path id="Path_3196" data-name="Path 3196" d="M582.087,415.35a25.427,25.427,0,0,1-3.051-2.753,26.1,26.1,0,0,1-2.816-2.987A50.834,50.834,0,0,1,582.087,415.35Z" transform="translate(-421.583 -246.397)" fill="#263238"/>
  <path id="Path_3197" data-name="Path 3197" d="M496.43,414.76a8.81,8.81,0,0,1,1.4-2.708,8.923,8.923,0,0,1,2-2.3c.07.07-.8,1.11-1.725,2.486S496.519,414.8,496.43,414.76Z" transform="translate(-392.398 -246.449)" fill="#263238"/>
  <path id="Path_3198" data-name="Path 3198" d="M433.567,425.574a12.774,12.774,0,0,0,2.594-3.3,11.352,11.352,0,0,0,1.268-4.344,10.091,10.091,0,0,0-4.554-9.513,11.334,11.334,0,0,0-4.173-1.744,12.754,12.754,0,0,0-4.192-.057,1.222,1.222,0,0,1,.279-.082,6.925,6.925,0,0,1,.837-.165,9.952,9.952,0,0,1,3.12.076,11.347,11.347,0,0,1,4.3,1.719,10.249,10.249,0,0,1,4.687,9.824,11.346,11.346,0,0,1-1.37,4.44,9.831,9.831,0,0,1-1.9,2.474,6.512,6.512,0,0,1-.634.552,1.184,1.184,0,0,1-.26.121Z" transform="translate(-366.092 -245.18)" fill="#263238"/>
  <path id="Path_3199" data-name="Path 3199" d="M388.773,422.724a13.622,13.622,0,0,1-.311-3.044,14.4,14.4,0,0,1,0-3.07,28.465,28.465,0,0,1,.292,6.114Z" transform="translate(-352.877 -248.958)" fill="#263238"/>
  <path id="Path_3200" data-name="Path 3200" d="M392.19,422.727a29.363,29.363,0,0,1-.78-6.127,14.918,14.918,0,0,1,.552,3.044,14.767,14.767,0,0,1,.228,3.082Z" transform="translate(-353.985 -248.954)" fill="#263238"/>
  <path id="Path_3201" data-name="Path 3201" d="M421.783,333.675c0,.089-10.509.165-23.467.165s-23.467-.076-23.467-.165,10.509-.165,23.467-.165S421.783,333.58,421.783,333.675Z" transform="translate(-347.928 -218.562)" fill="#263238"/>
  <path id="Path_3202" data-name="Path 3202" d="M395.095,302.732c-.1,0-.165-12.05-.165-26.879s.044-26.853.165-26.853.165,12.05.165,26.885S395.184,302.732,395.095,302.732Z" transform="translate(-355.273 -187.651)" fill="#263238"/>
  <path id="Path_3203" data-name="Path 3203" d="M384.994,302.669c-.089,0,.362-12.05,1.008-26.866s1.268-26.86,1.332-26.853-.355,12.05-1,26.866S385.114,302.676,384.994,302.669Z" transform="translate(-351.634 -187.633)" fill="#263238"/>
  <path id="Path_3204" data-name="Path 3204" d="M358.151,428.871a2.059,2.059,0,0,1-.279-.285c-.165-.19-.438-.463-.736-.85a24.348,24.348,0,0,1-2.34-3.438,26.276,26.276,0,0,1,.108-26.308,23.889,23.889,0,0,1,2.366-3.419c.3-.387.577-.634.748-.85s.273-.285.279-.273a1.6,1.6,0,0,1-.228.317c-.152.209-.412.488-.7.888a27.148,27.148,0,0,0-.133,33c.279.4.533.685.685.894A1.881,1.881,0,0,1,358.151,428.871Z" transform="translate(-339.322 -240.486)" fill="#455a64"/>
  <path id="Path_3205" data-name="Path 3205" d="M499.94,373.11l-.2.368-3.831,7.173-5.353,5.15,10.7,14.245,8.911-1.478s-1-2.036-5.473-2.429L503,387.628l6.285-9.742" transform="translate(-390.251 -233.047)" fill="#455a64"/>
  <path id="Path_3206" data-name="Path 3206" d="M490.58,392.517l10.7,14.245,8.911-1.478-1.224-1.173-7.313.8-9.932-13.49Z" transform="translate(-390.259 -239.744)" fill="#e0e0e0"/>
  <path id="Path_3207" data-name="Path 3207" d="M510.3,403.054c-.051.1-.634-.108-1.268.032s-1.148.5-1.23.425.317-.672,1.154-.818S510.372,402.972,510.3,403.054Z" transform="translate(-396.555 -243.856)" fill="#263238"/>
  <path id="Path_3208" data-name="Path 3208" d="M509.495,399.539c-.076.076-.564-.381-1.268-.406s-1.268.4-1.326.317.044-.2.273-.381a1.719,1.719,0,0,1,1.065-.33,1.668,1.668,0,0,1,1.04.4A.7.7,0,0,1,509.495,399.539Z" transform="translate(-396.223 -242.421)" fill="#263238"/>
  <path id="Path_3209" data-name="Path 3209" d="M508.949,395.121c-.089.07-.482-.393-1.135-.507s-1.18.184-1.268.089.057-.184.292-.317a1.567,1.567,0,0,1,1.9.342C508.955,394.93,508.993,395.1,508.949,395.121Z" transform="translate(-396.088 -240.762)" fill="#263238"/>
  <path id="Path_3210" data-name="Path 3210" d="M512.255,391.005c-.1.051-.431-.412-1.047-.679s-1.173-.228-1.2-.336.634-.368,1.364,0S512.363,390.973,512.255,391.005Z" transform="translate(-397.365 -239.152)" fill="#263238"/>
  <path id="Path_3211" data-name="Path 3211" d="M513.494,386.6c-.044.032-.393-.273-.932-.805l-.913-.945a2.917,2.917,0,0,1-.533-.634.717.717,0,0,1-.038-.552.552.552,0,0,1,.488-.368,1.624,1.624,0,0,1,.907.292,3.341,3.341,0,0,1,.634.526,3.088,3.088,0,0,1,.679,1.211,1.668,1.668,0,0,1,0,1.268,9.518,9.518,0,0,0-.266-1.161,3.172,3.172,0,0,0-.679-1.046,2.9,2.9,0,0,0-.577-.444,1.478,1.478,0,0,0-.672-.235.165.165,0,0,0-.152.108.343.343,0,0,0,0,.26,2.8,2.8,0,0,0,.444.558l.869,1.008A3.8,3.8,0,0,1,513.494,386.6Z" transform="translate(-397.742 -236.774)" fill="#263238"/>
  <path id="Path_3212" data-name="Path 3212" d="M515.418,387.629c-.044,0-.089-.469.3-1.085a2.258,2.258,0,0,1,2.537-.92.431.431,0,0,1,.19.3.533.533,0,0,1-.063.3,1.27,1.27,0,0,1-.273.336,4.246,4.246,0,0,1-.571.463,3.954,3.954,0,0,1-1.116.52,1.827,1.827,0,0,1-1.116.082c0-.063.412-.1,1.027-.349a4.436,4.436,0,0,0,1-.552,4.027,4.027,0,0,0,.507-.444,1.008,1.008,0,0,0,.2-.235c.032-.089,0-.063,0-.082a.7.7,0,0,0-.273-.057,1.976,1.976,0,0,0-.336,0,2.221,2.221,0,0,0-.634.152,2.176,2.176,0,0,0-.882.634A7.867,7.867,0,0,0,515.418,387.629Z" transform="translate(-399.304 -237.589)" fill="#263238"/>
  <path id="Path_3213" data-name="Path 3213" d="M500.492,390.344a1.072,1.072,0,1,1-1.23-.882,1.072,1.072,0,0,1,1.23.882Z" transform="translate(-393.105 -239.023)" fill="#e0e0e0"/>
  <path id="Path_3214" data-name="Path 3214" d="M556.55,382.937l2.86,18.57,23.13-3.438c-.469-2.188-13.091-4.846-13.091-4.846l-1.345-11.974Z" transform="translate(-414.388 -236.024)" fill="#455a64"/>
  <path id="Path_3215" data-name="Path 3215" d="M565.064,400.18a.951.951,0,0,0-.495,1.173.926.926,0,0,0,1.161.5,1.008,1.008,0,0,0,.514-1.268.951.951,0,0,0-1.268-.387" transform="translate(-417.302 -242.917)" fill="#e0e0e0"/>
  <path id="Path_3216" data-name="Path 3216" d="M560.936,410.6l-.216-1.9,22.255-2.594s1.1.3,1.091,1.04Z" transform="translate(-415.914 -245.113)" fill="#e0e0e0"/>
  <path id="Path_3217" data-name="Path 3217" d="M576.338,399.824c0,.114-.539.247-1.046.691s-.723.964-.837.939-.038-.71.577-1.237S576.351,399.716,576.338,399.824Z" transform="translate(-420.921 -242.795)" fill="#263238"/>
  <path id="Path_3218" data-name="Path 3218" d="M580.746,400.853c.044.108-.419.368-.729.907s-.349,1.053-.463,1.065-.279-.634.12-1.268S580.727,400.745,580.746,400.853Z" transform="translate(-422.754 -243.184)" fill="#263238"/>
  <path id="Path_3219" data-name="Path 3219" d="M584.243,403.923c-.1.044-.342-.5-.146-1.161s.691-.989.755-.9-.216.469-.374,1.015S584.35,403.9,584.243,403.923Z" transform="translate(-424.437 -243.558)" fill="#263238"/>
  <path id="Path_3220" data-name="Path 3220" d="M575.113,395.456c0,.108-.571.032-1.205.165s-1.1.419-1.173.33.349-.564,1.091-.717S575.158,395.354,575.113,395.456Z" transform="translate(-420.305 -241.122)" fill="#263238"/>
  <path id="Path_3221" data-name="Path 3221" d="M572.84,390.588a2.2,2.2,0,0,1-1.161.165,5.311,5.311,0,0,1-1.268-.19,5.429,5.429,0,0,1-.742-.235,1.268,1.268,0,0,1-.387-.222.482.482,0,0,1-.14-.59.634.634,0,0,1,.457-.336,1.44,1.44,0,0,1,.438,0,3.594,3.594,0,0,1,.761.139,4.2,4.2,0,0,1,1.173.539c.634.419.856.812.818.844s-.362-.273-.964-.6a4.515,4.515,0,0,0-1.123-.425,3.421,3.421,0,0,0-.7-.108c-.254,0-.463,0-.507.121s0,.057.044.127a1.174,1.174,0,0,0,.285.159,6.823,6.823,0,0,0,.666.26,6.519,6.519,0,0,0,1.186.26A8.158,8.158,0,0,1,572.84,390.588Z" transform="translate(-418.977 -238.919)" fill="#263238"/>
  <path id="Path_3222" data-name="Path 3222" d="M574.486,389.517a1.983,1.983,0,0,1-.476-1.072,3.921,3.921,0,0,1,0-1.268,4.331,4.331,0,0,1,.19-.748.964.964,0,0,1,.634-.691.552.552,0,0,1,.533.247,1.659,1.659,0,0,1,.184.412,2.582,2.582,0,0,1,.114.78,2.7,2.7,0,0,1-.317,1.268c-.362.634-.812.869-.824.831a4.792,4.792,0,0,0,.571-.951,2.644,2.644,0,0,0,.2-1.142,2.238,2.238,0,0,0-.12-.666c-.07-.241-.19-.425-.279-.387a.829.829,0,0,0-.349.438,3.84,3.84,0,0,0-.2.672,4.283,4.283,0,0,0-.051,1.186C574.359,389.073,574.543,389.492,574.486,389.517Z" transform="translate(-420.756 -237.664)" fill="#263238"/>
  <path id="Path_3223" data-name="Path 3223" d="M516.422,314.6,496.59,357.816l13.1,7.865,27.424-52" transform="translate(-392.457 -211.309)" fill="#263238"/>
  <path id="Path_3224" data-name="Path 3224" d="M534.45,357.886l-14.226,2.283-8.518-50.827-42.081,3.051a10.249,10.249,0,0,1-3.311-.311c-11.816-3.241-10.217-18.31-9.076-20.727l58.229-1.668A12.393,12.393,0,0,1,528.1,300.361Z" transform="translate(-377.778 -202.531)" fill="#263238"/>
  <path id="Path_3225" data-name="Path 3225" d="M454.325,261.036l.209-21.488s-2.772-13.953-3.6-19.465c-1.268-8.524-3.019-12.577,10.947-18.634l3.057-1.18,4.725.063c5.632.425,11.568,5.518,11.708,8.879l5.448,48.436Z" transform="translate(-375.453 -169.827)" fill="#ff725e"/>
  <path id="Path_3226" data-name="Path 3226" d="M456.253,210s-3.945,8.486-3.171,16.217l14.7,14.105c3.292,3.666,7.414,5.226,12.685,5.543l30.405,3.323.844-7.953L482.8,233.042c-1.154-.216-1.731-1.414-2.613-2.188L456.253,210" transform="translate(-376.506 -173.386)" fill="#ff725e"/>
  <path id="Path_3227" data-name="Path 3227" d="M454.39,213.238a2.079,2.079,0,0,1,.583-.393,7.247,7.247,0,0,1,1.966-.552,10.147,10.147,0,0,1,3.285,0,3.405,3.405,0,0,1,.964.33,9.7,9.7,0,0,1,.894.634c.583.457,1.173.983,1.776,1.554,1.218,1.135,2.372,2.575,3.723,4.034s2.829,3.025,4.44,4.668,3.342,3.361,5.194,5.137c.932.888,1.9,1.789,2.911,2.67.514.419,1.021.913,1.51,1.376a3.653,3.653,0,0,0,1.681.989h0l28.965,8.182.133.038v.14c-.057.564-.127,1.167-.19,1.782-.222,2.112-.444,4.2-.634,6.171v.165h-.165l-12.888-1.433-6.089-.666-5.829-.59c-1.9-.209-3.736-.425-5.518-.685a24.843,24.843,0,0,1-5.112-1.186,18.823,18.823,0,0,1-4.3-2.315c-1.268-.894-2.461-1.827-3.558-2.746-4.344-3.7-7.535-7.021-9.748-9.279-1.1-1.135-1.941-2.03-2.505-2.638l-.634-.7-.209-.247s.082.07.235.222.374.387.634.679l2.537,2.6c2.239,2.226,5.454,5.518,9.805,9.19,1.1.907,2.271,1.833,3.545,2.715a18.963,18.963,0,0,0,4.262,2.271,24.819,24.819,0,0,0,5.074,1.154c1.782.254,3.621.469,5.511.672l5.829.571,6.089.666,12.875,1.4-.184.146c.209-1.966.431-4.059.634-6.177.07-.634.133-1.218.19-1.782l.12.178-28.921-8.213h0a3.856,3.856,0,0,1-1.852-1.072c-.514-.488-.977-.945-1.5-1.383-1.021-.888-1.979-1.795-2.911-2.683-1.852-1.782-3.577-3.514-5.182-5.163s-3.076-3.222-4.44-4.7-2.48-2.911-3.685-4.046a21.135,21.135,0,0,0-1.75-1.554,7.515,7.515,0,0,0-.875-.634,3.064,3.064,0,0,0-.92-.323,9.837,9.837,0,0,0-3.241-.051,7.326,7.326,0,0,0-1.96.5A4.439,4.439,0,0,0,454.39,213.238Z" transform="translate(-377.021 -174.176)" fill="#263238"/>
  <path id="Path_3228" data-name="Path 3228" d="M466.34,165.024l1.471,20.93a6.52,6.52,0,0,0,6.507,6.057h0a6.52,6.52,0,0,0,6.507-6.945c-.133-1.991-.247-3.621-.247-3.621s5.074-.786,5.125-5.854c.038-2.924-.469-9.558-.9-14.644a6.64,6.64,0,0,0-6.64-6.076H475.1a9.361,9.361,0,0,0-8.759,10.154Z" transform="translate(-381.379 -153.221)" fill="#ffbe9d"/>
  <path id="Path_3229" data-name="Path 3229" d="M485.012,195.561a11.8,11.8,0,0,1-6.6-1.871s1.56,3.64,6.615,3.171Z" transform="translate(-385.807 -167.421)" fill="#eb996e"/>
  <path id="Path_3230" data-name="Path 3230" d="M492.846,174.329a.723.723,0,0,1-.7.729.685.685,0,0,1-.748-.634.729.729,0,0,1,.7-.736A.7.7,0,0,1,492.846,174.329Z" transform="translate(-390.559 -160.104)" fill="#263238"/>
  <path id="Path_3231" data-name="Path 3231" d="M492.439,172.011c-.1.1-.634-.311-1.421-.311s-1.345.393-1.433.3.051-.216.3-.393a1.953,1.953,0,0,1,1.142-.355,1.9,1.9,0,0,1,1.129.368C492.375,171.8,492.477,171.967,492.439,172.011Z" transform="translate(-389.885 -159.213)" fill="#263238"/>
  <path id="Path_3232" data-name="Path 3232" d="M481.326,174.329a.717.717,0,0,1-.7.729.685.685,0,0,1-.748-.634.729.729,0,0,1,.7-.736A.7.7,0,0,1,481.326,174.329Z" transform="translate(-386.345 -160.104)" fill="#263238"/>
  <path id="Path_3233" data-name="Path 3233" d="M480.343,172.241c-.089.1-.634-.311-1.421-.311s-1.345.393-1.427.3.044-.216.3-.393a1.953,1.953,0,0,1,1.142-.355,1.9,1.9,0,0,1,1.129.362C480.343,172.025,480.413,172.2,480.343,172.241Z" transform="translate(-385.464 -159.297)" fill="#263238"/>
  <path id="Path_3234" data-name="Path 3234" d="M486.281,178.042a5.188,5.188,0,0,1,1.268-.228c.2,0,.387-.063.419-.2a.951.951,0,0,0-.133-.59l-.6-1.509a25.541,25.541,0,0,1-1.319-3.958,26.92,26.92,0,0,1,1.636,3.837l.558,1.522a1.148,1.148,0,0,1,.108.78.5.5,0,0,1-.33.292,1.4,1.4,0,0,1-.336.044A5.074,5.074,0,0,1,486.281,178.042Z" transform="translate(-388.554 -159.326)" fill="#263238"/>
  <path id="Path_3235" data-name="Path 3235" d="M482.815,182.63c.127,0,.127.837.85,1.433s1.624.507,1.63.634-.2.159-.583.171a2.106,2.106,0,0,1-1.357-.476,1.826,1.826,0,0,1-.634-1.205C482.663,182.865,482.758,182.624,482.815,182.63Z" transform="translate(-387.377 -163.375)" fill="#263238"/>
  <path id="Path_3236" data-name="Path 3236" d="M480.288,167.534c-.076.209-.85.114-1.763.222s-1.655.362-1.776.171.076-.292.374-.495a3.07,3.07,0,0,1,2.7-.3C480.155,167.267,480.326,167.432,480.288,167.534Z" transform="translate(-385.187 -157.64)" fill="#263238"/>
  <path id="Path_3237" data-name="Path 3237" d="M492.1,168.442c-.133.178-.672,0-1.313,0s-1.192.114-1.319-.07.032-.266.273-.431a1.8,1.8,0,0,1,1.072-.292,1.833,1.833,0,0,1,1.047.355C492.084,168.175,492.16,168.353,492.1,168.442Z" transform="translate(-389.834 -157.895)" fill="#263238"/>
  <path id="Path_3238" data-name="Path 3238" d="M467.106,176.787c-.089-.038-3.482-1.034-3.368,2.429s3.558,2.638,3.564,2.537S467.106,176.787,467.106,176.787Z" transform="translate(-380.44 -161.179)" fill="#ffbe9d"/>
  <path id="Path_3239" data-name="Path 3239" d="M466.692,181.12a1.034,1.034,0,0,1-.159.1.634.634,0,0,1-.45,0,1.49,1.49,0,0,1-.729-1.313,2,2,0,0,1,.14-.869.7.7,0,0,1,.438-.482.311.311,0,0,1,.362.159c.051.1.032.165.051.171s.07-.063.038-.2a.374.374,0,0,0-.146-.216.45.45,0,0,0-.336-.076.837.837,0,0,0-.634.558,2.011,2.011,0,0,0-.178.97,1.554,1.554,0,0,0,.926,1.465.634.634,0,0,0,.545-.108C466.692,181.2,466.7,181.126,466.692,181.12Z" transform="translate(-380.933 -161.821)" fill="#eb996e"/>
  <path id="Path_3240" data-name="Path 3240" d="M465.637,168.3a1.827,1.827,0,0,1,1.668.856c.222.495.273,1.053.495,1.548a1.268,1.268,0,0,0,1.268.818,1.066,1.066,0,0,0,.723-.793,2.872,2.872,0,0,0,0-1.116c-.2-1.617-.539-3.216-.6-4.846a8.245,8.245,0,0,1,1.021-4.706,4.528,4.528,0,0,1,4.046-2.277c1.078.089,2.061.634,3.133.8a4.237,4.237,0,0,0,3.514-1.173,7.047,7.047,0,0,1,.634-.476,1.96,1.96,0,0,0-.362-1.066c-2.125-1.966-5.943-2.537-8.746-1.808a10.1,10.1,0,0,0-6.628,5.309c-1.205,2.626-.85,6.273-.184,8.93" transform="translate(-380.905 -152.815)" fill="#e4e4e4"/>
  <path id="Path_3241" data-name="Path 3241" d="M484.089,159.209s-13.281-4.275-19.027,7.218a21.423,21.423,0,0,1-.863-4.44,9.882,9.882,0,0,1,6.926-9.089C471.126,152.924,480.633,149.3,484.089,159.209Z" transform="translate(-380.61 -152.271)" fill="#ff725e"/>
  <path id="Path_3242" data-name="Path 3242" d="M477.4,162.3a2.892,2.892,0,0,0,4.6.419,1.7,1.7,0,0,0,3.216-.165,3.939,3.939,0,0,0,1.268.945,1.319,1.319,0,0,0,1.478-.311,1.268,1.268,0,0,0-.1-1.522,3.1,3.1,0,0,0-1.345-.907,9.735,9.735,0,0,0-5.01-.761,6.767,6.767,0,0,0-4.4,2.391" transform="translate(-385.335 -155.073)" fill="#e4e4e4"/>
  <g id="Group_918" data-name="Group 918" transform="translate(83.59 0.002)" opacity="0.4">
    <path id="Path_3243" data-name="Path 3243" d="M484.089,159.21a6.171,6.171,0,0,0-4.224-1.9,16.684,16.684,0,0,0-14.8,9.133A21.423,21.423,0,0,1,464.2,162a9.882,9.882,0,0,1,6.926-9.089C471.126,152.925,480.633,149.3,484.089,159.21Z" transform="translate(-464.2 -152.275)"/>
  </g>
  <path id="Path_3244" data-name="Path 3244" d="M466.43,165.256a25.008,25.008,0,0,1,7.738-7.408,48.729,48.729,0,0,1,11.581-4.719,7.56,7.56,0,0,1,3.2-.336,2.886,2.886,0,0,1,2.372,1.941c.33,1.313-2,3.336-3.1,4.129a35.016,35.016,0,0,1-3.323,1.966s.032-2.435-3.862-2.936C475.747,157.214,466.43,165.256,466.43,165.256Z" transform="translate(-381.425 -152.445)" fill="#ff725e"/>
  <g id="Group_919" data-name="Group 919" transform="translate(80.33 55.97)" opacity="0.3">
    <path id="Path_3245" data-name="Path 3245" d="M459.06,240.52c1.37,3.3,2.753,7.382,4.738,10.357a18.266,18.266,0,0,0,7.934,6.977,17.131,17.131,0,0,0,13.173.241c.336-.146,1-.33.932-.691,0,0-1.364-.159-1.789-.228-8.327-1.383-9.234-2.4-13.224-5.569-2.486-1.96-8-7.9-11.765-11.086" transform="translate(-459.06 -240.52)"/>
  </g>
  <path id="Path_3246" data-name="Path 3246" d="M489.99,278.46a3.483,3.483,0,0,1-.349.774,9.676,9.676,0,0,1-1.345,1.9,14.587,14.587,0,0,1-6.437,3.926,29.51,29.51,0,0,1-7.509,1.123c-.97.038-1.757.044-2.3.044a4.9,4.9,0,0,1-.844-.038,3.719,3.719,0,0,1,.837-.1l2.29-.146a32.858,32.858,0,0,0,7.427-1.205,15.1,15.1,0,0,0,6.38-3.805,16.261,16.261,0,0,0,1.846-2.48Z" transform="translate(-383.174 -198.427)" fill="#263238"/>
  <path id="Path_3247" data-name="Path 3247" d="M537.741,372.932a.634.634,0,0,1-.051-.2,3.666,3.666,0,0,0-.114-.583c-.1-.533-.235-1.268-.406-2.245-.349-1.979-.837-4.8-1.446-8.283-1.186-7.015-2.822-16.674-4.63-27.342-.805-4.833-1.573-9.45-2.277-13.668l.165.133-18.209,1.313-5.226.355-1.4.082h-.362l.362-.044,1.389-.127,5.22-.444,18.2-1.452h.14v.14c.71,4.218,1.49,8.835,2.3,13.661,1.769,10.674,3.368,20.34,4.535,27.361.558,3.488,1.015,6.342,1.338,8.3l.342,2.264c.038.241.063.438.082.584A.814.814,0,0,1,537.741,372.932Z" transform="translate(-395.047 -213.778)" fill="#455a64"/>
  <path id="Path_3248" data-name="Path 3248" d="M547.659,313.54c.057.076-1.053,1.027-2.309,2.309s-2.194,2.4-2.271,2.34a15.107,15.107,0,0,1,4.579-4.649Z" transform="translate(-409.461 -211.258)" fill="#455a64"/>
  <path id="Path_3249" data-name="Path 3249" d="M481.237,203.093a1.063,1.063,0,0,1,.076.209,2.973,2.973,0,0,1,.121.634,5.206,5.206,0,0,1-.3,2.309,5.911,5.911,0,0,1-2.093,2.74,6.342,6.342,0,0,1-4.065,1.091,7.345,7.345,0,0,1-3.951-1.484,8.391,8.391,0,0,1-2.245-2.619,9.057,9.057,0,0,1-.862-2.156,6.107,6.107,0,0,1-.127-.634.621.621,0,0,1,0-.222,14.391,14.391,0,0,0,1.2,2.879,8.7,8.7,0,0,0,2.226,2.493,7.186,7.186,0,0,0,3.805,1.4,6.158,6.158,0,0,0,3.875-1.008,5.848,5.848,0,0,0,2.042-2.575,5.385,5.385,0,0,0,.4-2.213C481.288,203.4,481.237,203.106,481.237,203.093Z" transform="translate(-381.918 -170.811)" fill="#263238"/>
  <path id="Path_3250" data-name="Path 3250" d="M501.974,237.059a2.658,2.658,0,0,1-.139-.634c-.07-.5-.152-1.11-.254-1.814-.209-1.617-.482-3.7-.78-6s-.514-4.44-.634-6.013c-.07-.767-.114-1.4-.14-1.827a2.493,2.493,0,0,1,0-.672,3.126,3.126,0,0,1,.133.634c.07.5.152,1.1.247,1.814.2,1.617.463,3.7.748,6s.533,4.44.685,6.006c.07.774.12,1.4.152,1.833a2.88,2.88,0,0,1-.019.672Z" transform="translate(-393.706 -177.081)" fill="#263238"/>
</svg>
