<svg xmlns="http://www.w3.org/2000/svg" width="30" height="31.187" viewBox="0 0 30 31.187">
  <path id="gavel_FILL0_wght400_GRAD0_opsz48" d="M161.23-824.328a1.152,1.152,0,0,1-.869-.382,1.256,1.256,0,0,1-.36-.89,1.236,1.236,0,0,1,.36-.912,1.236,1.236,0,0,1,.912-.36h17.851a1.153,1.153,0,0,1,.869.382,1.256,1.256,0,0,1,.36.89,1.235,1.235,0,0,1-.36.912,1.236,1.236,0,0,1-.912.36Zm6.4-10.77-5.851-5.851a2.494,2.494,0,0,1-.742-1.781,2.348,2.348,0,0,1,.7-1.781l1.23-1.272,9.5,9.413-1.272,1.272a2.419,2.419,0,0,1-1.781.721A2.419,2.419,0,0,1,167.632-835.1Zm12.551-8.989-9.413-9.5,1.272-1.23a2.348,2.348,0,0,1,1.781-.7,2.494,2.494,0,0,1,1.781.742l5.851,5.851a2.419,2.419,0,0,1,.721,1.781,2.419,2.419,0,0,1-.721,1.781Zm7.675,17.172-21.837-21.837,1.781-1.781,21.879,21.879a1.11,1.11,0,0,1,.318.869,1.252,1.252,0,0,1-.36.869,1.221,1.221,0,0,1-.89.381A1.221,1.221,0,0,1,187.857-826.914Z" transform="translate(-160 855.514)" fill="#ef554a"/>
</svg>
